<svg width="65" height="65" viewBox="0 0 65 65" fill="none" xmlns="http://www.w3.org/2000/svg">
<path d="M32.4411 31.3178C26.8755 31.3178 21.6755 33.4709 17.7958 37.0866V60.9537H47.0052V37.0256C43.0447 33.3533 37.8421 31.3143 32.4411 31.3178Z" fill="url(#paint0_radial_106_2309)"/>
<path d="M32.4411 31.3178C26.8755 31.3178 21.6755 33.4709 17.7958 37.0866V60.9537H47.0052V37.0256C43.0447 33.3533 37.8421 31.3143 32.4411 31.3178Z" fill="url(#paint1_linear_106_2309)"/>
<path d="M32.4411 31.3178C26.8755 31.3178 21.6755 33.4709 17.7958 37.0866V60.9537H47.0052V37.0256C43.0447 33.3533 37.8421 31.3143 32.4411 31.3178Z" fill="url(#paint2_linear_106_2309)"/>
<path d="M32.4411 31.3178C26.8755 31.3178 21.6755 33.4709 17.7958 37.0866V60.9537H47.0052V37.0256C43.0447 33.3533 37.8421 31.3143 32.4411 31.3178Z" fill="url(#paint3_linear_106_2309)"/>
<path d="M32.4411 31.3178C26.8755 31.3178 21.6755 33.4709 17.7958 37.0866V60.9537H47.0052V37.0256C43.0447 33.3533 37.8421 31.3143 32.4411 31.3178Z" fill="url(#paint4_radial_106_2309)"/>
<path d="M32.4411 31.3178C26.8755 31.3178 21.6755 33.4709 17.7958 37.0866V60.9537H47.0052V37.0256C43.0447 33.3533 37.8421 31.3143 32.4411 31.3178Z" fill="url(#paint5_radial_106_2309)"/>
<path d="M32.4411 31.3178C26.8755 31.3178 21.6755 33.4709 17.7958 37.0866V60.9537H47.0052V37.0256C43.0447 33.3533 37.8421 31.3143 32.4411 31.3178Z" fill="url(#paint6_radial_106_2309)"/>
<path d="M33.1906 31.3178C33.6984 31.3381 34.2266 31.3788 34.7547 31.4194C34.2266 31.3788 33.7187 31.3381 33.1906 31.3178Z" fill="url(#paint7_linear_106_2309)"/>
<path d="M32.5203 31.3178H32.439C32.6422 31.3178 32.825 31.3178 33.0281 31.3381C32.8656 31.3178 32.6828 31.3178 32.5203 31.3178Z" fill="url(#paint8_linear_106_2309)"/>
<path d="M12.0047 46.2678L11.9437 46.4303C10.8875 49.7819 10.3391 53.2553 10.3391 56.7694V60.9538H17.7937V37.0866C15.1088 39.6 13.1153 42.7617 12.0047 46.2678Z" fill="url(#paint9_radial_106_2309)"/>
<path d="M12.0047 46.2678L11.9437 46.4303C10.8875 49.7819 10.3391 53.2553 10.3391 56.7694V60.9538H17.7937V37.0866C15.1088 39.6 13.1153 42.7617 12.0047 46.2678Z" fill="url(#paint10_radial_106_2309)"/>
<path d="M12.0047 46.2678L11.9437 46.4303C10.8875 49.7819 10.3391 53.2553 10.3391 56.7694V60.9538H17.7937V37.0866C15.1088 39.6 13.1153 42.7617 12.0047 46.2678Z" fill="url(#paint11_linear_106_2309)"/>
<path d="M54.4598 56.8283C54.4801 53.2736 53.952 49.7392 52.8958 46.347C51.7583 42.6908 49.6864 39.5017 47.0051 37.0236V60.9517H54.4192L54.4598 56.8283Z" fill="url(#paint12_radial_106_2309)"/>
<path d="M54.4598 56.8283C54.4801 53.2736 53.952 49.7392 52.8958 46.347C51.7583 42.6908 49.6864 39.5017 47.0051 37.0236V60.9517H54.4192L54.4598 56.8283Z" fill="url(#paint13_radial_106_2309)"/>
<path d="M54.4598 56.8283C54.4801 53.2736 53.952 49.7392 52.8958 46.347C51.7583 42.6908 49.6864 39.5017 47.0051 37.0236V60.9517H54.4192L54.4598 56.8283Z" fill="url(#paint14_linear_106_2309)"/>
<path d="M33.4709 45.7478C33.4709 45.6666 33.4506 45.3355 33.4709 45.2542L38.8781 32.4756C38.8984 32.4147 38.939 32.3538 38.9594 32.3131C36.9078 31.6631 34.7344 31.3178 32.5 31.3178C30.2453 31.3178 28.0516 31.6834 25.9797 32.3334C26 32.3741 26.0406 32.435 26.0609 32.4756L31.4234 45.3944C31.4437 45.4553 31.5331 45.4959 31.5331 45.5772L31.6469 52.8897H31.6672V60.9537H33.2719V52.8897L33.4303 45.9509L33.4709 45.7478Z" fill="url(#paint15_radial_106_2309)"/>
<path d="M33.4709 45.7478C33.4709 45.6666 33.4506 45.3355 33.4709 45.2542L38.8781 32.4756C38.8984 32.4147 38.939 32.3538 38.9594 32.3131C36.9078 31.6631 34.7344 31.3178 32.5 31.3178C30.2453 31.3178 28.0516 31.6834 25.9797 32.3334C26 32.3741 26.0406 32.435 26.0609 32.4756L31.4234 45.3944C31.4437 45.4553 31.5331 45.4959 31.5331 45.5772L31.6469 52.8897H31.6672V60.9537H33.2719V52.8897L33.4303 45.9509L33.4709 45.7478Z" fill="url(#paint16_radial_106_2309)"/>
<path d="M33.1906 31.3178C33.6984 31.3381 34.2266 31.3788 34.7547 31.4194C34.2266 31.3788 33.7187 31.3381 33.1906 31.3178Z" fill="url(#paint17_linear_106_2309)"/>
<path d="M32.5203 31.3178H32.439C32.6422 31.3178 32.825 31.3178 33.0281 31.3381C32.8656 31.3178 32.6828 31.3178 32.5203 31.3178Z" fill="url(#paint18_linear_106_2309)"/>
<g filter="url(#filter0_f_106_2309)">
<path d="M20.7005 40.9541L22.1894 41.2181C22.2651 41.232 22.3357 41.2658 22.394 41.3161C22.4523 41.3663 22.4962 41.4312 22.521 41.5041C22.5459 41.577 22.5508 41.6551 22.5354 41.7306C22.5199 41.806 22.4846 41.8759 22.4331 41.9331L21.0031 43.4972C20.9293 43.5811 20.8902 43.6901 20.894 43.8018C20.8978 43.9136 20.9441 44.0197 21.0234 44.0984L30.1742 53.4422C30.3997 53.6656 30.7958 53.5153 30.7958 53.1964V46.4344C30.7958 46.3592 30.7755 46.3023 30.7592 46.2272L25.5998 34.2692C25.5858 34.2194 25.5592 34.1739 25.5226 34.1372C23.8266 34.6769 22.2113 35.4435 20.7208 36.4162L20.343 40.4828C20.3321 40.592 20.3629 40.7012 20.4292 40.7886C20.4955 40.876 20.5924 40.9351 20.7005 40.9541Z" fill="#A49EA5"/>
</g>
<g filter="url(#filter1_f_106_2309)">
<path d="M44.4397 40.9541L42.9528 41.2181C42.8771 41.232 42.8064 41.2658 42.7481 41.3161C42.6898 41.3663 42.646 41.4312 42.6211 41.5041C42.5963 41.577 42.5913 41.6551 42.6068 41.7306C42.6222 41.806 42.6575 41.8759 42.709 41.9331L44.139 43.4972C44.2129 43.5811 44.2519 43.6901 44.2481 43.8018C44.2444 43.9136 44.1981 44.0197 44.1187 44.0984L34.9679 53.4422C34.7404 53.6656 34.3464 53.5153 34.3464 53.1964V46.4344C34.3464 46.3592 34.3647 46.3023 34.3829 46.2272L39.5423 34.2692C39.5562 34.2193 39.5828 34.1738 39.6195 34.1372C41.3156 34.6768 42.9309 35.4435 44.4214 36.4162L44.7992 40.4828C44.81 40.5923 44.7789 40.7018 44.7122 40.7892C44.6455 40.8767 44.5481 40.9356 44.4397 40.9541Z" fill="url(#paint19_linear_106_2309)"/>
</g>
<path d="M33.7878 44.0761C33.2556 45.1222 33.2556 45.9875 33.2556 46.7269V52.8044C33.2556 53.1497 33.6781 53.3325 33.9198 53.0684L43.7064 42.9934C43.8892 42.8106 43.8892 42.5263 43.7267 42.3434L42.1972 40.6575C42.1416 40.5958 42.1035 40.5204 42.0868 40.4391C42.0701 40.3577 42.0754 40.2734 42.102 40.1948C42.1287 40.1162 42.1759 40.0461 42.2387 39.9917C42.3015 39.9374 42.3776 39.9008 42.4592 39.8856L44.0497 39.6013C44.1656 39.5804 44.2694 39.5164 44.3402 39.4223C44.411 39.3281 44.4437 39.2106 44.4316 39.0934L44.0517 34.9091C44.0448 34.8327 44.0206 34.759 43.9808 34.6935C43.941 34.628 43.8867 34.5725 43.8222 34.5313C42.2846 33.5564 40.6285 32.7823 38.8944 32.2278C38.8593 32.2776 38.8319 32.3324 38.8131 32.3903L33.7878 44.0761Z" fill="url(#paint20_linear_106_2309)"/>
<path d="M33.7878 44.0761C33.2556 45.1222 33.2556 45.9875 33.2556 46.7269V52.8044C33.2556 53.1497 33.6781 53.3325 33.9198 53.0684L43.7064 42.9934C43.8892 42.8106 43.8892 42.5263 43.7267 42.3434L42.1972 40.6575C42.1416 40.5958 42.1035 40.5204 42.0868 40.4391C42.0701 40.3577 42.0754 40.2734 42.102 40.1948C42.1287 40.1162 42.1759 40.0461 42.2387 39.9917C42.3015 39.9374 42.3776 39.9008 42.4592 39.8856L44.0497 39.6013C44.1656 39.5804 44.2694 39.5164 44.3402 39.4223C44.411 39.3281 44.4437 39.2106 44.4316 39.0934L44.0517 34.9091C44.0448 34.8327 44.0206 34.759 43.9808 34.6935C43.941 34.628 43.8867 34.5725 43.8222 34.5313C42.2846 33.5564 40.6285 32.7823 38.8944 32.2278C38.8593 32.2776 38.8319 32.3324 38.8131 32.3903L33.7878 44.0761Z" fill="url(#paint21_linear_106_2309)"/>
<path d="M33.7878 44.0761C33.2556 45.1222 33.2556 45.9875 33.2556 46.7269V52.8044C33.2556 53.1497 33.6781 53.3325 33.9198 53.0684L43.7064 42.9934C43.8892 42.8106 43.8892 42.5263 43.7267 42.3434L42.1972 40.6575C42.1416 40.5958 42.1035 40.5204 42.0868 40.4391C42.0701 40.3577 42.0754 40.2734 42.102 40.1948C42.1287 40.1162 42.1759 40.0461 42.2387 39.9917C42.3015 39.9374 42.3776 39.9008 42.4592 39.8856L44.0497 39.6013C44.1656 39.5804 44.2694 39.5164 44.3402 39.4223C44.411 39.3281 44.4437 39.2106 44.4316 39.0934L44.0517 34.9091C44.0448 34.8327 44.0206 34.759 43.9808 34.6935C43.941 34.628 43.8867 34.5725 43.8222 34.5313C42.2846 33.5564 40.6285 32.7823 38.8944 32.2278C38.8593 32.2776 38.8319 32.3324 38.8131 32.3903L33.7878 44.0761Z" fill="url(#paint22_linear_106_2309)"/>
<path d="M33.7878 44.0761C33.2556 45.1222 33.2556 45.9875 33.2556 46.7269V52.8044C33.2556 53.1497 33.6781 53.3325 33.9198 53.0684L43.7064 42.9934C43.8892 42.8106 43.8892 42.5263 43.7267 42.3434L42.1972 40.6575C42.1416 40.5958 42.1035 40.5204 42.0868 40.4391C42.0701 40.3577 42.0754 40.2734 42.102 40.1948C42.1287 40.1162 42.1759 40.0461 42.2387 39.9917C42.3015 39.9374 42.3776 39.9008 42.4592 39.8856L44.0497 39.6013C44.1656 39.5804 44.2694 39.5164 44.3402 39.4223C44.411 39.3281 44.4437 39.2106 44.4316 39.0934L44.0517 34.9091C44.0448 34.8327 44.0206 34.759 43.9808 34.6935C43.941 34.628 43.8867 34.5725 43.8222 34.5313C42.2846 33.5564 40.6285 32.7823 38.8944 32.2278C38.8593 32.2776 38.8319 32.3324 38.8131 32.3903L33.7878 44.0761Z" fill="url(#paint23_radial_106_2309)"/>
<path d="M33.7878 44.0761C33.2556 45.1222 33.2556 45.9875 33.2556 46.7269V52.8044C33.2556 53.1497 33.6781 53.3325 33.9198 53.0684L43.7064 42.9934C43.8892 42.8106 43.8892 42.5263 43.7267 42.3434L42.1972 40.6575C42.1416 40.5958 42.1035 40.5204 42.0868 40.4391C42.0701 40.3577 42.0754 40.2734 42.102 40.1948C42.1287 40.1162 42.1759 40.0461 42.2387 39.9917C42.3015 39.9374 42.3776 39.9008 42.4592 39.8856L44.0497 39.6013C44.1656 39.5804 44.2694 39.5164 44.3402 39.4223C44.411 39.3281 44.4437 39.2106 44.4316 39.0934L44.0517 34.9091C44.0448 34.8327 44.0206 34.759 43.9808 34.6935C43.941 34.628 43.8867 34.5725 43.8222 34.5313C42.2846 33.5564 40.6285 32.7823 38.8944 32.2278C38.8593 32.2776 38.8319 32.3324 38.8131 32.3903L33.7878 44.0761Z" fill="url(#paint24_radial_106_2309)"/>
<path d="M33.7878 44.0761C33.2556 45.1222 33.2556 45.9875 33.2556 46.7269V52.8044C33.2556 53.1497 33.6781 53.3325 33.9198 53.0684L43.7064 42.9934C43.8892 42.8106 43.8892 42.5263 43.7267 42.3434L42.1972 40.6575C42.1416 40.5958 42.1035 40.5204 42.0868 40.4391C42.0701 40.3577 42.0754 40.2734 42.102 40.1948C42.1287 40.1162 42.1759 40.0461 42.2387 39.9917C42.3015 39.9374 42.3776 39.9008 42.4592 39.8856L44.0497 39.6013C44.1656 39.5804 44.2694 39.5164 44.3402 39.4223C44.411 39.3281 44.4437 39.2106 44.4316 39.0934L44.0517 34.9091C44.0448 34.8327 44.0206 34.759 43.9808 34.6935C43.941 34.628 43.8867 34.5725 43.8222 34.5313C42.2846 33.5564 40.6285 32.7823 38.8944 32.2278C38.8593 32.2776 38.8319 32.3324 38.8131 32.3903L33.7878 44.0761Z" fill="url(#paint25_radial_106_2309)"/>
<path d="M31.1898 44.0761C31.722 45.1222 31.722 45.9875 31.722 46.7269V52.8044C31.722 53.1497 31.2995 53.3325 31.0578 53.0684L21.2712 42.9934C21.1859 42.908 21.1363 42.7932 21.1325 42.6725C21.1287 42.5517 21.1711 42.4341 21.2509 42.3434L22.7825 40.6575C23.0242 40.3934 22.884 39.9466 22.5205 39.8856L20.93 39.6013C20.8137 39.5808 20.7094 39.5171 20.6382 39.4229C20.5669 39.3286 20.534 39.2109 20.5461 39.0934L20.928 34.9091C20.9348 34.8327 20.9591 34.759 20.9989 34.6935C21.0387 34.628 21.0929 34.5725 21.1575 34.5313C22.6951 33.5563 24.3511 32.7822 26.0853 32.2278C26.1204 32.2776 26.1477 32.3324 26.1665 32.3903L31.1898 44.0761Z" fill="url(#paint26_radial_106_2309)"/>
<path d="M31.1898 44.0761C31.722 45.1222 31.722 45.9875 31.722 46.7269V52.8044C31.722 53.1497 31.2995 53.3325 31.0578 53.0684L21.2712 42.9934C21.1859 42.908 21.1363 42.7932 21.1325 42.6725C21.1287 42.5517 21.1711 42.4341 21.2509 42.3434L22.7825 40.6575C23.0242 40.3934 22.884 39.9466 22.5205 39.8856L20.93 39.6013C20.8137 39.5808 20.7094 39.5171 20.6382 39.4229C20.5669 39.3286 20.534 39.2109 20.5461 39.0934L20.928 34.9091C20.9348 34.8327 20.9591 34.759 20.9989 34.6935C21.0387 34.628 21.0929 34.5725 21.1575 34.5313C22.6951 33.5563 24.3511 32.7822 26.0853 32.2278C26.1204 32.2776 26.1477 32.3324 26.1665 32.3903L31.1898 44.0761Z" fill="url(#paint27_radial_106_2309)"/>
<path d="M31.1898 44.0761C31.722 45.1222 31.722 45.9875 31.722 46.7269V52.8044C31.722 53.1497 31.2995 53.3325 31.0578 53.0684L21.2712 42.9934C21.1859 42.908 21.1363 42.7932 21.1325 42.6725C21.1287 42.5517 21.1711 42.4341 21.2509 42.3434L22.7825 40.6575C23.0242 40.3934 22.884 39.9466 22.5205 39.8856L20.93 39.6013C20.8137 39.5808 20.7094 39.5171 20.6382 39.4229C20.5669 39.3286 20.534 39.2109 20.5461 39.0934L20.928 34.9091C20.9348 34.8327 20.9591 34.759 20.9989 34.6935C21.0387 34.628 21.0929 34.5725 21.1575 34.5313C22.6951 33.5563 24.3511 32.7822 26.0853 32.2278C26.1204 32.2776 26.1477 32.3324 26.1665 32.3903L31.1898 44.0761Z" fill="url(#paint28_linear_106_2309)"/>
<path d="M31.1898 44.0761C31.722 45.1222 31.722 45.9875 31.722 46.7269V52.8044C31.722 53.1497 31.2995 53.3325 31.0578 53.0684L21.2712 42.9934C21.1859 42.908 21.1363 42.7932 21.1325 42.6725C21.1287 42.5517 21.1711 42.4341 21.2509 42.3434L22.7825 40.6575C23.0242 40.3934 22.884 39.9466 22.5205 39.8856L20.93 39.6013C20.8137 39.5808 20.7094 39.5171 20.6382 39.4229C20.5669 39.3286 20.534 39.2109 20.5461 39.0934L20.928 34.9091C20.9348 34.8327 20.9591 34.759 20.9989 34.6935C21.0387 34.628 21.0929 34.5725 21.1575 34.5313C22.6951 33.5563 24.3511 32.7822 26.0853 32.2278C26.1204 32.2776 26.1477 32.3324 26.1665 32.3903L31.1898 44.0761Z" fill="url(#paint29_radial_106_2309)"/>
<path d="M31.1898 44.0761C31.722 45.1222 31.722 45.9875 31.722 46.7269V52.8044C31.722 53.1497 31.2995 53.3325 31.0578 53.0684L21.2712 42.9934C21.1859 42.908 21.1363 42.7932 21.1325 42.6725C21.1287 42.5517 21.1711 42.4341 21.2509 42.3434L22.7825 40.6575C23.0242 40.3934 22.884 39.9466 22.5205 39.8856L20.93 39.6013C20.8137 39.5808 20.7094 39.5171 20.6382 39.4229C20.5669 39.3286 20.534 39.2109 20.5461 39.0934L20.928 34.9091C20.9348 34.8327 20.9591 34.759 20.9989 34.6935C21.0387 34.628 21.0929 34.5725 21.1575 34.5313C22.6951 33.5563 24.3511 32.7822 26.0853 32.2278C26.1204 32.2776 26.1477 32.3324 26.1665 32.3903L31.1898 44.0761Z" fill="url(#paint30_radial_106_2309)"/>
<path d="M31.1898 44.0761C31.722 45.1222 31.722 45.9875 31.722 46.7269V52.8044C31.722 53.1497 31.2995 53.3325 31.0578 53.0684L21.2712 42.9934C21.1859 42.908 21.1363 42.7932 21.1325 42.6725C21.1287 42.5517 21.1711 42.4341 21.2509 42.3434L22.7825 40.6575C23.0242 40.3934 22.884 39.9466 22.5205 39.8856L20.93 39.6013C20.8137 39.5808 20.7094 39.5171 20.6382 39.4229C20.5669 39.3286 20.534 39.2109 20.5461 39.0934L20.928 34.9091C20.9348 34.8327 20.9591 34.759 20.9989 34.6935C21.0387 34.628 21.0929 34.5725 21.1575 34.5313C22.6951 33.5563 24.3511 32.7822 26.0853 32.2278C26.1204 32.2776 26.1477 32.3324 26.1665 32.3903L31.1898 44.0761Z" fill="url(#paint31_radial_106_2309)"/>
<path d="M32.439 38.0412C31.8789 38.0412 31.3242 37.9309 30.8066 37.7165C30.2891 37.5022 29.8189 37.188 29.4228 36.7919C29.0267 36.3958 28.7125 35.9255 28.4981 35.408C28.2837 34.8905 28.1734 34.3358 28.1734 33.7756V30.9725H36.7047V33.7756C36.7047 34.3358 36.5943 34.8905 36.3799 35.408C36.1656 35.9255 35.8514 36.3958 35.4553 36.7919C35.0592 37.188 34.5889 37.5022 34.0714 37.7165C33.5539 37.9309 32.9992 38.0412 32.439 38.0412Z" fill="url(#paint32_radial_106_2309)"/>
<path fill-rule="evenodd" clip-rule="evenodd" d="M32.3375 30.7287C31.4732 30.7287 30.6174 30.899 29.819 31.2297C29.0205 31.5605 28.295 32.0452 27.6839 32.6564C27.0727 33.2675 26.588 33.993 26.2572 34.7915C25.9265 35.5899 25.7563 36.4457 25.7563 37.31V41.6772H23.7656V37.31C23.7656 35.0366 24.6687 32.8563 26.2763 31.2488C27.8838 29.6412 30.0641 28.7381 32.3375 28.7381C34.6109 28.7381 36.7912 29.6412 38.3987 31.2488C40.0063 32.8563 40.9094 35.0366 40.9094 37.31V51.7725H38.9188V37.31C38.9188 35.5645 38.2254 33.8906 36.9911 32.6564C35.7569 31.4221 34.083 30.7287 32.3375 30.7287Z" fill="#534675"/>
<path fill-rule="evenodd" clip-rule="evenodd" d="M32.3375 30.7287C31.4732 30.7287 30.6174 30.899 29.819 31.2297C29.0205 31.5605 28.295 32.0452 27.6839 32.6564C27.0727 33.2675 26.588 33.993 26.2572 34.7915C25.9265 35.5899 25.7563 36.4457 25.7563 37.31V41.6772H23.7656V37.31C23.7656 35.0366 24.6687 32.8563 26.2763 31.2488C27.8838 29.6412 30.0641 28.7381 32.3375 28.7381C34.6109 28.7381 36.7912 29.6412 38.3987 31.2488C40.0063 32.8563 40.9094 35.0366 40.9094 37.31V51.7725H38.9188V37.31C38.9188 35.5645 38.2254 33.8906 36.9911 32.6564C35.7569 31.4221 34.083 30.7287 32.3375 30.7287Z" fill="url(#paint33_linear_106_2309)"/>
<path fill-rule="evenodd" clip-rule="evenodd" d="M32.3375 30.7287C31.4732 30.7287 30.6174 30.899 29.819 31.2297C29.0205 31.5605 28.295 32.0452 27.6839 32.6564C27.0727 33.2675 26.588 33.993 26.2572 34.7915C25.9265 35.5899 25.7563 36.4457 25.7563 37.31V41.6772H23.7656V37.31C23.7656 35.0366 24.6687 32.8563 26.2763 31.2488C27.8838 29.6412 30.0641 28.7381 32.3375 28.7381C34.6109 28.7381 36.7912 29.6412 38.3987 31.2488C40.0063 32.8563 40.9094 35.0366 40.9094 37.31V51.7725H38.9188V37.31C38.9188 35.5645 38.2254 33.8906 36.9911 32.6564C35.7569 31.4221 34.083 30.7287 32.3375 30.7287Z" fill="url(#paint34_radial_106_2309)"/>
<path fill-rule="evenodd" clip-rule="evenodd" d="M32.3375 30.7287C31.4732 30.7287 30.6174 30.899 29.819 31.2297C29.0205 31.5605 28.295 32.0452 27.6839 32.6564C27.0727 33.2675 26.588 33.993 26.2572 34.7915C25.9265 35.5899 25.7563 36.4457 25.7563 37.31V41.6772H23.7656V37.31C23.7656 35.0366 24.6687 32.8563 26.2763 31.2488C27.8838 29.6412 30.0641 28.7381 32.3375 28.7381C34.6109 28.7381 36.7912 29.6412 38.3987 31.2488C40.0063 32.8563 40.9094 35.0366 40.9094 37.31V51.7725H38.9188V37.31C38.9188 35.5645 38.2254 33.8906 36.9911 32.6564C35.7569 31.4221 34.083 30.7287 32.3375 30.7287Z" fill="url(#paint35_radial_106_2309)"/>
<path fill-rule="evenodd" clip-rule="evenodd" d="M32.3375 30.7287C31.4732 30.7287 30.6174 30.899 29.819 31.2297C29.0205 31.5605 28.295 32.0452 27.6839 32.6564C27.0727 33.2675 26.588 33.993 26.2572 34.7915C25.9265 35.5899 25.7563 36.4457 25.7563 37.31V41.6772H23.7656V37.31C23.7656 35.0366 24.6687 32.8563 26.2763 31.2488C27.8838 29.6412 30.0641 28.7381 32.3375 28.7381C34.6109 28.7381 36.7912 29.6412 38.3987 31.2488C40.0063 32.8563 40.9094 35.0366 40.9094 37.31V51.7725H38.9188V37.31C38.9188 35.5645 38.2254 33.8906 36.9911 32.6564C35.7569 31.4221 34.083 30.7287 32.3375 30.7287Z" fill="url(#paint36_radial_106_2309)"/>
<g filter="url(#filter2_f_106_2309)">
<path d="M38.2484 54.7747C38.5496 54.7875 38.8503 54.7393 39.1323 54.6329C39.4143 54.5265 39.6719 54.3642 39.8896 54.1556C40.1072 53.9471 40.2804 53.6966 40.3988 53.4194C40.5171 53.1421 40.5781 52.8438 40.5781 52.5423C40.5781 52.2409 40.5171 51.9426 40.3988 51.6653C40.2804 51.3881 40.1072 51.1376 39.8896 50.9291C39.6719 50.7205 39.4143 50.5582 39.1323 50.4518C38.8503 50.3454 38.5496 50.2972 38.2484 50.31C37.6729 50.3346 37.129 50.5805 36.7304 50.9964C36.3318 51.4124 36.1093 51.9662 36.1093 52.5423C36.1093 53.1185 36.3318 53.6723 36.7304 54.0882C37.129 54.5042 37.6729 54.7501 38.2484 54.7747Z" fill="#AFA3C5"/>
</g>
<path d="M39.9344 54.3116C40.6132 54.3116 41.2642 54.0419 41.7441 53.5619C42.2241 53.082 42.4938 52.431 42.4938 51.7522C42.4938 51.0734 42.2241 50.4224 41.7441 49.9424C41.2642 49.4625 40.6132 49.1928 39.9344 49.1928C39.2556 49.1928 38.6046 49.4625 38.1246 49.9424C37.6446 50.4224 37.375 51.0734 37.375 51.7522C37.375 52.431 37.6446 53.082 38.1246 53.5619C38.6046 54.0419 39.2556 54.3116 39.9344 54.3116Z" fill="url(#paint37_radial_106_2309)"/>
<g filter="url(#filter3_i_106_2309)">
<path d="M39.9344 53.1944C40.3169 53.1944 40.6837 53.0424 40.9542 52.772C41.2246 52.5015 41.3766 52.1347 41.3766 51.7522C41.3766 51.3697 41.2246 51.0029 40.9542 50.7324C40.6837 50.4619 40.3169 50.31 39.9344 50.31C39.5519 50.31 39.1851 50.4619 38.9146 50.7324C38.6441 51.0029 38.4922 51.3697 38.4922 51.7522C38.4922 52.1347 38.6441 52.5015 38.9146 52.772C39.1851 53.0424 39.5519 53.1944 39.9344 53.1944Z" fill="url(#paint38_radial_106_2309)"/>
</g>
<g filter="url(#filter4_i_106_2309)">
<path fill-rule="evenodd" clip-rule="evenodd" d="M24.7609 42.3881C22.8516 42.3881 21.2875 43.9359 21.2875 45.8616V52.5647H22.6484C22.9124 52.5647 23.1656 52.6695 23.3522 52.8562C23.5389 53.0429 23.6438 53.296 23.6438 53.56C23.6438 53.824 23.5389 54.0771 23.3522 54.2638C23.1656 54.4504 22.9124 54.5553 22.6484 54.5553H20.6172C20.4437 54.5558 20.2717 54.5221 20.1113 54.4559C19.9509 54.3897 19.8051 54.2925 19.6824 54.1698C19.5597 54.0471 19.4625 53.9013 19.3963 53.7409C19.3301 53.5805 19.2963 53.4085 19.2969 53.235V45.8616C19.2969 44.4124 19.8726 43.0226 20.8973 41.9979C21.922 40.9732 23.3118 40.3975 24.7609 40.3975C26.2101 40.3975 27.5999 40.9732 28.6246 41.9979C29.6493 43.0226 30.225 44.4124 30.225 45.8616V53.235C30.225 53.9662 29.6359 54.5553 28.9047 54.5553H27.0156C26.7517 54.5553 26.4985 54.4504 26.3118 54.2638C26.1252 54.0771 26.0203 53.824 26.0203 53.56C26.0203 53.296 26.1252 53.0429 26.3118 52.8562C26.4985 52.6695 26.7517 52.5647 27.0156 52.5647H28.2344V45.8616C28.2344 43.9522 26.6866 42.3881 24.7609 42.3881Z" fill="url(#paint39_linear_106_2309)"/>
</g>
<g filter="url(#filter5_f_106_2309)">
<path d="M22.6992 53.4239H20.668C20.4851 53.4239 20.343 53.2817 20.343 53.0989V45.7255C20.343 44.5403 20.8138 43.4036 21.6518 42.5656C22.4899 41.7275 23.6265 41.2567 24.8117 41.2567C25.9969 41.2567 27.1335 41.7275 27.9716 42.5656C28.8096 43.4036 29.2805 44.5403 29.2805 45.7255V53.0989C29.2805 53.2817 29.1383 53.4239 28.9555 53.4239H27.0664" stroke="#6A5D85" stroke-width="0.3" stroke-miterlimit="10" stroke-linecap="round" stroke-linejoin="round"/>
</g>
<path fill-rule="evenodd" clip-rule="evenodd" d="M19.2969 53.2147V48.1975H21.2875V52.5423H21.7953V54.535H20.6172C20.4437 54.5355 20.2717 54.5018 20.1113 54.4356C19.9509 54.3694 19.8051 54.2722 19.6824 54.1495C19.5597 54.0268 19.4625 53.881 19.3963 53.7206C19.3301 53.5602 19.2963 53.3882 19.2969 53.2147Z" fill="url(#paint40_linear_106_2309)"/>
<path fill-rule="evenodd" clip-rule="evenodd" d="M19.2969 53.2147V48.1975H21.2875V52.5423H21.7953V54.535H20.6172C20.4437 54.5355 20.2717 54.5018 20.1113 54.4356C19.9509 54.3694 19.8051 54.2722 19.6824 54.1495C19.5597 54.0268 19.4625 53.881 19.3963 53.7206C19.3301 53.5602 19.2963 53.3882 19.2969 53.2147Z" fill="url(#paint41_radial_106_2309)"/>
<path fill-rule="evenodd" clip-rule="evenodd" d="M30.225 48.2178V53.235C30.225 53.9663 29.6359 54.5553 28.9047 54.5553H27.7266V52.5647H28.2344V48.2178H30.225Z" fill="url(#paint42_linear_106_2309)"/>
<path fill-rule="evenodd" clip-rule="evenodd" d="M30.225 48.2178V53.235C30.225 53.9663 29.6359 54.5553 28.9047 54.5553H27.7266V52.5647H28.2344V48.2178H30.225Z" fill="url(#paint43_linear_106_2309)"/>
<path d="M42.3435 24.7955C43.0239 24.7731 43.6638 24.5416 44.1817 24.1658V26.0589C44.1817 27.8728 43.1011 29.4897 41.4578 30.16C41.8031 29.4227 42.0408 28.6203 42.1606 27.7631L42.3435 24.7955Z" fill="url(#paint44_radial_106_2309)"/>
<path d="M22.5956 24.7955C21.9339 24.7729 21.2939 24.5537 20.7573 24.1658V26.0589C20.7573 27.8728 21.8379 29.4897 23.4792 30.16C23.1261 29.4009 22.8899 28.5928 22.7784 27.7631L22.5956 24.7955Z" fill="url(#paint45_radial_106_2309)"/>
<g filter="url(#filter6_ii_106_2309)">
<path d="M22.6687 27.8728C22.9203 29.7877 23.8599 31.5457 25.3124 32.8188C26.7648 34.0918 28.6308 34.7929 30.5622 34.7912H34.3931C36.3245 34.7929 38.1905 34.0918 39.6429 32.8188C41.0954 31.5457 42.035 29.7877 42.2866 27.8728C42.5262 24.0459 42.768 20.2353 42.9447 16.4105C42.9363 15.66 42.6417 14.9411 42.1211 14.4005C41.6005 13.8599 40.8932 13.5384 40.1436 13.5017H37.2998C35.36 13.5017 33.603 12.3581 32.8067 10.5706C32.707 10.3206 32.5347 10.1061 32.3121 9.95482C32.0895 9.80351 31.8267 9.72227 31.5575 9.72156H28.9717C25.222 9.72156 22.1853 12.7948 22.1853 16.5872C22.1853 20.3653 22.4209 24.0825 22.6687 27.8728Z" fill="url(#paint46_radial_106_2309)"/>
<path d="M22.6687 27.8728C22.9203 29.7877 23.8599 31.5457 25.3124 32.8188C26.7648 34.0918 28.6308 34.7929 30.5622 34.7912H34.3931C36.3245 34.7929 38.1905 34.0918 39.6429 32.8188C41.0954 31.5457 42.035 29.7877 42.2866 27.8728C42.5262 24.0459 42.768 20.2353 42.9447 16.4105C42.9363 15.66 42.6417 14.9411 42.1211 14.4005C41.6005 13.8599 40.8932 13.5384 40.1436 13.5017H37.2998C35.36 13.5017 33.603 12.3581 32.8067 10.5706C32.707 10.3206 32.5347 10.1061 32.3121 9.95482C32.0895 9.80351 31.8267 9.72227 31.5575 9.72156H28.9717C25.222 9.72156 22.1853 12.7948 22.1853 16.5872C22.1853 20.3653 22.4209 24.0825 22.6687 27.8728Z" fill="url(#paint47_radial_106_2309)"/>
</g>
<path d="M22.6687 27.8728C22.9203 29.7877 23.8599 31.5457 25.3124 32.8188C26.7648 34.0918 28.6308 34.7929 30.5622 34.7912H34.3931C36.3245 34.7929 38.1905 34.0918 39.6429 32.8188C41.0954 31.5457 42.035 29.7877 42.2866 27.8728C42.5262 24.0459 42.768 20.2353 42.9447 16.4105C42.9363 15.66 42.6417 14.9411 42.1211 14.4005C41.6005 13.8599 40.8932 13.5384 40.1436 13.5017H37.2998C35.36 13.5017 33.603 12.3581 32.8067 10.5706C32.707 10.3206 32.5347 10.1061 32.3121 9.95482C32.0895 9.80351 31.8267 9.72227 31.5575 9.72156H28.9717C25.222 9.72156 22.1853 12.7948 22.1853 16.5872C22.1853 20.3653 22.4209 24.0825 22.6687 27.8728Z" fill="url(#paint48_linear_106_2309)"/>
<path d="M22.6687 27.8728C22.9203 29.7877 23.8599 31.5457 25.3124 32.8188C26.7648 34.0918 28.6308 34.7929 30.5622 34.7912H34.3931C36.3245 34.7929 38.1905 34.0918 39.6429 32.8188C41.0954 31.5457 42.035 29.7877 42.2866 27.8728C42.5262 24.0459 42.768 20.2353 42.9447 16.4105C42.9363 15.66 42.6417 14.9411 42.1211 14.4005C41.6005 13.8599 40.8932 13.5384 40.1436 13.5017H37.2998C35.36 13.5017 33.603 12.3581 32.8067 10.5706C32.707 10.3206 32.5347 10.1061 32.3121 9.95482C32.0895 9.80351 31.8267 9.72227 31.5575 9.72156H28.9717C25.222 9.72156 22.1853 12.7948 22.1853 16.5872C22.1853 20.3653 22.4209 24.0825 22.6687 27.8728Z" fill="url(#paint49_radial_106_2309)"/>
<path d="M22.6687 27.8728C22.9203 29.7877 23.8599 31.5457 25.3124 32.8188C26.7648 34.0918 28.6308 34.7929 30.5622 34.7912H34.3931C36.3245 34.7929 38.1905 34.0918 39.6429 32.8188C41.0954 31.5457 42.035 29.7877 42.2866 27.8728C42.5262 24.0459 42.768 20.2353 42.9447 16.4105C42.9363 15.66 42.6417 14.9411 42.1211 14.4005C41.6005 13.8599 40.8932 13.5384 40.1436 13.5017H37.2998C35.36 13.5017 33.603 12.3581 32.8067 10.5706C32.707 10.3206 32.5347 10.1061 32.3121 9.95482C32.0895 9.80351 31.8267 9.72227 31.5575 9.72156H28.9717C25.222 9.72156 22.1853 12.7948 22.1853 16.5872C22.1853 20.3653 22.4209 24.0825 22.6687 27.8728Z" fill="url(#paint50_radial_106_2309)"/>
<path d="M22.6687 27.8728C22.9203 29.7877 23.8599 31.5457 25.3124 32.8188C26.7648 34.0918 28.6308 34.7929 30.5622 34.7912H34.3931C36.3245 34.7929 38.1905 34.0918 39.6429 32.8188C41.0954 31.5457 42.035 29.7877 42.2866 27.8728C42.5262 24.0459 42.768 20.2353 42.9447 16.4105C42.9363 15.66 42.6417 14.9411 42.1211 14.4005C41.6005 13.8599 40.8932 13.5384 40.1436 13.5017H37.2998C35.36 13.5017 33.603 12.3581 32.8067 10.5706C32.707 10.3206 32.5347 10.1061 32.3121 9.95482C32.0895 9.80351 31.8267 9.72227 31.5575 9.72156H28.9717C25.222 9.72156 22.1853 12.7948 22.1853 16.5872C22.1853 20.3653 22.4209 24.0825 22.6687 27.8728Z" fill="url(#paint51_radial_106_2309)"/>
<path d="M22.6687 27.8728C22.9203 29.7877 23.8599 31.5457 25.3124 32.8188C26.7648 34.0918 28.6308 34.7929 30.5622 34.7912H34.3931C36.3245 34.7929 38.1905 34.0918 39.6429 32.8188C41.0954 31.5457 42.035 29.7877 42.2866 27.8728C42.5262 24.0459 42.768 20.2353 42.9447 16.4105C42.9363 15.66 42.6417 14.9411 42.1211 14.4005C41.6005 13.8599 40.8932 13.5384 40.1436 13.5017H37.2998C35.36 13.5017 33.603 12.3581 32.8067 10.5706C32.707 10.3206 32.5347 10.1061 32.3121 9.95482C32.0895 9.80351 31.8267 9.72227 31.5575 9.72156H28.9717C25.222 9.72156 22.1853 12.7948 22.1853 16.5872C22.1853 20.3653 22.4209 24.0825 22.6687 27.8728Z" fill="url(#paint52_radial_106_2309)"/>
<path d="M22.6687 27.8728C22.9203 29.7877 23.8599 31.5457 25.3124 32.8188C26.7648 34.0918 28.6308 34.7929 30.5622 34.7912H34.3931C36.3245 34.7929 38.1905 34.0918 39.6429 32.8188C41.0954 31.5457 42.035 29.7877 42.2866 27.8728C42.5262 24.0459 42.768 20.2353 42.9447 16.4105C42.9363 15.66 42.6417 14.9411 42.1211 14.4005C41.6005 13.8599 40.8932 13.5384 40.1436 13.5017H37.2998C35.36 13.5017 33.603 12.3581 32.8067 10.5706C32.707 10.3206 32.5347 10.1061 32.3121 9.95482C32.0895 9.80351 31.8267 9.72227 31.5575 9.72156H28.9717C25.222 9.72156 22.1853 12.7948 22.1853 16.5872C22.1853 20.3653 22.4209 24.0825 22.6687 27.8728Z" fill="url(#paint53_radial_106_2309)"/>
<path d="M22.6687 27.8728C22.9203 29.7877 23.8599 31.5457 25.3124 32.8188C26.7648 34.0918 28.6308 34.7929 30.5622 34.7912H34.3931C36.3245 34.7929 38.1905 34.0918 39.6429 32.8188C41.0954 31.5457 42.035 29.7877 42.2866 27.8728C42.5262 24.0459 42.768 20.2353 42.9447 16.4105C42.9363 15.66 42.6417 14.9411 42.1211 14.4005C41.6005 13.8599 40.8932 13.5384 40.1436 13.5017H37.2998C35.36 13.5017 33.603 12.3581 32.8067 10.5706C32.707 10.3206 32.5347 10.1061 32.3121 9.95482C32.0895 9.80351 31.8267 9.72227 31.5575 9.72156H28.9717C25.222 9.72156 22.1853 12.7948 22.1853 16.5872C22.1853 20.3653 22.4209 24.0825 22.6687 27.8728Z" fill="url(#paint54_radial_106_2309)"/>
<path d="M22.6687 27.8728C22.9203 29.7877 23.8599 31.5457 25.3124 32.8188C26.7648 34.0918 28.6308 34.7929 30.5622 34.7912H34.3931C36.3245 34.7929 38.1905 34.0918 39.6429 32.8188C41.0954 31.5457 42.035 29.7877 42.2866 27.8728C42.5262 24.0459 42.768 20.2353 42.9447 16.4105C42.9363 15.66 42.6417 14.9411 42.1211 14.4005C41.6005 13.8599 40.8932 13.5384 40.1436 13.5017H37.2998C35.36 13.5017 33.603 12.3581 32.8067 10.5706C32.707 10.3206 32.5347 10.1061 32.3121 9.95482C32.0895 9.80351 31.8267 9.72227 31.5575 9.72156H28.9717C25.222 9.72156 22.1853 12.7948 22.1853 16.5872C22.1853 20.3653 22.4209 24.0825 22.6687 27.8728Z" fill="url(#paint55_radial_106_2309)"/>
<g filter="url(#filter7_f_106_2309)">
<path d="M31.655 21.2022L30.4545 24.9356C30.2494 25.7034 30.741 26.4712 31.4377 26.4712H32.9245C33.6213 26.4712 34.1128 25.6912 33.9077 24.9356L32.9042 21.2022C32.6889 20.3734 31.8805 20.3734 31.655 21.2022Z" fill="#6F3F46"/>
</g>
<g filter="url(#filter8_f_106_2309)">
<path d="M31.6936 20.8041L30.613 24.5375C30.3936 25.3053 30.9217 26.0752 31.6692 26.0752H33.2678C34.0173 26.0752 34.5475 25.2952 34.3241 24.5375L33.2475 20.8041C33.0139 19.9773 31.9353 19.9773 31.6936 20.8041Z" fill="#A3776D"/>
<path d="M31.6936 20.8041L30.613 24.5375C30.3936 25.3053 30.9217 26.0752 31.6692 26.0752H33.2678C34.0173 26.0752 34.5475 25.2952 34.3241 24.5375L33.2475 20.8041C33.0139 19.9773 31.9353 19.9773 31.6936 20.8041Z" fill="url(#paint56_linear_106_2309)"/>
<path d="M31.6936 20.8041L30.613 24.5375C30.3936 25.3053 30.9217 26.0752 31.6692 26.0752H33.2678C34.0173 26.0752 34.5475 25.2952 34.3241 24.5375L33.2475 20.8041C33.0139 19.9773 31.9353 19.9773 31.6936 20.8041Z" fill="url(#paint57_radial_106_2309)"/>
<path d="M31.6936 20.8041L30.613 24.5375C30.3936 25.3053 30.9217 26.0752 31.6692 26.0752H33.2678C34.0173 26.0752 34.5475 25.2952 34.3241 24.5375L33.2475 20.8041C33.0139 19.9773 31.9353 19.9773 31.6936 20.8041Z" fill="url(#paint58_linear_106_2309)"/>
<path d="M31.6936 20.8041L30.613 24.5375C30.3936 25.3053 30.9217 26.0752 31.6692 26.0752H33.2678C34.0173 26.0752 34.5475 25.2952 34.3241 24.5375L33.2475 20.8041C33.0139 19.9773 31.9353 19.9773 31.6936 20.8041Z" fill="url(#paint59_radial_106_2309)"/>
<path d="M31.6936 20.8041L30.613 24.5375C30.3936 25.3053 30.9217 26.0752 31.6692 26.0752H33.2678C34.0173 26.0752 34.5475 25.2952 34.3241 24.5375L33.2475 20.8041C33.0139 19.9773 31.9353 19.9773 31.6936 20.8041Z" fill="url(#paint60_linear_106_2309)"/>
</g>
<path d="M31.6936 20.8041L30.613 24.5375C30.3936 25.3053 30.9217 26.0752 31.6692 26.0752H33.2678C34.0173 26.0752 34.5475 25.2952 34.3241 24.5375L33.2475 20.8041C33.0139 19.9773 31.9353 19.9773 31.6936 20.8041Z" fill="url(#paint61_linear_106_2309)"/>
<path d="M31.6936 20.8041L30.613 24.5375C30.3936 25.3053 30.9217 26.0752 31.6692 26.0752H33.2678C34.0173 26.0752 34.5475 25.2952 34.3241 24.5375L33.2475 20.8041C33.0139 19.9773 31.9353 19.9773 31.6936 20.8041Z" fill="url(#paint62_radial_106_2309)"/>
<g filter="url(#filter9_f_106_2309)">
<path d="M29.7253 27.3386C29.6356 27.2917 29.5331 27.2754 29.4333 27.2923C29.3335 27.3091 29.242 27.3582 29.1728 27.432C29.1017 27.5037 29.0581 27.5982 29.0495 27.6988C29.041 27.7994 29.0681 27.8998 29.1261 27.9825C29.835 29.055 31.0659 29.768 32.4695 29.768C33.1311 29.7697 33.7829 29.6073 34.3663 29.2953C34.9498 28.9834 35.4469 28.5316 35.8129 27.9805C35.8704 27.8971 35.897 27.7963 35.8881 27.6954C35.8792 27.5946 35.8354 27.5 35.7642 27.428C35.695 27.3554 35.6041 27.3073 35.5052 27.2908C35.4063 27.2743 35.3047 27.2904 35.2157 27.3366C34.4236 27.7509 33.4872 27.9866 32.4695 27.9866C31.5166 27.9926 30.5762 27.7696 29.7273 27.3366L29.7253 27.3386Z" stroke="url(#paint63_linear_106_2309)" stroke-width="0.15"/>
</g>
<path d="M32.4695 28.1409C31.4376 28.1409 30.4687 27.8972 29.6562 27.4727C29.378 27.3305 29.0773 27.6453 29.254 27.8992C29.9345 28.9291 31.1187 29.6156 32.4695 29.6156C33.8203 29.6156 35.0045 28.9291 35.685 27.8972C35.8617 27.6331 35.5631 27.3305 35.2828 27.4727C34.4125 27.9187 33.4474 28.1479 32.4695 28.1409Z" fill="url(#paint64_radial_106_2309)"/>
<g filter="url(#filter10_ii_106_2309)">
<path d="M42.3312 8.76281C43.3753 9.12234 44.3137 9.85156 44.9048 10.8977C45.3569 11.686 45.5766 12.5862 45.5385 13.4942C45.5004 14.4022 45.2061 15.2809 44.6895 16.0286C44.333 16.5528 44.142 17.172 44.1411 17.8059V20.2191C43.7323 19.9448 43.2709 19.7587 42.7862 19.6727L42.9447 16.4105C42.9363 15.66 42.6417 14.9411 42.1211 14.4005C41.6005 13.8599 40.8932 13.5384 40.1436 13.5017H37.2998C35.36 13.5017 33.603 12.3581 32.8067 10.5706C32.707 10.3206 32.5347 10.1061 32.3121 9.95482C32.0895 9.80351 31.8267 9.72227 31.5575 9.72156H28.9717C25.222 9.72156 22.1853 12.7928 22.1853 16.5852L22.2462 19.7072C21.7245 19.7731 21.2245 19.9565 20.7837 20.2434V17.8059C20.7828 17.172 20.5918 16.5528 20.2353 16.0286C19.7434 15.304 19.4567 14.4598 19.4056 13.5854C19.3544 12.7111 19.5408 11.8392 19.9448 11.0622C20.5026 9.99237 21.4456 9.17418 22.5834 8.77297C23.7493 8.36237 24.7408 7.56721 25.3947 6.51828C25.99 5.55862 26.9096 4.84407 27.9866 4.50421C29.0635 4.16435 30.2267 4.22167 31.265 4.66578C31.6474 4.83301 32.0603 4.91934 32.4777 4.91934C32.895 4.91934 33.3079 4.83301 33.6903 4.66578C34.2611 4.42609 34.8867 4.28391 35.5428 4.28391C37.2572 4.28391 38.7522 5.21015 39.585 6.58328C40.2086 7.61922 41.1897 8.37078 42.3312 8.76281Z" fill="url(#paint65_linear_106_2309)"/>
</g>
<path d="M42.3312 8.76281C43.3753 9.12234 44.3137 9.85156 44.9048 10.8977C45.3569 11.686 45.5766 12.5862 45.5385 13.4942C45.5004 14.4022 45.2061 15.2809 44.6895 16.0286C44.333 16.5528 44.142 17.172 44.1411 17.8059V20.2191C43.7323 19.9448 43.2709 19.7587 42.7862 19.6727L42.9447 16.4105C42.9363 15.66 42.6417 14.9411 42.1211 14.4005C41.6005 13.8599 40.8932 13.5384 40.1436 13.5017H37.2998C35.36 13.5017 33.603 12.3581 32.8067 10.5706C32.707 10.3206 32.5347 10.1061 32.3121 9.95482C32.0895 9.80351 31.8267 9.72227 31.5575 9.72156H28.9717C25.222 9.72156 22.1853 12.7928 22.1853 16.5852L22.2462 19.7072C21.7245 19.7731 21.2245 19.9565 20.7837 20.2434V17.8059C20.7828 17.172 20.5918 16.5528 20.2353 16.0286C19.7434 15.304 19.4567 14.4598 19.4056 13.5854C19.3544 12.7111 19.5408 11.8392 19.9448 11.0622C20.5026 9.99237 21.4456 9.17418 22.5834 8.77297C23.7493 8.36237 24.7408 7.56721 25.3947 6.51828C25.99 5.55862 26.9096 4.84407 27.9866 4.50421C29.0635 4.16435 30.2267 4.22167 31.265 4.66578C31.6474 4.83301 32.0603 4.91934 32.4777 4.91934C32.895 4.91934 33.3079 4.83301 33.6903 4.66578C34.2611 4.42609 34.8867 4.28391 35.5428 4.28391C37.2572 4.28391 38.7522 5.21015 39.585 6.58328C40.2086 7.61922 41.1897 8.37078 42.3312 8.76281Z" fill="url(#paint66_radial_106_2309)"/>
<path d="M42.3312 8.76281C43.3753 9.12234 44.3137 9.85156 44.9048 10.8977C45.3569 11.686 45.5766 12.5862 45.5385 13.4942C45.5004 14.4022 45.2061 15.2809 44.6895 16.0286C44.333 16.5528 44.142 17.172 44.1411 17.8059V20.2191C43.7323 19.9448 43.2709 19.7587 42.7862 19.6727L42.9447 16.4105C42.9363 15.66 42.6417 14.9411 42.1211 14.4005C41.6005 13.8599 40.8932 13.5384 40.1436 13.5017H37.2998C35.36 13.5017 33.603 12.3581 32.8067 10.5706C32.707 10.3206 32.5347 10.1061 32.3121 9.95482C32.0895 9.80351 31.8267 9.72227 31.5575 9.72156H28.9717C25.222 9.72156 22.1853 12.7928 22.1853 16.5852L22.2462 19.7072C21.7245 19.7731 21.2245 19.9565 20.7837 20.2434V17.8059C20.7828 17.172 20.5918 16.5528 20.2353 16.0286C19.7434 15.304 19.4567 14.4598 19.4056 13.5854C19.3544 12.7111 19.5408 11.8392 19.9448 11.0622C20.5026 9.99237 21.4456 9.17418 22.5834 8.77297C23.7493 8.36237 24.7408 7.56721 25.3947 6.51828C25.99 5.55862 26.9096 4.84407 27.9866 4.50421C29.0635 4.16435 30.2267 4.22167 31.265 4.66578C31.6474 4.83301 32.0603 4.91934 32.4777 4.91934C32.895 4.91934 33.3079 4.83301 33.6903 4.66578C34.2611 4.42609 34.8867 4.28391 35.5428 4.28391C37.2572 4.28391 38.7522 5.21015 39.585 6.58328C40.2086 7.61922 41.1897 8.37078 42.3312 8.76281Z" fill="url(#paint67_radial_106_2309)"/>
<path d="M42.3312 8.76281C43.3753 9.12234 44.3137 9.85156 44.9048 10.8977C45.3569 11.686 45.5766 12.5862 45.5385 13.4942C45.5004 14.4022 45.2061 15.2809 44.6895 16.0286C44.333 16.5528 44.142 17.172 44.1411 17.8059V20.2191C43.7323 19.9448 43.2709 19.7587 42.7862 19.6727L42.9447 16.4105C42.9363 15.66 42.6417 14.9411 42.1211 14.4005C41.6005 13.8599 40.8932 13.5384 40.1436 13.5017H37.2998C35.36 13.5017 33.603 12.3581 32.8067 10.5706C32.707 10.3206 32.5347 10.1061 32.3121 9.95482C32.0895 9.80351 31.8267 9.72227 31.5575 9.72156H28.9717C25.222 9.72156 22.1853 12.7928 22.1853 16.5852L22.2462 19.7072C21.7245 19.7731 21.2245 19.9565 20.7837 20.2434V17.8059C20.7828 17.172 20.5918 16.5528 20.2353 16.0286C19.7434 15.304 19.4567 14.4598 19.4056 13.5854C19.3544 12.7111 19.5408 11.8392 19.9448 11.0622C20.5026 9.99237 21.4456 9.17418 22.5834 8.77297C23.7493 8.36237 24.7408 7.56721 25.3947 6.51828C25.99 5.55862 26.9096 4.84407 27.9866 4.50421C29.0635 4.16435 30.2267 4.22167 31.265 4.66578C31.6474 4.83301 32.0603 4.91934 32.4777 4.91934C32.895 4.91934 33.3079 4.83301 33.6903 4.66578C34.2611 4.42609 34.8867 4.28391 35.5428 4.28391C37.2572 4.28391 38.7522 5.21015 39.585 6.58328C40.2086 7.61922 41.1897 8.37078 42.3312 8.76281Z" fill="url(#paint68_radial_106_2309)"/>
<g filter="url(#filter11_i_106_2309)">
<path d="M40.0522 16.2033C39.6528 15.8264 39.1758 15.5415 38.6547 15.3684C38.0372 15.1734 37.2633 15.1206 36.1928 15.2527C36.1194 15.2616 36.0486 15.2849 35.9842 15.3212C35.9199 15.3575 35.8633 15.4062 35.8177 15.4644C35.7722 15.5226 35.7385 15.5892 35.7187 15.6603C35.6989 15.7315 35.6933 15.8059 35.7022 15.8793C35.7112 15.9526 35.7345 16.0235 35.7708 16.0879C35.8071 16.1522 35.8558 16.2088 35.914 16.2543C35.9722 16.2999 36.0388 16.3335 36.1099 16.3534C36.1811 16.3732 36.2555 16.3788 36.3289 16.3698C37.3059 16.25 37.9051 16.313 38.3175 16.443C38.7197 16.5689 38.9919 16.7741 39.3128 17.0523C39.4254 17.1504 39.5723 17.1997 39.7213 17.1894C39.8702 17.1791 40.009 17.1101 40.107 16.9975C40.2051 16.8849 40.2544 16.738 40.2441 16.589C40.2338 16.4401 40.1648 16.3013 40.0522 16.2033Z" fill="#462D2B"/>
</g>
<g filter="url(#filter12_i_106_2309)">
<path d="M25.5409 15.9819C26.6064 15.3576 27.8475 15.1007 29.0732 15.2506C29.1467 15.2596 29.2177 15.2829 29.2822 15.3193C29.3467 15.3556 29.4034 15.4044 29.449 15.4626C29.4947 15.5209 29.5284 15.5876 29.5482 15.6589C29.5681 15.7303 29.5737 15.8048 29.5648 15.8783C29.5559 15.9518 29.5325 16.0228 29.4962 16.0873C29.4598 16.1517 29.4111 16.2084 29.3528 16.2541C29.2945 16.2997 29.2278 16.3334 29.1565 16.3533C29.0852 16.3732 29.0106 16.3788 28.9371 16.3698C27.96 16.2501 26.9706 16.4534 26.1198 16.9488C26.0559 16.9868 25.9936 17.0275 25.9329 17.0706L25.9268 17.0747C25.8086 17.1663 25.6588 17.2071 25.5104 17.1883C25.3621 17.1694 25.2272 17.0924 25.1357 16.9741C25.0441 16.8559 25.0032 16.7061 25.0221 16.5577C25.0409 16.4094 25.118 16.2746 25.2362 16.183L25.5409 15.9819Z" fill="#462D2B"/>
</g>
<g filter="url(#filter13_if_106_2309)">
<path d="M32.9408 10.8489C32.8932 10.7575 32.8485 10.6647 32.8067 10.5706C32.707 10.3206 32.5347 10.1061 32.3121 9.95482C32.0895 9.80351 31.8267 9.72227 31.5575 9.72156H28.9717C25.222 9.72156 22.1853 12.7928 22.1853 16.5852V17.1437C21.4947 16.6177 20.6253 15.5106 20.6253 13.715C20.6253 11.5375 22.2137 10.4386 23.2253 9.73578C23.5117 9.53672 23.7534 9.37016 23.8976 9.22187L24.1008 9.00859C24.8117 8.25703 26.0751 6.91437 28.2851 6.32734C29.285 6.07401 30.3153 5.9612 31.3462 5.99219C32.307 6.01453 32.9834 6.84531 32.9834 7.80609V10.8225L32.9428 10.8489H32.9408Z" fill="#533634"/>
<path d="M32.9408 10.8489C32.8932 10.7575 32.8485 10.6647 32.8067 10.5706C32.707 10.3206 32.5347 10.1061 32.3121 9.95482C32.0895 9.80351 31.8267 9.72227 31.5575 9.72156H28.9717C25.222 9.72156 22.1853 12.7928 22.1853 16.5852V17.1437C21.4947 16.6177 20.6253 15.5106 20.6253 13.715C20.6253 11.5375 22.2137 10.4386 23.2253 9.73578C23.5117 9.53672 23.7534 9.37016 23.8976 9.22187L24.1008 9.00859C24.8117 8.25703 26.0751 6.91437 28.2851 6.32734C29.285 6.07401 30.3153 5.9612 31.3462 5.99219C32.307 6.01453 32.9834 6.84531 32.9834 7.80609V10.8225L32.9428 10.8489H32.9408Z" fill="url(#paint69_radial_106_2309)"/>
<path d="M32.9408 10.8489C32.8932 10.7575 32.8485 10.6647 32.8067 10.5706C32.707 10.3206 32.5347 10.1061 32.3121 9.95482C32.0895 9.80351 31.8267 9.72227 31.5575 9.72156H28.9717C25.222 9.72156 22.1853 12.7928 22.1853 16.5852V17.1437C21.4947 16.6177 20.6253 15.5106 20.6253 13.715C20.6253 11.5375 22.2137 10.4386 23.2253 9.73578C23.5117 9.53672 23.7534 9.37016 23.8976 9.22187L24.1008 9.00859C24.8117 8.25703 26.0751 6.91437 28.2851 6.32734C29.285 6.07401 30.3153 5.9612 31.3462 5.99219C32.307 6.01453 32.9834 6.84531 32.9834 7.80609V10.8225L32.9428 10.8489H32.9408Z" fill="url(#paint70_radial_106_2309)"/>
</g>
<g filter="url(#filter14_if_106_2309)">
<path d="M43.0584 17.485L42.9975 16.2033C42.9772 14.6514 41.6955 13.3717 40.1436 13.3067H37.2999C36.4172 13.3068 35.5508 13.0691 34.7916 12.6188C34.0325 12.1685 33.4086 11.522 32.9855 10.7473C32.9855 10.7473 32.8656 10.4731 32.7417 9.99984C32.2217 8.02953 34.1027 6.52234 36.1055 6.91031C38.0819 7.29422 40.3345 7.96047 42.0002 9.04719C45.5427 11.3567 44.9252 15.5228 43.0584 17.485Z" fill="#563936"/>
<path d="M43.0584 17.485L42.9975 16.2033C42.9772 14.6514 41.6955 13.3717 40.1436 13.3067H37.2999C36.4172 13.3068 35.5508 13.0691 34.7916 12.6188C34.0325 12.1685 33.4086 11.522 32.9855 10.7473C32.9855 10.7473 32.8656 10.4731 32.7417 9.99984C32.2217 8.02953 34.1027 6.52234 36.1055 6.91031C38.0819 7.29422 40.3345 7.96047 42.0002 9.04719C45.5427 11.3567 44.9252 15.5228 43.0584 17.485Z" fill="url(#paint71_radial_106_2309)"/>
<path d="M43.0584 17.485L42.9975 16.2033C42.9772 14.6514 41.6955 13.3717 40.1436 13.3067H37.2999C36.4172 13.3068 35.5508 13.0691 34.7916 12.6188C34.0325 12.1685 33.4086 11.522 32.9855 10.7473C32.9855 10.7473 32.8656 10.4731 32.7417 9.99984C32.2217 8.02953 34.1027 6.52234 36.1055 6.91031C38.0819 7.29422 40.3345 7.96047 42.0002 9.04719C45.5427 11.3567 44.9252 15.5228 43.0584 17.485Z" fill="url(#paint72_radial_106_2309)"/>
<path d="M43.0584 17.485L42.9975 16.2033C42.9772 14.6514 41.6955 13.3717 40.1436 13.3067H37.2999C36.4172 13.3068 35.5508 13.0691 34.7916 12.6188C34.0325 12.1685 33.4086 11.522 32.9855 10.7473C32.9855 10.7473 32.8656 10.4731 32.7417 9.99984C32.2217 8.02953 34.1027 6.52234 36.1055 6.91031C38.0819 7.29422 40.3345 7.96047 42.0002 9.04719C45.5427 11.3567 44.9252 15.5228 43.0584 17.485Z" fill="url(#paint73_radial_106_2309)"/>
</g>
<path d="M37.3263 18.8744C38.6527 18.8744 39.7739 19.7884 40.0786 21.0255C40.0991 21.1078 40.1004 21.1938 40.0825 21.2767C40.0647 21.3597 40.0281 21.4374 39.9755 21.5041C39.923 21.5707 39.8559 21.6245 39.7794 21.6612C39.703 21.698 39.6191 21.7167 39.5342 21.7161H35.0025C34.934 21.7163 34.8663 21.7014 34.8041 21.6725C34.742 21.6436 34.687 21.6014 34.643 21.5489C34.599 21.4964 34.5671 21.4348 34.5495 21.3686C34.532 21.3023 34.5292 21.233 34.5414 21.1656C34.6684 20.5203 35.0155 19.9391 35.5234 19.5212C36.0313 19.1033 36.6685 18.8747 37.3263 18.8744Z" fill="white"/>
<path d="M36.9058 19.4248C37.1845 19.4249 37.4596 19.4893 37.7094 19.613C37.9592 19.7368 38.1772 19.9165 38.3462 20.1382C38.5152 20.3599 38.6308 20.6176 38.684 20.8913C38.7371 21.165 38.7264 21.4472 38.6526 21.7161H35.1508C35.0785 21.4467 35.0692 21.1643 35.1235 20.8906C35.1778 20.617 35.2942 20.3596 35.4638 20.1381C35.6334 19.9167 35.8517 19.7372 36.1017 19.6135C36.3517 19.4898 36.6268 19.4253 36.9058 19.4248Z" fill="url(#paint74_radial_106_2309)"/>
<path d="M35.8678 21.2387C35.8678 20.6619 36.3289 20.2008 36.9058 20.2008C37.0844 20.1995 37.2604 20.2446 37.4164 20.3316C37.5725 20.4186 37.7033 20.5445 37.7962 20.6972C37.8891 20.8498 37.9408 21.0239 37.9464 21.2024C37.952 21.381 37.9111 21.558 37.828 21.7161H35.9917C35.9086 21.5709 35.8658 21.4061 35.8678 21.2387Z" fill="black"/>
<g filter="url(#filter15_f_106_2309)">
<path d="M36.7717 19.8087C36.9017 19.9814 36.6315 20.1927 36.3248 20.4222C36.0181 20.6517 35.7906 20.8122 35.6606 20.6395C35.5326 20.4669 35.6769 20.1419 35.9836 19.9123C36.2883 19.6828 36.6437 19.6361 36.7717 19.8108V19.8087Z" fill="#C7A7A3"/>
<path d="M36.7717 19.8087C36.9017 19.9814 36.6315 20.1927 36.3248 20.4222C36.0181 20.6517 35.7906 20.8122 35.6606 20.6395C35.5326 20.4669 35.6769 20.1419 35.9836 19.9123C36.2883 19.6828 36.6437 19.6361 36.7717 19.8108V19.8087Z" fill="url(#paint75_radial_106_2309)"/>
</g>
<g filter="url(#filter16_f_106_2309)">
<path d="M38.5206 21.0011C38.467 20.646 38.3028 20.3169 38.0514 20.0606L37.5233 20.6395L37.7609 21.1027L38.5206 21.0011Z" fill="url(#paint76_linear_106_2309)"/>
</g>
<path d="M27.6128 18.8723C26.2864 18.8723 25.1651 19.7864 24.8604 21.0255C24.769 21.3789 25.0432 21.7161 25.4048 21.7161H29.9365C30.0053 21.7164 30.0732 21.7014 30.1355 21.6724C30.1978 21.6434 30.2529 21.601 30.297 21.5483C30.341 21.4955 30.3729 21.4337 30.3903 21.3672C30.4077 21.3007 30.4102 21.2312 30.3976 21.1636C30.2696 20.5191 29.9225 19.9388 29.4153 19.5212C28.908 19.1035 28.2719 18.8743 27.6148 18.8723H27.6128Z" fill="white"/>
<path d="M28.0312 19.4248C27.7526 19.4253 27.4778 19.49 27.2281 19.6138C26.9785 19.7377 26.7608 19.9174 26.5918 20.139C26.4229 20.3606 26.3072 20.6181 26.2539 20.8916C26.2006 21.1651 26.211 21.4473 26.2843 21.7161H29.7882C29.8312 21.5606 29.8538 21.4001 29.8553 21.2388C29.8521 20.7573 29.6588 20.2965 29.3176 19.9568C28.9763 19.6171 28.5127 19.4259 28.0312 19.4248Z" fill="url(#paint77_radial_106_2309)"/>
<path d="M29.0712 21.2387C29.0718 21.1023 29.0453 20.9671 28.9933 20.8409C28.9413 20.7147 28.8649 20.6001 28.7684 20.5036C28.6719 20.4071 28.5573 20.3307 28.4311 20.2787C28.3049 20.2267 28.1697 20.2002 28.0332 20.2008C27.8548 20.2001 27.6792 20.2456 27.5235 20.3327C27.3678 20.4198 27.2372 20.5457 27.1445 20.6982C27.0517 20.8506 26.9999 21.0244 26.994 21.2027C26.9882 21.3811 27.0285 21.5579 27.1111 21.7161H28.9473C29.0267 21.5694 29.0692 21.4056 29.0712 21.2387Z" fill="black"/>
<g filter="url(#filter17_f_106_2309)">
<path d="M29.6887 21.0255C29.6887 20.4405 29.2134 20.0505 29.0834 19.9306L28.4984 20.4994L28.8579 21.2306L29.6908 21.0275L29.6887 21.0255Z" fill="url(#paint78_linear_106_2309)"/>
</g>
<g filter="url(#filter18_f_106_2309)">
<path d="M27.6742 20.5544C28.0608 20.3496 28.2903 20.0252 28.1869 19.8299C28.0834 19.6346 27.6861 19.6424 27.2995 19.8472C26.9129 20.052 26.6834 20.3764 26.7868 20.5716C26.8903 20.7669 27.2876 20.7592 27.6742 20.5544Z" fill="#C7A7A3" fill-opacity="0.9"/>
<path d="M27.6742 20.5544C28.0608 20.3496 28.2903 20.0252 28.1869 19.8299C28.0834 19.6346 27.6861 19.6424 27.2995 19.8472C26.9129 20.052 26.6834 20.3764 26.7868 20.5716C26.8903 20.7669 27.2876 20.7592 27.6742 20.5544Z" fill="url(#paint79_radial_106_2309)"/>
</g>
<path d="M42.4673 24.9803C42.6014 22.817 42.7314 20.6598 42.8411 18.4966C43.6289 18.637 44.3379 19.0614 44.8338 19.6894C45.3297 20.3174 45.5782 21.1054 45.5321 21.9043C45.4861 22.7032 45.1487 23.4575 44.5839 24.0244C44.0191 24.5912 43.2661 24.9313 42.4673 24.9803Z" fill="url(#paint80_linear_106_2309)"/>
<path d="M42.4673 24.9803C42.6014 22.817 42.7314 20.6598 42.8411 18.4966C43.6289 18.637 44.3379 19.0614 44.8338 19.6894C45.3297 20.3174 45.5782 21.1054 45.5321 21.9043C45.4861 22.7032 45.1487 23.4575 44.5839 24.0244C44.0191 24.5912 43.2661 24.9313 42.4673 24.9803Z" fill="url(#paint81_radial_106_2309)"/>
<path d="M42.4673 24.9803C42.6014 22.817 42.7314 20.6598 42.8411 18.4966C43.6289 18.637 44.3379 19.0614 44.8338 19.6894C45.3297 20.3174 45.5782 21.1054 45.5321 21.9043C45.4861 22.7032 45.1487 23.4575 44.5839 24.0244C44.0191 24.5912 43.2661 24.9313 42.4673 24.9803Z" fill="url(#paint82_radial_106_2309)"/>
<path d="M42.4673 24.9803C42.6014 22.817 42.7314 20.6598 42.8411 18.4966C43.6289 18.637 44.3379 19.0614 44.8338 19.6894C45.3297 20.3174 45.5782 21.1054 45.5321 21.9043C45.4861 22.7032 45.1487 23.4575 44.5839 24.0244C44.0191 24.5912 43.2661 24.9313 42.4673 24.9803Z" fill="url(#paint83_radial_106_2309)"/>
<path d="M22.2219 18.4702C21.4402 18.583 20.725 18.9728 20.2065 19.5685C19.6879 20.1642 19.4005 20.9263 19.3964 21.7161C19.3964 23.463 20.7635 24.8869 22.4839 24.9803C22.3527 22.8123 22.266 20.6418 22.2239 18.4702H22.2219Z" fill="url(#paint84_linear_106_2309)"/>
<path d="M22.2219 18.4702C21.4402 18.583 20.725 18.9728 20.2065 19.5685C19.6879 20.1642 19.4005 20.9263 19.3964 21.7161C19.3964 23.463 20.7635 24.8869 22.4839 24.9803C22.3527 22.8123 22.266 20.6418 22.2239 18.4702H22.2219Z" fill="url(#paint85_radial_106_2309)"/>
<g filter="url(#filter19_f_106_2309)">
<path d="M22.1406 19.8209C21.6964 19.9212 21.3015 20.1744 21.025 20.5363C20.7486 20.8983 20.6081 21.3458 20.6282 21.8008C20.6483 22.2558 20.8276 22.6892 21.1349 23.0254C21.4422 23.3615 21.8578 23.5789 22.3092 23.6397C22.2369 22.3675 22.1821 21.0945 22.1406 19.8209Z" fill="url(#paint86_radial_106_2309)"/>
</g>
<g filter="url(#filter20_f_106_2309)">
<path d="M42.7274 23.5016C42.7948 22.3114 42.8591 21.1211 42.9203 19.9306C43.7328 20.0423 44.3645 20.7959 44.3645 21.71C44.3645 22.6952 43.6333 23.4934 42.7274 23.5016Z" fill="url(#paint87_linear_106_2309)"/>
</g>
<g filter="url(#filter21_f_106_2309)">
<path d="M25.6181 16.5506C26.1401 16.1748 27.4401 15.5147 28.9798 15.7747" stroke="#553F3F" stroke-width="0.25" stroke-linecap="round"/>
</g>
<g filter="url(#filter22_f_106_2309)">
<path d="M39.778 16.4369C39.2559 16.0631 37.9559 15.405 36.4163 15.663" stroke="#553F3F" stroke-width="0.25" stroke-linecap="round"/>
</g>
<g filter="url(#filter23_f_106_2309)">
<path d="M41.405 10.855H37.0642C36.9268 10.8524 36.7913 10.8217 36.6661 10.7648C36.541 10.7079 36.4288 10.6259 36.3365 10.5241C36.2442 10.4222 36.1738 10.3025 36.1295 10.1723C36.0852 10.0422 36.068 9.90434 36.079 9.7673C36.0899 9.63026 36.1288 9.49691 36.1933 9.37547C36.2577 9.25403 36.3463 9.14706 36.4536 9.06114C36.561 8.97523 36.6847 8.91219 36.8173 8.87591C36.9499 8.83962 37.0886 8.83086 37.2247 8.85016C38.35 9.02891 39.845 9.28078 40.8484 9.52859C43.1112 10.0892 43.7369 11.1922 43.9116 11.9783C43.6054 11.6143 43.2209 11.3242 42.7869 11.1297C42.3528 10.9352 41.8804 10.8413 41.405 10.855Z" fill="#725050"/>
</g>
<defs>
<filter id="filter0_f_106_2309" x="19.3408" y="33.1372" width="12.455" height="21.4115" filterUnits="userSpaceOnUse" color-interpolation-filters="sRGB">
<feFlood flood-opacity="0" result="BackgroundImageFix"/>
<feBlend mode="normal" in="SourceGraphic" in2="BackgroundImageFix" result="shape"/>
<feGaussianBlur stdDeviation="0.5" result="effect1_foregroundBlur_106_2309"/>
</filter>
<filter id="filter1_f_106_2309" x="33.3464" y="33.1372" width="12.4549" height="21.4115" filterUnits="userSpaceOnUse" color-interpolation-filters="sRGB">
<feFlood flood-opacity="0" result="BackgroundImageFix"/>
<feBlend mode="normal" in="SourceGraphic" in2="BackgroundImageFix" result="shape"/>
<feGaussianBlur stdDeviation="0.5" result="effect1_foregroundBlur_106_2309"/>
</filter>
<filter id="filter2_f_106_2309" x="35.3593" y="49.558" width="5.96875" height="5.96875" filterUnits="userSpaceOnUse" color-interpolation-filters="sRGB">
<feFlood flood-opacity="0" result="BackgroundImageFix"/>
<feBlend mode="normal" in="SourceGraphic" in2="BackgroundImageFix" result="shape"/>
<feGaussianBlur stdDeviation="0.375" result="effect1_foregroundBlur_106_2309"/>
</filter>
<filter id="filter3_i_106_2309" x="38.4922" y="50.31" width="2.8844" height="2.88437" filterUnits="userSpaceOnUse" color-interpolation-filters="sRGB">
<feFlood flood-opacity="0" result="BackgroundImageFix"/>
<feBlend mode="normal" in="SourceGraphic" in2="BackgroundImageFix" result="shape"/>
<feColorMatrix in="SourceAlpha" type="matrix" values="0 0 0 0 0 0 0 0 0 0 0 0 0 0 0 0 0 0 127 0" result="hardAlpha"/>
<feOffset/>
<feGaussianBlur stdDeviation="0.1"/>
<feComposite in2="hardAlpha" operator="arithmetic" k2="-1" k3="1"/>
<feColorMatrix type="matrix" values="0 0 0 0 0.14902 0 0 0 0 0.411765 0 0 0 0 0.721569 0 0 0 1 0"/>
<feBlend mode="normal" in2="shape" result="effect1_innerShadow_106_2309"/>
</filter>
<filter id="filter4_i_106_2309" x="19.2969" y="40.1975" width="10.9281" height="14.3578" filterUnits="userSpaceOnUse" color-interpolation-filters="sRGB">
<feFlood flood-opacity="0" result="BackgroundImageFix"/>
<feBlend mode="normal" in="SourceGraphic" in2="BackgroundImageFix" result="shape"/>
<feColorMatrix in="SourceAlpha" type="matrix" values="0 0 0 0 0 0 0 0 0 0 0 0 0 0 0 0 0 0 127 0" result="hardAlpha"/>
<feOffset dy="-0.2"/>
<feGaussianBlur stdDeviation="0.1"/>
<feComposite in2="hardAlpha" operator="arithmetic" k2="-1" k3="1"/>
<feColorMatrix type="matrix" values="0 0 0 0 0.333333 0 0 0 0 0.239216 0 0 0 0 0.501961 0 0 0 1 0"/>
<feBlend mode="normal" in2="shape" result="effect1_innerShadow_106_2309"/>
</filter>
<filter id="filter5_f_106_2309" x="19.8929" y="40.8067" width="9.83755" height="13.0672" filterUnits="userSpaceOnUse" color-interpolation-filters="sRGB">
<feFlood flood-opacity="0" result="BackgroundImageFix"/>
<feBlend mode="normal" in="SourceGraphic" in2="BackgroundImageFix" result="shape"/>
<feGaussianBlur stdDeviation="0.15" result="effect1_foregroundBlur_106_2309"/>
</filter>
<filter id="filter6_ii_106_2309" x="22.1853" y="9.72156" width="21.7594" height="25.1697" filterUnits="userSpaceOnUse" color-interpolation-filters="sRGB">
<feFlood flood-opacity="0" result="BackgroundImageFix"/>
<feBlend mode="normal" in="SourceGraphic" in2="BackgroundImageFix" result="shape"/>
<feColorMatrix in="SourceAlpha" type="matrix" values="0 0 0 0 0 0 0 0 0 0 0 0 0 0 0 0 0 0 127 0" result="hardAlpha"/>
<feOffset dx="1"/>
<feGaussianBlur stdDeviation="0.7"/>
<feComposite in2="hardAlpha" operator="arithmetic" k2="-1" k3="1"/>
<feColorMatrix type="matrix" values="0 0 0 0 0.584314 0 0 0 0 0.427451 0 0 0 0 0.376471 0 0 0 1 0"/>
<feBlend mode="normal" in2="shape" result="effect1_innerShadow_106_2309"/>
<feColorMatrix in="SourceAlpha" type="matrix" values="0 0 0 0 0 0 0 0 0 0 0 0 0 0 0 0 0 0 127 0" result="hardAlpha"/>
<feOffset dy="0.1"/>
<feGaussianBlur stdDeviation="0.2"/>
<feComposite in2="hardAlpha" operator="arithmetic" k2="-1" k3="1"/>
<feColorMatrix type="matrix" values="0 0 0 0 0.419608 0 0 0 0 0.25098 0 0 0 0 0.262745 0 0 0 1 0"/>
<feBlend mode="normal" in2="effect1_innerShadow_106_2309" result="effect2_innerShadow_106_2309"/>
</filter>
<filter id="filter7_f_106_2309" x="29.4075" y="19.5806" width="5.54718" height="7.89062" filterUnits="userSpaceOnUse" color-interpolation-filters="sRGB">
<feFlood flood-opacity="0" result="BackgroundImageFix"/>
<feBlend mode="normal" in="SourceGraphic" in2="BackgroundImageFix" result="shape"/>
<feGaussianBlur stdDeviation="0.5" result="effect1_foregroundBlur_106_2309"/>
</filter>
<filter id="filter8_f_106_2309" x="30.3629" y="19.984" width="4.21281" height="6.29113" filterUnits="userSpaceOnUse" color-interpolation-filters="sRGB">
<feFlood flood-opacity="0" result="BackgroundImageFix"/>
<feBlend mode="normal" in="SourceGraphic" in2="BackgroundImageFix" result="shape"/>
<feGaussianBlur stdDeviation="0.1" result="effect1_foregroundBlur_106_2309"/>
</filter>
<filter id="filter9_f_106_2309" x="28.873" y="27.1095" width="7.19188" height="2.83348" filterUnits="userSpaceOnUse" color-interpolation-filters="sRGB">
<feFlood flood-opacity="0" result="BackgroundImageFix"/>
<feBlend mode="normal" in="SourceGraphic" in2="BackgroundImageFix" result="shape"/>
<feGaussianBlur stdDeviation="0.05" result="effect1_foregroundBlur_106_2309"/>
</filter>
<filter id="filter10_ii_106_2309" x="19.3973" y="3.78391" width="26.1454" height="16.4595" filterUnits="userSpaceOnUse" color-interpolation-filters="sRGB">
<feFlood flood-opacity="0" result="BackgroundImageFix"/>
<feBlend mode="normal" in="SourceGraphic" in2="BackgroundImageFix" result="shape"/>
<feColorMatrix in="SourceAlpha" type="matrix" values="0 0 0 0 0 0 0 0 0 0 0 0 0 0 0 0 0 0 127 0" result="hardAlpha"/>
<feOffset dy="-0.5"/>
<feGaussianBlur stdDeviation="0.625"/>
<feComposite in2="hardAlpha" operator="arithmetic" k2="-1" k3="1"/>
<feColorMatrix type="matrix" values="0 0 0 0 0.266667 0 0 0 0 0.152941 0 0 0 0 0.184314 0 0 0 1 0"/>
<feBlend mode="normal" in2="shape" result="effect1_innerShadow_106_2309"/>
<feColorMatrix in="SourceAlpha" type="matrix" values="0 0 0 0 0 0 0 0 0 0 0 0 0 0 0 0 0 0 127 0" result="hardAlpha"/>
<feOffset dy="-0.2"/>
<feGaussianBlur stdDeviation="0.2"/>
<feComposite in2="hardAlpha" operator="arithmetic" k2="-1" k3="1"/>
<feColorMatrix type="matrix" values="0 0 0 0 0.258824 0 0 0 0 0.133333 0 0 0 0 0.172549 0 0 0 1 0"/>
<feBlend mode="normal" in2="effect1_innerShadow_106_2309" result="effect2_innerShadow_106_2309"/>
</filter>
<filter id="filter11_i_106_2309" x="35.6981" y="14.9798" width="4.6473" height="2.2109" filterUnits="userSpaceOnUse" color-interpolation-filters="sRGB">
<feFlood flood-opacity="0" result="BackgroundImageFix"/>
<feBlend mode="normal" in="SourceGraphic" in2="BackgroundImageFix" result="shape"/>
<feColorMatrix in="SourceAlpha" type="matrix" values="0 0 0 0 0 0 0 0 0 0 0 0 0 0 0 0 0 0 127 0" result="hardAlpha"/>
<feOffset dx="0.1" dy="-0.2"/>
<feGaussianBlur stdDeviation="0.125"/>
<feComposite in2="hardAlpha" operator="arithmetic" k2="-1" k3="1"/>
<feColorMatrix type="matrix" values="0 0 0 0 0.243137 0 0 0 0 0.121569 0 0 0 0 0.2 0 0 0 1 0"/>
<feBlend mode="normal" in2="shape" result="effect1_innerShadow_106_2309"/>
</filter>
<filter id="filter12_i_106_2309" x="25.0176" y="15.0089" width="4.65133" height="2.18383" filterUnits="userSpaceOnUse" color-interpolation-filters="sRGB">
<feFlood flood-opacity="0" result="BackgroundImageFix"/>
<feBlend mode="normal" in="SourceGraphic" in2="BackgroundImageFix" result="shape"/>
<feColorMatrix in="SourceAlpha" type="matrix" values="0 0 0 0 0 0 0 0 0 0 0 0 0 0 0 0 0 0 127 0" result="hardAlpha"/>
<feOffset dx="0.1" dy="-0.2"/>
<feGaussianBlur stdDeviation="0.125"/>
<feComposite in2="hardAlpha" operator="arithmetic" k2="-1" k3="1"/>
<feColorMatrix type="matrix" values="0 0 0 0 0.243137 0 0 0 0 0.121569 0 0 0 0 0.2 0 0 0 1 0"/>
<feBlend mode="normal" in2="shape" result="effect1_innerShadow_106_2309"/>
</filter>
<filter id="filter13_if_106_2309" x="20.3753" y="5.73717" width="12.8582" height="11.6566" filterUnits="userSpaceOnUse" color-interpolation-filters="sRGB">
<feFlood flood-opacity="0" result="BackgroundImageFix"/>
<feBlend mode="normal" in="SourceGraphic" in2="BackgroundImageFix" result="shape"/>
<feColorMatrix in="SourceAlpha" type="matrix" values="0 0 0 0 0 0 0 0 0 0 0 0 0 0 0 0 0 0 127 0" result="hardAlpha"/>
<feOffset dx="0.1" dy="0.1"/>
<feGaussianBlur stdDeviation="0.1"/>
<feComposite in2="hardAlpha" operator="arithmetic" k2="-1" k3="1"/>
<feColorMatrix type="matrix" values="0 0 0 0 0.364706 0 0 0 0 0.286275 0 0 0 0 0.270588 0 0 0 1 0"/>
<feBlend mode="normal" in2="shape" result="effect1_innerShadow_106_2309"/>
<feGaussianBlur stdDeviation="0.125" result="effect2_foregroundBlur_106_2309"/>
</filter>
<filter id="filter14_if_106_2309" x="32.4041" y="6.34911" width="13.157" height="11.3859" filterUnits="userSpaceOnUse" color-interpolation-filters="sRGB">
<feFlood flood-opacity="0" result="BackgroundImageFix"/>
<feBlend mode="normal" in="SourceGraphic" in2="BackgroundImageFix" result="shape"/>
<feColorMatrix in="SourceAlpha" type="matrix" values="0 0 0 0 0 0 0 0 0 0 0 0 0 0 0 0 0 0 127 0" result="hardAlpha"/>
<feOffset dx="1" dy="-0.5"/>
<feGaussianBlur stdDeviation="0.5"/>
<feComposite in2="hardAlpha" operator="arithmetic" k2="-1" k3="1"/>
<feColorMatrix type="matrix" values="0 0 0 0 0.282353 0 0 0 0 0.168627 0 0 0 0 0.188235 0 0 0 1 0"/>
<feBlend mode="normal" in2="shape" result="effect1_innerShadow_106_2309"/>
<feGaussianBlur stdDeviation="0.125" result="effect2_foregroundBlur_106_2309"/>
</filter>
<filter id="filter15_f_106_2309" x="35.514" y="19.6049" width="1.39116" height="1.20723" filterUnits="userSpaceOnUse" color-interpolation-filters="sRGB">
<feFlood flood-opacity="0" result="BackgroundImageFix"/>
<feBlend mode="normal" in="SourceGraphic" in2="BackgroundImageFix" result="shape"/>
<feGaussianBlur stdDeviation="0.05" result="effect1_foregroundBlur_106_2309"/>
</filter>
<filter id="filter16_f_106_2309" x="37.3233" y="19.8606" width="1.39738" height="1.44203" filterUnits="userSpaceOnUse" color-interpolation-filters="sRGB">
<feFlood flood-opacity="0" result="BackgroundImageFix"/>
<feBlend mode="normal" in="SourceGraphic" in2="BackgroundImageFix" result="shape"/>
<feGaussianBlur stdDeviation="0.1" result="effect1_foregroundBlur_106_2309"/>
</filter>
<filter id="filter17_f_106_2309" x="28.2984" y="19.7306" width="1.59232" height="1.7" filterUnits="userSpaceOnUse" color-interpolation-filters="sRGB">
<feFlood flood-opacity="0" result="BackgroundImageFix"/>
<feBlend mode="normal" in="SourceGraphic" in2="BackgroundImageFix" result="shape"/>
<feGaussianBlur stdDeviation="0.1" result="effect1_foregroundBlur_106_2309"/>
</filter>
<filter id="filter18_f_106_2309" x="26.662" y="19.5884" width="1.64965" height="1.22483" filterUnits="userSpaceOnUse" color-interpolation-filters="sRGB">
<feFlood flood-opacity="0" result="BackgroundImageFix"/>
<feBlend mode="normal" in="SourceGraphic" in2="BackgroundImageFix" result="shape"/>
<feGaussianBlur stdDeviation="0.05" result="effect1_foregroundBlur_106_2309"/>
</filter>
<filter id="filter19_f_106_2309" x="20.3763" y="19.5709" width="2.18292" height="4.31875" filterUnits="userSpaceOnUse" color-interpolation-filters="sRGB">
<feFlood flood-opacity="0" result="BackgroundImageFix"/>
<feBlend mode="normal" in="SourceGraphic" in2="BackgroundImageFix" result="shape"/>
<feGaussianBlur stdDeviation="0.125" result="effect1_foregroundBlur_106_2309"/>
</filter>
<filter id="filter20_f_106_2309" x="42.2274" y="19.4306" width="2.63721" height="4.57094" filterUnits="userSpaceOnUse" color-interpolation-filters="sRGB">
<feFlood flood-opacity="0" result="BackgroundImageFix"/>
<feBlend mode="normal" in="SourceGraphic" in2="BackgroundImageFix" result="shape"/>
<feGaussianBlur stdDeviation="0.25" result="effect1_foregroundBlur_106_2309"/>
</filter>
<filter id="filter21_f_106_2309" x="25.2431" y="15.3406" width="4.11176" height="1.58506" filterUnits="userSpaceOnUse" color-interpolation-filters="sRGB">
<feFlood flood-opacity="0" result="BackgroundImageFix"/>
<feBlend mode="normal" in="SourceGraphic" in2="BackgroundImageFix" result="shape"/>
<feGaussianBlur stdDeviation="0.125" result="effect1_foregroundBlur_106_2309"/>
</filter>
<filter id="filter22_f_106_2309" x="36.0413" y="15.2295" width="4.11176" height="1.58236" filterUnits="userSpaceOnUse" color-interpolation-filters="sRGB">
<feFlood flood-opacity="0" result="BackgroundImageFix"/>
<feBlend mode="normal" in="SourceGraphic" in2="BackgroundImageFix" result="shape"/>
<feGaussianBlur stdDeviation="0.125" result="effect1_foregroundBlur_106_2309"/>
</filter>
<filter id="filter23_f_106_2309" x="35.3257" y="8.09018" width="9.33582" height="4.6381" filterUnits="userSpaceOnUse" color-interpolation-filters="sRGB">
<feFlood flood-opacity="0" result="BackgroundImageFix"/>
<feBlend mode="normal" in="SourceGraphic" in2="BackgroundImageFix" result="shape"/>
<feGaussianBlur stdDeviation="0.375" result="effect1_foregroundBlur_106_2309"/>
</filter>
<radialGradient id="paint0_radial_106_2309" cx="0" cy="0" r="1" gradientUnits="userSpaceOnUse" gradientTransform="translate(47.0844 48.6261) rotate(180) scale(21.9375 42.0316)">
<stop stop-color="#EFEAFB"/>
<stop offset="1" stop-color="#D4CAE9"/>
</radialGradient>
<linearGradient id="paint1_linear_106_2309" x1="47.3159" y1="50.0053" x2="46.6822" y2="50.0073" gradientUnits="userSpaceOnUse">
<stop offset="0.225" stop-color="#D4CCDC"/>
<stop offset="1" stop-color="#D4CCDC" stop-opacity="0"/>
</linearGradient>
<linearGradient id="paint2_linear_106_2309" x1="17.7044" y1="50.0073" x2="18.3869" y2="50.0053" gradientUnits="userSpaceOnUse">
<stop offset="0.383" stop-color="#B7AFC3"/>
<stop offset="1" stop-color="#B7AFC3" stop-opacity="0"/>
</linearGradient>
<linearGradient id="paint3_linear_106_2309" x1="32.827" y1="62.9078" x2="32.827" y2="59.2252" gradientUnits="userSpaceOnUse">
<stop stop-color="#C8B7DE"/>
<stop offset="1" stop-color="#C8B7DE" stop-opacity="0"/>
</linearGradient>
<radialGradient id="paint4_radial_106_2309" cx="0" cy="0" r="1" gradientUnits="userSpaceOnUse" gradientTransform="translate(44.822 58.5257) rotate(-121.204) scale(33.693 33.2079)">
<stop offset="0.587" stop-color="#BEBAC5" stop-opacity="0"/>
<stop offset="1" stop-color="#BEBAC5"/>
</radialGradient>
<radialGradient id="paint5_radial_106_2309" cx="0" cy="0" r="1" gradientUnits="userSpaceOnUse" gradientTransform="translate(36.6356 49.7677) rotate(77.152) scale(7.42215 8.21214)">
<stop stop-color="#B2A6C7"/>
<stop offset="1" stop-color="#B2A6C7" stop-opacity="0"/>
</radialGradient>
<radialGradient id="paint6_radial_106_2309" cx="0" cy="0" r="1" gradientUnits="userSpaceOnUse" gradientTransform="translate(32.4005 60.9538) rotate(-90) scale(16.1992 1.95055)">
<stop stop-color="#B1909E"/>
<stop offset="1" stop-color="#B1909E" stop-opacity="0"/>
</radialGradient>
<linearGradient id="paint7_linear_106_2309" x1="17.875" y1="31.3767" x2="47.0762" y2="31.3767" gradientUnits="userSpaceOnUse">
<stop offset="0.006" stop-color="#CCCCCC"/>
<stop offset="1" stop-color="#E6E6E6"/>
</linearGradient>
<linearGradient id="paint8_linear_106_2309" x1="17.875" y1="31.3158" x2="47.0762" y2="31.3158" gradientUnits="userSpaceOnUse">
<stop offset="0.006" stop-color="#CCCCCC"/>
<stop offset="1" stop-color="#E6E6E6"/>
</linearGradient>
<radialGradient id="paint9_radial_106_2309" cx="0" cy="0" r="1" gradientUnits="userSpaceOnUse" gradientTransform="translate(10.8001 50.2125) rotate(5.18546) scale(7.02331 19.4991)">
<stop stop-color="#D3D0D5"/>
<stop offset="1" stop-color="#C8BFD6"/>
</radialGradient>
<radialGradient id="paint10_radial_106_2309" cx="0" cy="0" r="1" gradientUnits="userSpaceOnUse" gradientTransform="translate(19.2424 36.1208) rotate(107.994) scale(13.5618 15.1886)">
<stop stop-color="#C4C3C3"/>
<stop offset="1" stop-color="#C4C3C3" stop-opacity="0"/>
</radialGradient>
<linearGradient id="paint11_linear_106_2309" x1="14.1781" y1="62.528" x2="14.1781" y2="59.5623" gradientUnits="userSpaceOnUse">
<stop stop-color="#C8B7DE"/>
<stop offset="1" stop-color="#C8B7DE" stop-opacity="0"/>
</linearGradient>
<radialGradient id="paint12_radial_106_2309" cx="0" cy="0" r="1" gradientUnits="userSpaceOnUse" gradientTransform="translate(53.2512 44.6266) rotate(155.425) scale(6.86828 18.167)">
<stop stop-color="#FCF9FF"/>
<stop offset="1" stop-color="#E6DDF3"/>
</radialGradient>
<radialGradient id="paint13_radial_106_2309" cx="0" cy="0" r="1" gradientUnits="userSpaceOnUse" gradientTransform="translate(49.8245 41.3258) rotate(90) scale(22.3437 17.1925)">
<stop offset="0.781" stop-color="#D1C0E3" stop-opacity="0"/>
<stop offset="0.974" stop-color="#D1C0E3"/>
</radialGradient>
<linearGradient id="paint14_linear_106_2309" x1="46.0098" y1="52.1158" x2="47.5922" y2="52.1158" gradientUnits="userSpaceOnUse">
<stop offset="0.643" stop-color="#D4CCDC"/>
<stop offset="1" stop-color="#D4CCDC" stop-opacity="0"/>
</linearGradient>
<radialGradient id="paint15_radial_106_2309" cx="0" cy="0" r="1" gradientUnits="userSpaceOnUse" gradientTransform="translate(32.4695 37.7081) rotate(90) scale(11.4893 6.1166)">
<stop offset="0.363" stop-color="#D76B26"/>
<stop offset="1" stop-color="#943104"/>
</radialGradient>
<radialGradient id="paint16_radial_106_2309" cx="0" cy="0" r="1" gradientUnits="userSpaceOnUse" gradientTransform="translate(33.2089 61.9552) rotate(-90) scale(13.2666 5.81039)">
<stop offset="0.344" stop-color="#E05A26"/>
<stop offset="1" stop-color="#E05A26" stop-opacity="0"/>
</radialGradient>
<linearGradient id="paint17_linear_106_2309" x1="17.875" y1="31.3767" x2="47.0762" y2="31.3767" gradientUnits="userSpaceOnUse">
<stop offset="0.006" stop-color="#CCCCCC"/>
<stop offset="1" stop-color="#E6E6E6"/>
</linearGradient>
<linearGradient id="paint18_linear_106_2309" x1="17.875" y1="31.3158" x2="47.0762" y2="31.3158" gradientUnits="userSpaceOnUse">
<stop offset="0.006" stop-color="#CCCCCC"/>
<stop offset="1" stop-color="#E6E6E6"/>
</linearGradient>
<linearGradient id="paint19_linear_106_2309" x1="32.827" y1="54.8478" x2="48.3153" y2="39.4225" gradientUnits="userSpaceOnUse">
<stop stop-color="#AD9EC2"/>
<stop offset="1" stop-color="#D3CFDA"/>
</linearGradient>
<linearGradient id="paint20_linear_106_2309" x1="44.4336" y1="37.3689" x2="34.0437" y2="48.5773" gradientUnits="userSpaceOnUse">
<stop stop-color="#FDF6F9"/>
<stop offset="1" stop-color="#BDB2D2"/>
</linearGradient>
<linearGradient id="paint21_linear_106_2309" x1="40.6839" y1="31.8459" x2="40.365" y2="36.0364" gradientUnits="userSpaceOnUse">
<stop stop-color="#EDD8CE"/>
<stop offset="1" stop-color="#EDD8CE" stop-opacity="0"/>
</linearGradient>
<linearGradient id="paint22_linear_106_2309" x1="35.683" y1="38.4373" x2="38.0331" y2="39.4225" gradientUnits="userSpaceOnUse">
<stop stop-color="#B49089"/>
<stop offset="1" stop-color="#DED4E6" stop-opacity="0"/>
</linearGradient>
<radialGradient id="paint23_radial_106_2309" cx="0" cy="0" r="1" gradientUnits="userSpaceOnUse" gradientTransform="translate(38.8456 36.8184) rotate(90) scale(12.5684 1.71761)">
<stop stop-color="#AA98A1"/>
<stop offset="1" stop-color="#DAD1E4" stop-opacity="0"/>
</radialGradient>
<radialGradient id="paint24_radial_106_2309" cx="0" cy="0" r="1" gradientUnits="userSpaceOnUse" gradientTransform="translate(33.3755 53.9683) rotate(-48.5803) scale(8.26573 2.82306)">
<stop stop-color="#B7A3CF"/>
<stop offset="1" stop-color="#B7A3CF" stop-opacity="0"/>
</radialGradient>
<radialGradient id="paint25_radial_106_2309" cx="0" cy="0" r="1" gradientUnits="userSpaceOnUse" gradientTransform="translate(38.8456 50.5294) rotate(-90) scale(9.83887 1.12383)">
<stop stop-color="#A298B4"/>
<stop offset="1" stop-color="#A298B4" stop-opacity="0"/>
</radialGradient>
<radialGradient id="paint26_radial_106_2309" cx="0" cy="0" r="1" gradientUnits="userSpaceOnUse" gradientTransform="translate(29.3981 40.3102) rotate(158.705) scale(6.60845 12.9751)">
<stop offset="0.088" stop-color="#EFE1E3"/>
<stop offset="1" stop-color="#BDB0D0"/>
</radialGradient>
<radialGradient id="paint27_radial_106_2309" cx="0" cy="0" r="1" gradientUnits="userSpaceOnUse" gradientTransform="translate(20.5461 50.6391) rotate(-69.7629) scale(20.3243 16.5004)">
<stop offset="0.691" stop-color="#B3A299" stop-opacity="0"/>
<stop offset="1" stop-color="#B3A299"/>
</radialGradient>
<linearGradient id="paint28_linear_106_2309" x1="24.893" y1="47.1656" x2="25.5592" y2="46.4364" gradientUnits="userSpaceOnUse">
<stop stop-color="#B2A6C6"/>
<stop offset="1" stop-color="#B2A6C6" stop-opacity="0"/>
</linearGradient>
<radialGradient id="paint29_radial_106_2309" cx="0" cy="0" r="1" gradientUnits="userSpaceOnUse" gradientTransform="translate(20.8955 39.6134) rotate(-81.961) scale(5.67342 4.34665)">
<stop stop-color="#CBC5CF"/>
<stop offset="1" stop-color="#BDB1AD" stop-opacity="0"/>
</radialGradient>
<radialGradient id="paint30_radial_106_2309" cx="0" cy="0" r="1" gradientUnits="userSpaceOnUse" gradientTransform="translate(24.5436 37.2328) rotate(101.232) scale(4.56247 1.40077)">
<stop offset="0.439" stop-color="#ADA5AB"/>
<stop offset="1" stop-color="#ADA5AB" stop-opacity="0"/>
</radialGradient>
<radialGradient id="paint31_radial_106_2309" cx="0" cy="0" r="1" gradientUnits="userSpaceOnUse" gradientTransform="translate(25.2423 43.357) rotate(49.2949) scale(5.6939 1.97893)">
<stop stop-color="#B5A9BF"/>
<stop offset="1" stop-color="#B5A9BF" stop-opacity="0"/>
</radialGradient>
<radialGradient id="paint32_radial_106_2309" cx="0" cy="0" r="1" gradientUnits="userSpaceOnUse" gradientTransform="translate(32.439 38.5003) rotate(-90) scale(5.77637 6.82776)">
<stop offset="0.495" stop-color="#83515B"/>
<stop offset="0.857" stop-color="#59332C"/>
</radialGradient>
<linearGradient id="paint33_linear_106_2309" x1="41.2222" y1="48.1183" x2="39.8572" y2="48.1487" gradientUnits="userSpaceOnUse">
<stop offset="0.294" stop-color="#786D95"/>
<stop offset="1" stop-color="#786D95" stop-opacity="0"/>
</linearGradient>
<radialGradient id="paint34_radial_106_2309" cx="0" cy="0" r="1" gradientUnits="userSpaceOnUse" gradientTransform="translate(37.5578 33.2962) rotate(90) scale(3.61816 2.64952)">
<stop offset="0.123" stop-color="#322450"/>
<stop offset="1" stop-color="#322450" stop-opacity="0"/>
</radialGradient>
<radialGradient id="paint35_radial_106_2309" cx="0" cy="0" r="1" gradientUnits="userSpaceOnUse" gradientTransform="translate(25.5267 40.7225) rotate(-90) scale(6.37939 1.20605)">
<stop stop-color="#655C80"/>
<stop offset="1" stop-color="#655C80" stop-opacity="0"/>
</radialGradient>
<radialGradient id="paint36_radial_106_2309" cx="0" cy="0" r="1" gradientUnits="userSpaceOnUse" gradientTransform="translate(27.4001 32.7574) rotate(116.378) scale(4.35752 2.271)">
<stop offset="0.145" stop-color="#2C1F4A"/>
<stop offset="1" stop-color="#2C1F4A" stop-opacity="0"/>
</radialGradient>
<radialGradient id="paint37_radial_106_2309" cx="0" cy="0" r="1" gradientUnits="userSpaceOnUse" gradientTransform="translate(40.9295 50.6317) rotate(121.842) scale(3.86768 3.47691)">
<stop offset="0.213" stop-color="#49A3E6"/>
<stop offset="1" stop-color="#2B86DD"/>
</radialGradient>
<radialGradient id="paint38_radial_106_2309" cx="0" cy="0" r="1" gradientUnits="userSpaceOnUse" gradientTransform="translate(39.067 52.6419) rotate(-45) scale(2.25926 1.49253)">
<stop offset="0.204" stop-color="#4C7BBF"/>
<stop offset="1" stop-color="#2C6DBD"/>
</radialGradient>
<linearGradient id="paint39_linear_106_2309" x1="24.7609" y1="41.2323" x2="24.7609" y2="57.8297" gradientUnits="userSpaceOnUse">
<stop stop-color="#554975"/>
<stop offset="1" stop-color="#5F5280"/>
</linearGradient>
<linearGradient id="paint40_linear_106_2309" x1="19.2949" y1="51.3622" x2="21.1108" y2="51.3622" gradientUnits="userSpaceOnUse">
<stop stop-color="#3A97DB"/>
<stop offset="1" stop-color="#49A3E2"/>
</linearGradient>
<radialGradient id="paint41_radial_106_2309" cx="0" cy="0" r="1" gradientUnits="userSpaceOnUse" gradientTransform="translate(20.5461 47.8969) rotate(90) scale(7.10937 0.570253)">
<stop offset="0.442" stop-color="#46A4E7"/>
<stop offset="1" stop-color="#46A4E7" stop-opacity="0"/>
</radialGradient>
<linearGradient id="paint42_linear_106_2309" x1="28.1775" y1="51.3845" x2="29.5425" y2="51.3845" gradientUnits="userSpaceOnUse">
<stop stop-color="#3A97DB"/>
<stop offset="1" stop-color="#49A3E2"/>
</linearGradient>
<linearGradient id="paint43_linear_106_2309" x1="30.3367" y1="50.4034" x2="29.8431" y2="50.4034" gradientUnits="userSpaceOnUse">
<stop stop-color="#3D9AD9"/>
<stop offset="1" stop-color="#3D9AD9" stop-opacity="0"/>
</linearGradient>
<radialGradient id="paint44_radial_106_2309" cx="0" cy="0" r="1" gradientUnits="userSpaceOnUse" gradientTransform="translate(42.1242 24.1667) rotate(69.657) scale(4.37507 5.19724)">
<stop offset="0.215" stop-color="#493B3B"/>
<stop offset="1" stop-color="#311F2C"/>
</radialGradient>
<radialGradient id="paint45_radial_106_2309" cx="0" cy="0" r="1" gradientUnits="userSpaceOnUse" gradientTransform="translate(20.1662 25.1631) rotate(17.4468) scale(3.14368 9.69852)">
<stop stop-color="#4C3C39"/>
<stop offset="0.746" stop-color="#2E1C2E"/>
</radialGradient>
<radialGradient id="paint46_radial_106_2309" cx="0" cy="0" r="1" gradientUnits="userSpaceOnUse" gradientTransform="translate(38.1733 22.2564) rotate(180) scale(9.55709 16.9064)">
<stop stop-color="#C89980"/>
<stop offset="1" stop-color="#926763"/>
</radialGradient>
<radialGradient id="paint47_radial_106_2309" cx="0" cy="0" r="1" gradientUnits="userSpaceOnUse" gradientTransform="translate(37.3971 12.1414) rotate(121.159) scale(6.84324 5.64966)">
<stop offset="0.078" stop-color="#AF887B"/>
<stop offset="1" stop-color="#AF887B" stop-opacity="0"/>
</radialGradient>
<linearGradient id="paint48_linear_106_2309" x1="42.9447" y1="25.6791" x2="37.8076" y2="25.6791" gradientUnits="userSpaceOnUse">
<stop stop-color="#C2987E"/>
<stop offset="1" stop-color="#C2987E" stop-opacity="0"/>
</linearGradient>
<radialGradient id="paint49_radial_106_2309" cx="0" cy="0" r="1" gradientUnits="userSpaceOnUse" gradientTransform="translate(35.683 10.2456) rotate(94.7038) scale(25.3206 20.9684)">
<stop offset="0.767" stop-color="#985682" stop-opacity="0"/>
<stop offset="1" stop-color="#985682"/>
</radialGradient>
<radialGradient id="paint50_radial_106_2309" cx="0" cy="0" r="1" gradientUnits="userSpaceOnUse" gradientTransform="translate(37.44 19.5894) rotate(-90) scale(2.33259 2.88657)">
<stop offset="0.325" stop-color="#AB7872"/>
<stop offset="1" stop-color="#AB7872" stop-opacity="0"/>
</radialGradient>
<radialGradient id="paint51_radial_106_2309" cx="0" cy="0" r="1" gradientUnits="userSpaceOnUse" gradientTransform="translate(27.7976 19.6828) rotate(-89.7942) scale(2.22277 2.41889)">
<stop offset="0.378" stop-color="#8F5D66"/>
<stop offset="1" stop-color="#8F5D66" stop-opacity="0"/>
</radialGradient>
<radialGradient id="paint52_radial_106_2309" cx="0" cy="0" r="1" gradientUnits="userSpaceOnUse" gradientTransform="translate(39.4401 24.2648) rotate(176.388) scale(17.2918 44.172)">
<stop offset="0.836" stop-color="#987064" stop-opacity="0"/>
<stop offset="1" stop-color="#987064"/>
</radialGradient>
<radialGradient id="paint53_radial_106_2309" cx="0" cy="0" r="1" gradientUnits="userSpaceOnUse" gradientTransform="translate(18.6733 16.705) rotate(-40.7411) scale(9.07707 2.68121)">
<stop offset="0.539" stop-color="#63413D"/>
<stop offset="1" stop-color="#63413D" stop-opacity="0"/>
</radialGradient>
<radialGradient id="paint54_radial_106_2309" cx="0" cy="0" r="1" gradientUnits="userSpaceOnUse" gradientTransform="translate(43.7309 16.3293) rotate(95.368) scale(5.09527 2.0368)">
<stop offset="0.245" stop-color="#BF9980"/>
<stop offset="1" stop-color="#BF9980" stop-opacity="0"/>
</radialGradient>
<radialGradient id="paint55_radial_106_2309" cx="0" cy="0" r="1" gradientUnits="userSpaceOnUse" gradientTransform="translate(27.9703 21.2509) rotate(90) scale(1.77042 3.39869)">
<stop stop-color="#9E7765"/>
<stop offset="1" stop-color="#9E7765" stop-opacity="0"/>
</radialGradient>
<linearGradient id="paint56_linear_106_2309" x1="34.1717" y1="23.6255" x2="32.4695" y2="23.6966" gradientUnits="userSpaceOnUse">
<stop offset="0.36" stop-color="#CEA58C"/>
<stop offset="1" stop-color="#CEA58C" stop-opacity="0"/>
</linearGradient>
<radialGradient id="paint57_radial_106_2309" cx="0" cy="0" r="1" gradientUnits="userSpaceOnUse" gradientTransform="translate(33.4161 25.0189) rotate(90) scale(0.495828 1.55833)">
<stop stop-color="#C59A8A"/>
<stop offset="1" stop-color="#C59A8A" stop-opacity="0"/>
</radialGradient>
<linearGradient id="paint58_linear_106_2309" x1="32.4695" y1="25.9411" x2="32.4695" y2="24.9966" gradientUnits="userSpaceOnUse">
<stop stop-color="#9C6376"/>
<stop offset="1" stop-color="#9C6376" stop-opacity="0"/>
</linearGradient>
<radialGradient id="paint59_radial_106_2309" cx="0" cy="0" r="1" gradientUnits="userSpaceOnUse" gradientTransform="translate(33.6517 23.8631) rotate(156.092) scale(3.75958 6.04193)">
<stop offset="0.702" stop-color="#8A5F5C" stop-opacity="0"/>
<stop offset="1" stop-color="#8A5F5C"/>
</radialGradient>
<linearGradient id="paint60_linear_106_2309" x1="32.4695" y1="20.4466" x2="32.4695" y2="21.5556" gradientUnits="userSpaceOnUse">
<stop stop-color="#A4786E"/>
<stop offset="1" stop-color="#A4786E" stop-opacity="0"/>
</linearGradient>
<linearGradient id="paint61_linear_106_2309" x1="33.3145" y1="26.2194" x2="33.3145" y2="25.8294" gradientUnits="userSpaceOnUse">
<stop stop-color="#915468"/>
<stop offset="1" stop-color="#915468" stop-opacity="0"/>
</linearGradient>
<radialGradient id="paint62_radial_106_2309" cx="0" cy="0" r="1" gradientUnits="userSpaceOnUse" gradientTransform="translate(33.3482 23.2733) rotate(136.341) scale(3.60013 5.19584)">
<stop offset="0.888" stop-color="#835753" stop-opacity="0"/>
<stop offset="1" stop-color="#835753"/>
</radialGradient>
<linearGradient id="paint63_linear_106_2309" x1="30.0279" y1="29.1322" x2="30.6759" y2="27.4361" gradientUnits="userSpaceOnUse">
<stop stop-color="#AB817B"/>
<stop offset="1" stop-color="#AB817B" stop-opacity="0"/>
</linearGradient>
<radialGradient id="paint64_radial_106_2309" cx="0" cy="0" r="1" gradientUnits="userSpaceOnUse" gradientTransform="translate(31.4722 29.6156) rotate(-26.18) scale(4.93881 19.8701)">
<stop offset="0.562" stop-color="#87014E"/>
<stop offset="1" stop-color="#87004D"/>
</radialGradient>
<linearGradient id="paint65_linear_106_2309" x1="46.3876" y1="10.7534" x2="22.8008" y2="10.7534" gradientUnits="userSpaceOnUse">
<stop offset="0.471" stop-color="#614440"/>
<stop offset="1" stop-color="#543F3C"/>
</linearGradient>
<radialGradient id="paint66_radial_106_2309" cx="0" cy="0" r="1" gradientUnits="userSpaceOnUse" gradientTransform="translate(20.8752 18.3462) rotate(-69.026) scale(15.553 22.0695)">
<stop stop-color="#604946"/>
<stop offset="1" stop-color="#604946" stop-opacity="0"/>
</radialGradient>
<radialGradient id="paint67_radial_106_2309" cx="0" cy="0" r="1" gradientUnits="userSpaceOnUse" gradientTransform="translate(43.9916 18.4662) rotate(-103.052) scale(13.6654 19.391)">
<stop offset="0.303" stop-color="#604946"/>
<stop offset="1" stop-color="#604946" stop-opacity="0"/>
</radialGradient>
<radialGradient id="paint68_radial_106_2309" cx="0" cy="0" r="1" gradientUnits="userSpaceOnUse" gradientTransform="translate(39.0289 9.7558) rotate(-115.408) scale(5.35921 6.32665)">
<stop stop-color="#765A55"/>
<stop offset="1" stop-color="#765A55" stop-opacity="0"/>
</radialGradient>
<radialGradient id="paint69_radial_106_2309" cx="0" cy="0" r="1" gradientUnits="userSpaceOnUse" gradientTransform="translate(32.9834 7.64766) rotate(180) scale(4.47105 1.65937)">
<stop stop-color="#654647"/>
<stop offset="1" stop-color="#654647" stop-opacity="0"/>
</radialGradient>
<radialGradient id="paint70_radial_106_2309" cx="0" cy="0" r="1" gradientUnits="userSpaceOnUse" gradientTransform="translate(21.4378 15.658) rotate(-57.724) scale(12.2416 13.5624)">
<stop offset="0.093" stop-color="#37192C"/>
<stop offset="0.311" stop-color="#472438"/>
<stop offset="1" stop-color="#472438" stop-opacity="0"/>
</radialGradient>
<radialGradient id="paint71_radial_106_2309" cx="0" cy="0" r="1" gradientUnits="userSpaceOnUse" gradientTransform="translate(36.3675 12.8395) rotate(-38.837) scale(9.1667 14.2064)">
<stop stop-color="#532C3F"/>
<stop offset="0.445" stop-color="#532C3F" stop-opacity="0"/>
</radialGradient>
<radialGradient id="paint72_radial_106_2309" cx="0" cy="0" r="1" gradientUnits="userSpaceOnUse" gradientTransform="translate(37.8198 15.3969) rotate(-41.8289) scale(8.06585 14.7665)">
<stop offset="0.857" stop-color="#685351" stop-opacity="0"/>
<stop offset="1" stop-color="#685351"/>
</radialGradient>
<radialGradient id="paint73_radial_106_2309" cx="0" cy="0" r="1" gradientUnits="userSpaceOnUse" gradientTransform="translate(36.0669 11.6959) rotate(12.6544) scale(6.71443 2.81121)">
<stop stop-color="#4F2B3C"/>
<stop offset="1" stop-color="#4F2B3C" stop-opacity="0"/>
</radialGradient>
<radialGradient id="paint74_radial_106_2309" cx="0" cy="0" r="1" gradientUnits="userSpaceOnUse" gradientTransform="translate(36.9017 20.3937) rotate(90) scale(1.64799 2.62131)">
<stop offset="0.802" stop-color="#7D574A"/>
<stop offset="1" stop-color="#664842"/>
</radialGradient>
<radialGradient id="paint75_radial_106_2309" cx="0" cy="0" r="1" gradientUnits="userSpaceOnUse" gradientTransform="translate(36.4381 20.568) rotate(-127.812) scale(0.768402 1.0579)">
<stop offset="0.766" stop-color="#FFE6E2" stop-opacity="0"/>
<stop offset="0.966" stop-color="#FFE6E2"/>
</radialGradient>
<linearGradient id="paint76_linear_106_2309" x1="38.482" y1="20.5055" x2="37.8442" y2="20.8975" gradientUnits="userSpaceOnUse">
<stop stop-color="#B4948D"/>
<stop offset="1" stop-color="#B4948D" stop-opacity="0"/>
</linearGradient>
<radialGradient id="paint77_radial_106_2309" cx="0" cy="0" r="1" gradientUnits="userSpaceOnUse" gradientTransform="translate(28.0373 20.3937) rotate(90) scale(1.64808 2.62145)">
<stop offset="0.802" stop-color="#7D574A"/>
<stop offset="1" stop-color="#664842"/>
</radialGradient>
<linearGradient id="paint78_linear_106_2309" x1="29.5486" y1="20.5055" x2="28.9108" y2="20.8975" gradientUnits="userSpaceOnUse">
<stop stop-color="#B4948D"/>
<stop offset="1" stop-color="#B4948D" stop-opacity="0"/>
</linearGradient>
<radialGradient id="paint79_radial_106_2309" cx="0" cy="0" r="1" gradientUnits="userSpaceOnUse" gradientTransform="translate(27.7595 20.7804) rotate(-118.811) scale(1.00372 1.20651)">
<stop offset="0.766" stop-color="#FFE6E2" stop-opacity="0"/>
<stop offset="0.966" stop-color="#FFE6E2"/>
</radialGradient>
<linearGradient id="paint80_linear_106_2309" x1="45.5427" y1="20.5583" x2="43.093" y2="24.9803" gradientUnits="userSpaceOnUse">
<stop stop-color="#C9A188"/>
<stop offset="1" stop-color="#B08175"/>
</linearGradient>
<radialGradient id="paint81_radial_106_2309" cx="0" cy="0" r="1" gradientUnits="userSpaceOnUse" gradientTransform="translate(41.8498 20.4242) rotate(74.3475) scale(4.73215 4.51481)">
<stop offset="0.856" stop-color="#9A676A" stop-opacity="0"/>
<stop offset="1" stop-color="#9A676A"/>
</radialGradient>
<radialGradient id="paint82_radial_106_2309" cx="0" cy="0" r="1" gradientUnits="userSpaceOnUse" gradientTransform="translate(42.5811 21.5312) rotate(-53.9198) scale(2.71715 2.27752)">
<stop offset="0.664" stop-color="#9E6A5C"/>
<stop offset="1" stop-color="#9E6A5C" stop-opacity="0"/>
</radialGradient>
<radialGradient id="paint83_radial_106_2309" cx="0" cy="0" r="1" gradientUnits="userSpaceOnUse" gradientTransform="translate(42.8127 21.8806) rotate(-69.263) scale(3.36745 4.49938)">
<stop offset="0.803" stop-color="#A47F62" stop-opacity="0"/>
<stop offset="1" stop-color="#A47F62"/>
</radialGradient>
<linearGradient id="paint84_linear_106_2309" x1="20.5867" y1="21.9883" x2="23.5503" y2="21.7303" gradientUnits="userSpaceOnUse">
<stop stop-color="#855D5A"/>
<stop offset="1" stop-color="#7D4D5B"/>
</linearGradient>
<radialGradient id="paint85_radial_106_2309" cx="0" cy="0" r="1" gradientUnits="userSpaceOnUse" gradientTransform="translate(22.486 21.7262) rotate(180) scale(3.36832 3.76122)">
<stop offset="0.778" stop-color="#9D7667" stop-opacity="0"/>
<stop offset="1" stop-color="#9D7667"/>
</radialGradient>
<radialGradient id="paint86_radial_106_2309" cx="0" cy="0" r="1" gradientUnits="userSpaceOnUse" gradientTransform="translate(22.4879 21.7283) rotate(170.261) scale(1.88882 1.93663)">
<stop stop-color="#714B4D"/>
<stop offset="1" stop-color="#784E52"/>
</radialGradient>
<linearGradient id="paint87_linear_106_2309" x1="43.5459" y1="19.9327" x2="43.5459" y2="23.5016" gradientUnits="userSpaceOnUse">
<stop stop-color="#AC7F6F"/>
<stop offset="1" stop-color="#AD806F"/>
</linearGradient>
</defs>
</svg>
