<svg width="65" height="65" viewBox="0 0 65 65" fill="none" xmlns="http://www.w3.org/2000/svg">
<g filter="url(#filter0_i_106_2817)">
<path d="M34.2001 8.91719C37.102 6.01537 41.0377 4.38514 45.1415 4.38514C49.2453 4.38514 53.181 6.01537 56.0828 8.91719C58.9846 11.819 60.6149 15.7547 60.6149 19.8585C60.6149 23.9623 58.9846 27.898 56.0828 30.7998L30.7998 56.0828C29.363 57.5197 27.6572 58.6594 25.7799 59.437C23.9026 60.2146 21.8905 60.6149 19.8585 60.6149C15.7547 60.6149 11.819 58.9846 8.91718 56.0828C6.01536 53.181 4.38513 49.2453 4.38513 45.1415C4.38513 41.0377 6.01536 37.102 8.91718 34.2002L34.2001 8.91719Z" fill="url(#paint0_linear_106_2817)"/>
<path d="M34.2001 8.91719C37.102 6.01537 41.0377 4.38514 45.1415 4.38514C49.2453 4.38514 53.181 6.01537 56.0828 8.91719C58.9846 11.819 60.6149 15.7547 60.6149 19.8585C60.6149 23.9623 58.9846 27.898 56.0828 30.7998L30.7998 56.0828C29.363 57.5197 27.6572 58.6594 25.7799 59.437C23.9026 60.2146 21.8905 60.6149 19.8585 60.6149C15.7547 60.6149 11.819 58.9846 8.91718 56.0828C6.01536 53.181 4.38513 49.2453 4.38513 45.1415C4.38513 41.0377 6.01536 37.102 8.91718 34.2002L34.2001 8.91719Z" fill="url(#paint1_radial_106_2817)"/>
<path d="M34.2001 8.91719C37.102 6.01537 41.0377 4.38514 45.1415 4.38514C49.2453 4.38514 53.181 6.01537 56.0828 8.91719C58.9846 11.819 60.6149 15.7547 60.6149 19.8585C60.6149 23.9623 58.9846 27.898 56.0828 30.7998L30.7998 56.0828C29.363 57.5197 27.6572 58.6594 25.7799 59.437C23.9026 60.2146 21.8905 60.6149 19.8585 60.6149C15.7547 60.6149 11.819 58.9846 8.91718 56.0828C6.01536 53.181 4.38513 49.2453 4.38513 45.1415C4.38513 41.0377 6.01536 37.102 8.91718 34.2002L34.2001 8.91719Z" fill="url(#paint2_radial_106_2817)"/>
</g>
<path d="M34.2001 8.91719C37.102 6.01537 41.0377 4.38514 45.1415 4.38514C49.2453 4.38514 53.181 6.01537 56.0828 8.91719C58.9846 11.819 60.6149 15.7547 60.6149 19.8585C60.6149 23.9623 58.9846 27.898 56.0828 30.7998L30.7998 56.0828C29.363 57.5197 27.6572 58.6594 25.7799 59.437C23.9026 60.2146 21.8905 60.6149 19.8585 60.6149C15.7547 60.6149 11.819 58.9846 8.91718 56.0828C6.01536 53.181 4.38513 49.2453 4.38513 45.1415C4.38513 41.0377 6.01536 37.102 8.91718 34.2002L34.2001 8.91719Z" fill="url(#paint3_radial_106_2817)"/>
<path d="M43.4098 43.4707L21.5312 21.5901L34.2022 8.91714C37.104 6.01559 41.0396 4.38562 45.1432 4.38581C49.2468 4.38601 53.1823 6.01634 56.0838 8.91816C58.9854 11.82 60.6153 15.7556 60.6152 19.8592C60.615 23.9628 58.9846 27.8983 56.0828 30.7998L43.4078 43.4687L43.4098 43.4707Z" fill="url(#paint4_linear_106_2817)"/>
<path d="M43.4098 43.4707L21.5312 21.5901L34.2022 8.91714C37.104 6.01559 41.0396 4.38562 45.1432 4.38581C49.2468 4.38601 53.1823 6.01634 56.0838 8.91816C58.9854 11.82 60.6153 15.7556 60.6152 19.8592C60.615 23.9628 58.9846 27.8983 56.0828 30.7998L43.4078 43.4687L43.4098 43.4707Z" fill="url(#paint5_linear_106_2817)"/>
<path d="M43.4098 43.4707L21.5312 21.5901L34.2022 8.91714C37.104 6.01559 41.0396 4.38562 45.1432 4.38581C49.2468 4.38601 53.1823 6.01634 56.0838 8.91816C58.9854 11.82 60.6153 15.7556 60.6152 19.8592C60.615 23.9628 58.9846 27.8983 56.0828 30.7998L43.4078 43.4687L43.4098 43.4707Z" fill="url(#paint6_radial_106_2817)"/>
<path d="M43.4098 43.4707L21.5312 21.5901L34.2022 8.91714C37.104 6.01559 41.0396 4.38562 45.1432 4.38581C49.2468 4.38601 53.1823 6.01634 56.0838 8.91816C58.9854 11.82 60.6153 15.7556 60.6152 19.8592C60.615 23.9628 58.9846 27.8983 56.0828 30.7998L43.4078 43.4687L43.4098 43.4707Z" fill="url(#paint7_linear_106_2817)"/>
<path d="M52.4611 24.0216C54.5645 24.0216 56.2697 21.9181 56.2697 19.3233C56.2697 16.7285 54.5645 14.625 52.4611 14.625C50.3576 14.625 48.6525 16.7285 48.6525 19.3233C48.6525 21.9181 50.3576 24.0216 52.4611 24.0216Z" fill="url(#paint8_linear_106_2817)"/>
<defs>
<filter id="filter0_i_106_2817" x="4.38513" y="4.38514" width="57.7297" height="57.7297" filterUnits="userSpaceOnUse" color-interpolation-filters="sRGB">
<feFlood flood-opacity="0" result="BackgroundImageFix"/>
<feBlend mode="normal" in="SourceGraphic" in2="BackgroundImageFix" result="shape"/>
<feColorMatrix in="SourceAlpha" type="matrix" values="0 0 0 0 0 0 0 0 0 0 0 0 0 0 0 0 0 0 127 0" result="hardAlpha"/>
<feOffset dx="1.5" dy="1.5"/>
<feGaussianBlur stdDeviation="2"/>
<feComposite in2="hardAlpha" operator="arithmetic" k2="-1" k3="1"/>
<feColorMatrix type="matrix" values="0 0 0 0 0.733333 0 0 0 0 0.490196 0 0 0 0 0.266667 0 0 0 1 0"/>
<feBlend mode="normal" in2="shape" result="effect1_innerShadow_106_2817"/>
</filter>
<linearGradient id="paint0_linear_106_2817" x1="16.7883" y1="31.2894" x2="35.8312" y2="51.7278" gradientUnits="userSpaceOnUse">
<stop stop-color="#FAA74C"/>
<stop offset="1" stop-color="#FF9E70"/>
</linearGradient>
<radialGradient id="paint1_radial_106_2817" cx="0" cy="0" r="1" gradientUnits="userSpaceOnUse" gradientTransform="translate(28.5936 27.2267) rotate(115.907) scale(34.5784 40.4089)">
<stop offset="0.628" stop-color="#FF7A5B" stop-opacity="0"/>
<stop offset="1" stop-color="#FF7A5B"/>
</radialGradient>
<radialGradient id="paint2_radial_106_2817" cx="0" cy="0" r="1" gradientUnits="userSpaceOnUse" gradientTransform="translate(35.947 32.5) rotate(132.752) scale(22.4175 13.2558)">
<stop stop-color="#FFB266"/>
<stop offset="1" stop-color="#FFB266" stop-opacity="0"/>
</radialGradient>
<radialGradient id="paint3_radial_106_2817" cx="0" cy="0" r="1" gradientUnits="userSpaceOnUse" gradientTransform="translate(22.1142 31.5301) rotate(90.771) scale(30.8529 32.3286)">
<stop offset="0.743" stop-color="#FF78A3" stop-opacity="0"/>
<stop offset="0.968" stop-color="#FF78A3"/>
</radialGradient>
<linearGradient id="paint4_linear_106_2817" x1="54.7463" y1="33.3206" x2="32.7844" y2="11.3587" gradientUnits="userSpaceOnUse">
<stop stop-color="#FD227A"/>
<stop offset="1" stop-color="#D91E4F"/>
</linearGradient>
<linearGradient id="paint5_linear_106_2817" x1="21.5292" y1="17.1437" x2="31.3828" y2="27.2411" gradientUnits="userSpaceOnUse">
<stop stop-color="#AC3F4D"/>
<stop offset="1" stop-color="#AC3F4D" stop-opacity="0"/>
</linearGradient>
<radialGradient id="paint6_radial_106_2817" cx="0" cy="0" r="1" gradientUnits="userSpaceOnUse" gradientTransform="translate(59.1904 15.4839) rotate(158.839) scale(13.796 14.7544)">
<stop stop-color="#FF588F"/>
<stop offset="1" stop-color="#FF588F" stop-opacity="0"/>
</radialGradient>
<linearGradient id="paint7_linear_106_2817" x1="52.2702" y1="37.8929" x2="44.8012" y2="30.1457" gradientUnits="userSpaceOnUse">
<stop offset="0.095" stop-color="#E43A89"/>
<stop offset="1" stop-color="#E43A89" stop-opacity="0"/>
</linearGradient>
<linearGradient id="paint8_linear_106_2817" x1="52.4611" y1="14.627" x2="52.4611" y2="24.9417" gradientUnits="userSpaceOnUse">
<stop offset="0.077" stop-color="#FFFBFF"/>
<stop offset="1" stop-color="#FFFBFF" stop-opacity="0"/>
</linearGradient>
</defs>
</svg>
