<svg width="84" height="17" viewBox="0 0 84 17" fill="none" xmlns="http://www.w3.org/2000/svg">
<path d="M0.264205 16V1.45455H6.00284C7.10133 1.45455 8.03883 1.65104 8.81534 2.04403C9.59659 2.43229 10.1908 2.9839 10.598 3.69886C11.0099 4.40909 11.2159 5.24479 11.2159 6.20597C11.2159 7.17187 11.0076 8.00284 10.5909 8.69886C10.1742 9.39015 9.57055 9.92045 8.77983 10.2898C7.99384 10.6591 7.04214 10.8438 5.92472 10.8438H2.08239V8.37216H5.42756C6.01468 8.37216 6.50237 8.29167 6.89062 8.13068C7.27888 7.9697 7.56771 7.72822 7.7571 7.40625C7.95123 7.08428 8.0483 6.68419 8.0483 6.20597C8.0483 5.72301 7.95123 5.31581 7.7571 4.98438C7.56771 4.65294 7.27652 4.40199 6.88352 4.23153C6.49527 4.05634 6.00521 3.96875 5.41335 3.96875H3.33949V16H0.264205ZM8.11932 9.38068L11.7344 16H8.33949L4.80256 9.38068H8.11932ZM18.1282 16.2131C17.006 16.2131 16.0401 15.9858 15.2305 15.5312C14.4255 15.072 13.8053 14.4233 13.3697 13.5852C12.9341 12.7424 12.7163 11.7457 12.7163 10.5952C12.7163 9.47301 12.9341 8.48816 13.3697 7.64062C13.8053 6.79309 14.4184 6.13258 15.2092 5.65909C16.0046 5.18561 16.9374 4.94886 18.0075 4.94886C18.7272 4.94886 19.3971 5.06487 20.0174 5.29688C20.6424 5.52415 21.1869 5.86742 21.6509 6.3267C22.1197 6.78598 22.4843 7.36364 22.7447 8.05966C23.0051 8.75095 23.1353 9.56061 23.1353 10.4886V11.3196H13.9237V9.4446H20.2873C20.2873 9.009 20.1926 8.62311 20.0032 8.28693C19.8138 7.95076 19.551 7.68797 19.2148 7.49858C18.8834 7.30445 18.4975 7.20739 18.0572 7.20739C17.5979 7.20739 17.1907 7.31392 16.8356 7.52699C16.4852 7.73532 16.2106 8.01705 16.0117 8.37216C15.8129 8.72254 15.7111 9.11316 15.7063 9.54403V11.3267C15.7063 11.8665 15.8058 12.3329 16.0046 12.7259C16.2082 13.1188 16.4947 13.4219 16.864 13.6349C17.2333 13.848 17.6713 13.9545 18.1779 13.9545C18.5141 13.9545 18.8219 13.9072 19.1012 13.8125C19.3806 13.7178 19.6197 13.5758 19.8185 13.3864C20.0174 13.197 20.1689 12.965 20.2731 12.6903L23.0714 12.875C22.9293 13.5473 22.6381 14.1345 22.1978 14.6364C21.7622 15.1335 21.1987 15.5218 20.5075 15.8011C19.8209 16.0758 19.0278 16.2131 18.1282 16.2131ZM30.0387 16.2131C28.9213 16.2131 27.9601 15.9763 27.1552 15.5028C26.355 15.0246 25.7395 14.3617 25.3086 13.5142C24.8825 12.6667 24.6694 11.6913 24.6694 10.5881C24.6694 9.47064 24.8848 8.49053 25.3157 7.64773C25.7513 6.80019 26.3692 6.13968 27.1694 5.66619C27.9696 5.18797 28.9213 4.94886 30.0245 4.94886C30.9762 4.94886 31.8095 5.12169 32.5245 5.46733C33.2395 5.81297 33.8053 6.2983 34.2219 6.9233C34.6386 7.5483 34.8683 8.2822 34.9109 9.125H32.0558C31.9753 8.58049 31.7622 8.14252 31.4165 7.81108C31.0756 7.47491 30.6282 7.30682 30.0742 7.30682C29.6055 7.30682 29.1959 7.43466 28.8455 7.69034C28.4999 7.94129 28.23 8.30824 28.0359 8.79119C27.8417 9.27415 27.7447 9.8589 27.7447 10.5455C27.7447 11.2415 27.8394 11.8333 28.0288 12.321C28.2229 12.8087 28.4951 13.1804 28.8455 13.4361C29.1959 13.6918 29.6055 13.8196 30.0742 13.8196C30.4199 13.8196 30.73 13.7486 31.0046 13.6065C31.284 13.4645 31.5136 13.2585 31.6935 12.9886C31.8782 12.714 31.9989 12.3849 32.0558 12.0014H34.9109C34.8635 12.8348 34.6362 13.5687 34.229 14.2031C33.8266 14.8329 33.2702 15.3253 32.56 15.6804C31.8498 16.0355 31.0094 16.2131 30.0387 16.2131ZM41.8196 16.2131C40.6974 16.2131 39.7315 15.9858 38.9219 15.5312C38.117 15.072 37.4967 14.4233 37.0611 13.5852C36.6255 12.7424 36.4077 11.7457 36.4077 10.5952C36.4077 9.47301 36.6255 8.48816 37.0611 7.64062C37.4967 6.79309 38.1098 6.13258 38.9006 5.65909C39.696 5.18561 40.6288 4.94886 41.6989 4.94886C42.4186 4.94886 43.0885 5.06487 43.7088 5.29688C44.3338 5.52415 44.8783 5.86742 45.3423 6.3267C45.8111 6.78598 46.1757 7.36364 46.4361 8.05966C46.6965 8.75095 46.8267 9.56061 46.8267 10.4886V11.3196H37.6151V9.4446H43.9787C43.9787 9.009 43.884 8.62311 43.6946 8.28693C43.5052 7.95076 43.2424 7.68797 42.9062 7.49858C42.5748 7.30445 42.1889 7.20739 41.7486 7.20739C41.2893 7.20739 40.8821 7.31392 40.527 7.52699C40.1766 7.73532 39.902 8.01705 39.7031 8.37216C39.5043 8.72254 39.4025 9.11316 39.3977 9.54403V11.3267C39.3977 11.8665 39.4972 12.3329 39.696 12.7259C39.8996 13.1188 40.1861 13.4219 40.5554 13.6349C40.9247 13.848 41.3627 13.9545 41.8693 13.9545C42.2055 13.9545 42.5133 13.9072 42.7926 13.8125C43.072 13.7178 43.3111 13.5758 43.5099 13.3864C43.7088 13.197 43.8603 12.965 43.9645 12.6903L46.7628 12.875C46.6207 13.5473 46.3295 14.1345 45.8892 14.6364C45.4536 15.1335 44.8902 15.5218 44.1989 15.8011C43.5123 16.0758 42.7192 16.2131 41.8196 16.2131ZM48.8011 16V5.09091H51.8267V16H48.8011ZM50.321 3.68466C49.8712 3.68466 49.4853 3.53551 49.1634 3.23722C48.8461 2.93419 48.6875 2.57197 48.6875 2.15057C48.6875 1.7339 48.8461 1.37642 49.1634 1.07812C49.4853 0.775094 49.8712 0.623579 50.321 0.623579C50.7708 0.623579 51.1544 0.775094 51.4716 1.07812C51.7936 1.37642 51.9545 1.7339 51.9545 2.15057C51.9545 2.57197 51.7936 2.93419 51.4716 3.23722C51.1544 3.53551 50.7708 3.68466 50.321 3.68466ZM60.0529 5.09091V7.36364H53.4833V5.09091H60.0529ZM54.9748 2.47727H58.0004V12.6477C58.0004 12.9271 58.043 13.1449 58.1282 13.3011C58.2134 13.4527 58.3318 13.5592 58.4833 13.6207C58.6396 13.6823 58.8195 13.7131 59.0231 13.7131C59.1651 13.7131 59.3072 13.7012 59.4492 13.6776C59.5913 13.6491 59.7002 13.6278 59.7759 13.6136L60.2518 15.8651C60.1003 15.9124 59.8872 15.9669 59.6126 16.0284C59.3379 16.0947 59.0041 16.1349 58.6112 16.1491C57.882 16.1776 57.2428 16.0805 56.6935 15.858C56.149 15.6354 55.7253 15.2898 55.4222 14.821C55.1192 14.3523 54.9701 13.7604 54.9748 13.0455V2.47727ZM66.8782 16.2131C65.756 16.2131 64.7901 15.9858 63.9805 15.5312C63.1755 15.072 62.5553 14.4233 62.1197 13.5852C61.6841 12.7424 61.4663 11.7457 61.4663 10.5952C61.4663 9.47301 61.6841 8.48816 62.1197 7.64062C62.5553 6.79309 63.1684 6.13258 63.9592 5.65909C64.7546 5.18561 65.6874 4.94886 66.7575 4.94886C67.4772 4.94886 68.1471 5.06487 68.7674 5.29688C69.3924 5.52415 69.9369 5.86742 70.4009 6.3267C70.8697 6.78598 71.2343 7.36364 71.4947 8.05966C71.7551 8.75095 71.8853 9.56061 71.8853 10.4886V11.3196H62.6737V9.4446H69.0373C69.0373 9.009 68.9426 8.62311 68.7532 8.28693C68.5638 7.95076 68.301 7.68797 67.9648 7.49858C67.6334 7.30445 67.2475 7.20739 66.8072 7.20739C66.3479 7.20739 65.9407 7.31392 65.5856 7.52699C65.2352 7.73532 64.9606 8.01705 64.7617 8.37216C64.5629 8.72254 64.4611 9.11316 64.4563 9.54403V11.3267C64.4563 11.8665 64.5558 12.3329 64.7546 12.7259C64.9582 13.1188 65.2447 13.4219 65.614 13.6349C65.9833 13.848 66.4213 13.9545 66.9279 13.9545C67.2641 13.9545 67.5719 13.9072 67.8512 13.8125C68.1306 13.7178 68.3697 13.5758 68.5685 13.3864C68.7674 13.197 68.9189 12.965 69.0231 12.6903L71.8214 12.875C71.6793 13.5473 71.3881 14.1345 70.9478 14.6364C70.5122 15.1335 69.9487 15.5218 69.2575 15.8011C68.5709 16.0758 67.7778 16.2131 66.8782 16.2131ZM76.1928 5.09091L78.1957 8.90483L80.2482 5.09091H83.3519L80.1914 10.5455L83.4371 16H80.3477L78.1957 12.2287L76.0792 16H72.9542L76.1928 10.5455L73.0678 5.09091H76.1928Z" fill="#0047FF"/>
</svg>
