<svg width="32" height="32" viewBox="0 0 32 32" fill="none" xmlns="http://www.w3.org/2000/svg">
<path d="M3.2 20.8V1.6C3.2 1.17565 3.36857 0.768687 3.66863 0.468629C3.96869 0.168571 4.37565 0 4.8 0H30.4C30.8243 0 31.2313 0.168571 31.5314 0.468629C31.8314 0.768687 32 1.17565 32 1.6V27.2C32 28.473 31.4943 29.6939 30.5941 30.5941C29.6939 31.4943 28.473 32 27.2 32H4.8C3.52696 32 2.30606 31.4943 1.40589 30.5941C0.505713 29.6939 0 28.473 0 27.2V24H25.6V27.2C25.6 27.6243 25.7686 28.0313 26.0686 28.3314C26.3687 28.6314 26.7757 28.8 27.2 28.8C27.6243 28.8 28.0313 28.6314 28.3314 28.3314C28.6314 28.0313 28.8 27.6243 28.8 27.2V11.2566L3.2 20.8Z" fill="#0047FF"/>
</svg>
