<svg width="65" height="65" viewBox="0 0 65 65" fill="none" xmlns="http://www.w3.org/2000/svg">
<g filter="url(#filter0_i_104_319)">
<path fill-rule="evenodd" clip-rule="evenodd" d="M59.7106 41.8641C60.526 40.18 60.9456 38.3319 60.9375 36.4609C60.9375 34.6917 60.5719 33.0302 59.9219 31.5169H59.9422C59.6471 30.8382 59.2901 30.1882 58.8758 29.575L58.8677 29.5628C57.5665 27.5679 56.8741 25.2374 56.875 22.8556V22.817C56.8745 19.5039 55.5582 16.3265 53.2157 13.9836C50.8731 11.6407 47.696 10.3239 44.3828 10.3228C43.6922 10.3228 43.0402 10.0181 42.6563 9.44125C41.4978 7.82953 39.9727 6.51636 38.2068 5.61011C36.4409 4.70385 34.4849 4.23049 32.5 4.22906C30.5151 4.23049 28.5591 4.70385 26.7932 5.61011C25.0273 6.51636 23.5022 7.82953 22.3438 9.44125C21.9599 9.9775 21.3078 10.3228 20.6172 10.3228C20.5116 10.3228 20.4039 10.3228 20.2963 10.3269C17.0397 10.4116 13.9451 11.7646 11.6716 14.0977C9.39806 16.4308 8.12549 19.5594 8.12501 22.817V22.8556C8.12501 25.2322 7.43438 27.5681 6.13235 29.5628L6.12219 29.577C4.77627 31.6204 4.06008 34.0141 4.06251 36.4609C4.06251 38.415 4.52157 40.2167 5.28938 41.8641C5.42193 42.1325 5.49088 42.4279 5.49088 42.7273C5.49088 43.0268 5.42193 43.3222 5.28938 43.5906C4.48842 45.2515 4.06922 47.0706 4.06251 48.9145C4.06251 55.6583 9.50626 61.102 16.25 61.102H48.75C55.4938 61.102 60.9375 55.6583 60.9375 48.9145C60.9317 47.0692 60.5125 45.2486 59.7106 43.5866C59.5784 43.3184 59.5096 43.0233 59.5096 42.7243C59.5096 42.4253 59.5784 42.1302 59.7106 41.862V41.8641ZM13.2803 31.7444H13.2336L17.7734 40.6656C18.2406 51.2789 22.3844 40.6656 32.5 40.6656C42.6156 40.6656 47.0275 52.4773 47.4947 41.8641L51.7969 29.7578C51.5938 25.0433 48.1772 24.7122 47.4947 24.7122H35.3031C32.9266 24.7165 30.5848 24.1417 28.4803 23.0374C26.3759 21.9332 24.5722 20.3328 23.2253 18.3747C23.1227 18.2268 22.982 18.1093 22.8182 18.0347C22.6543 17.9601 22.4734 17.9312 22.2944 17.9509C22.1155 17.9707 21.9452 18.0384 21.8016 18.147C21.6579 18.2556 21.5463 18.4009 21.4784 18.5677L21.1656 19.303C20.3215 21.3821 18.7087 23.056 16.6623 23.9769C16.6014 23.9972 16.5344 24.0256 16.4674 24.0541C16.4034 24.0823 16.3383 24.1081 16.2723 24.1313C15.3786 24.5964 13.2823 25.9858 13.2052 29.5811L13.2458 30.7389L13.2803 31.7444Z" fill="url(#paint0_linear_104_319)"/>
<path fill-rule="evenodd" clip-rule="evenodd" d="M59.7106 41.8641C60.526 40.18 60.9456 38.3319 60.9375 36.4609C60.9375 34.6917 60.5719 33.0302 59.9219 31.5169H59.9422C59.6471 30.8382 59.2901 30.1882 58.8758 29.575L58.8677 29.5628C57.5665 27.5679 56.8741 25.2374 56.875 22.8556V22.817C56.8745 19.5039 55.5582 16.3265 53.2157 13.9836C50.8731 11.6407 47.696 10.3239 44.3828 10.3228C43.6922 10.3228 43.0402 10.0181 42.6563 9.44125C41.4978 7.82953 39.9727 6.51636 38.2068 5.61011C36.4409 4.70385 34.4849 4.23049 32.5 4.22906C30.5151 4.23049 28.5591 4.70385 26.7932 5.61011C25.0273 6.51636 23.5022 7.82953 22.3438 9.44125C21.9599 9.9775 21.3078 10.3228 20.6172 10.3228C20.5116 10.3228 20.4039 10.3228 20.2963 10.3269C17.0397 10.4116 13.9451 11.7646 11.6716 14.0977C9.39806 16.4308 8.12549 19.5594 8.12501 22.817V22.8556C8.12501 25.2322 7.43438 27.5681 6.13235 29.5628L6.12219 29.577C4.77627 31.6204 4.06008 34.0141 4.06251 36.4609C4.06251 38.415 4.52157 40.2167 5.28938 41.8641C5.42193 42.1325 5.49088 42.4279 5.49088 42.7273C5.49088 43.0268 5.42193 43.3222 5.28938 43.5906C4.48842 45.2515 4.06922 47.0706 4.06251 48.9145C4.06251 55.6583 9.50626 61.102 16.25 61.102H48.75C55.4938 61.102 60.9375 55.6583 60.9375 48.9145C60.9317 47.0692 60.5125 45.2486 59.7106 43.5866C59.5784 43.3184 59.5096 43.0233 59.5096 42.7243C59.5096 42.4253 59.5784 42.1302 59.7106 41.862V41.8641ZM13.2803 31.7444H13.2336L17.7734 40.6656C18.2406 51.2789 22.3844 40.6656 32.5 40.6656C42.6156 40.6656 47.0275 52.4773 47.4947 41.8641L51.7969 29.7578C51.5938 25.0433 48.1772 24.7122 47.4947 24.7122H35.3031C32.9266 24.7165 30.5848 24.1417 28.4803 23.0374C26.3759 21.9332 24.5722 20.3328 23.2253 18.3747C23.1227 18.2268 22.982 18.1093 22.8182 18.0347C22.6543 17.9601 22.4734 17.9312 22.2944 17.9509C22.1155 17.9707 21.9452 18.0384 21.8016 18.147C21.6579 18.2556 21.5463 18.4009 21.4784 18.5677L21.1656 19.303C20.3215 21.3821 18.7087 23.056 16.6623 23.9769C16.6014 23.9972 16.5344 24.0256 16.4674 24.0541C16.4034 24.0823 16.3383 24.1081 16.2723 24.1313C15.3786 24.5964 13.2823 25.9858 13.2052 29.5811L13.2458 30.7389L13.2803 31.7444Z" fill="url(#paint1_radial_104_319)"/>
<path fill-rule="evenodd" clip-rule="evenodd" d="M59.7106 41.8641C60.526 40.18 60.9456 38.3319 60.9375 36.4609C60.9375 34.6917 60.5719 33.0302 59.9219 31.5169H59.9422C59.6471 30.8382 59.2901 30.1882 58.8758 29.575L58.8677 29.5628C57.5665 27.5679 56.8741 25.2374 56.875 22.8556V22.817C56.8745 19.5039 55.5582 16.3265 53.2157 13.9836C50.8731 11.6407 47.696 10.3239 44.3828 10.3228C43.6922 10.3228 43.0402 10.0181 42.6563 9.44125C41.4978 7.82953 39.9727 6.51636 38.2068 5.61011C36.4409 4.70385 34.4849 4.23049 32.5 4.22906C30.5151 4.23049 28.5591 4.70385 26.7932 5.61011C25.0273 6.51636 23.5022 7.82953 22.3438 9.44125C21.9599 9.9775 21.3078 10.3228 20.6172 10.3228C20.5116 10.3228 20.4039 10.3228 20.2963 10.3269C17.0397 10.4116 13.9451 11.7646 11.6716 14.0977C9.39806 16.4308 8.12549 19.5594 8.12501 22.817V22.8556C8.12501 25.2322 7.43438 27.5681 6.13235 29.5628L6.12219 29.577C4.77627 31.6204 4.06008 34.0141 4.06251 36.4609C4.06251 38.415 4.52157 40.2167 5.28938 41.8641C5.42193 42.1325 5.49088 42.4279 5.49088 42.7273C5.49088 43.0268 5.42193 43.3222 5.28938 43.5906C4.48842 45.2515 4.06922 47.0706 4.06251 48.9145C4.06251 55.6583 9.50626 61.102 16.25 61.102H48.75C55.4938 61.102 60.9375 55.6583 60.9375 48.9145C60.9317 47.0692 60.5125 45.2486 59.7106 43.5866C59.5784 43.3184 59.5096 43.0233 59.5096 42.7243C59.5096 42.4253 59.5784 42.1302 59.7106 41.862V41.8641ZM13.2803 31.7444H13.2336L17.7734 40.6656C18.2406 51.2789 22.3844 40.6656 32.5 40.6656C42.6156 40.6656 47.0275 52.4773 47.4947 41.8641L51.7969 29.7578C51.5938 25.0433 48.1772 24.7122 47.4947 24.7122H35.3031C32.9266 24.7165 30.5848 24.1417 28.4803 23.0374C26.3759 21.9332 24.5722 20.3328 23.2253 18.3747C23.1227 18.2268 22.982 18.1093 22.8182 18.0347C22.6543 17.9601 22.4734 17.9312 22.2944 17.9509C22.1155 17.9707 21.9452 18.0384 21.8016 18.147C21.6579 18.2556 21.5463 18.4009 21.4784 18.5677L21.1656 19.303C20.3215 21.3821 18.7087 23.056 16.6623 23.9769C16.6014 23.9972 16.5344 24.0256 16.4674 24.0541C16.4034 24.0823 16.3383 24.1081 16.2723 24.1313C15.3786 24.5964 13.2823 25.9858 13.2052 29.5811L13.2458 30.7389L13.2803 31.7444Z" fill="url(#paint2_radial_104_319)"/>
<path fill-rule="evenodd" clip-rule="evenodd" d="M59.7106 41.8641C60.526 40.18 60.9456 38.3319 60.9375 36.4609C60.9375 34.6917 60.5719 33.0302 59.9219 31.5169H59.9422C59.6471 30.8382 59.2901 30.1882 58.8758 29.575L58.8677 29.5628C57.5665 27.5679 56.8741 25.2374 56.875 22.8556V22.817C56.8745 19.5039 55.5582 16.3265 53.2157 13.9836C50.8731 11.6407 47.696 10.3239 44.3828 10.3228C43.6922 10.3228 43.0402 10.0181 42.6563 9.44125C41.4978 7.82953 39.9727 6.51636 38.2068 5.61011C36.4409 4.70385 34.4849 4.23049 32.5 4.22906C30.5151 4.23049 28.5591 4.70385 26.7932 5.61011C25.0273 6.51636 23.5022 7.82953 22.3438 9.44125C21.9599 9.9775 21.3078 10.3228 20.6172 10.3228C20.5116 10.3228 20.4039 10.3228 20.2963 10.3269C17.0397 10.4116 13.9451 11.7646 11.6716 14.0977C9.39806 16.4308 8.12549 19.5594 8.12501 22.817V22.8556C8.12501 25.2322 7.43438 27.5681 6.13235 29.5628L6.12219 29.577C4.77627 31.6204 4.06008 34.0141 4.06251 36.4609C4.06251 38.415 4.52157 40.2167 5.28938 41.8641C5.42193 42.1325 5.49088 42.4279 5.49088 42.7273C5.49088 43.0268 5.42193 43.3222 5.28938 43.5906C4.48842 45.2515 4.06922 47.0706 4.06251 48.9145C4.06251 55.6583 9.50626 61.102 16.25 61.102H48.75C55.4938 61.102 60.9375 55.6583 60.9375 48.9145C60.9317 47.0692 60.5125 45.2486 59.7106 43.5866C59.5784 43.3184 59.5096 43.0233 59.5096 42.7243C59.5096 42.4253 59.5784 42.1302 59.7106 41.862V41.8641ZM13.2803 31.7444H13.2336L17.7734 40.6656C18.2406 51.2789 22.3844 40.6656 32.5 40.6656C42.6156 40.6656 47.0275 52.4773 47.4947 41.8641L51.7969 29.7578C51.5938 25.0433 48.1772 24.7122 47.4947 24.7122H35.3031C32.9266 24.7165 30.5848 24.1417 28.4803 23.0374C26.3759 21.9332 24.5722 20.3328 23.2253 18.3747C23.1227 18.2268 22.982 18.1093 22.8182 18.0347C22.6543 17.9601 22.4734 17.9312 22.2944 17.9509C22.1155 17.9707 21.9452 18.0384 21.8016 18.147C21.6579 18.2556 21.5463 18.4009 21.4784 18.5677L21.1656 19.303C20.3215 21.3821 18.7087 23.056 16.6623 23.9769C16.6014 23.9972 16.5344 24.0256 16.4674 24.0541C16.4034 24.0823 16.3383 24.1081 16.2723 24.1313C15.3786 24.5964 13.2823 25.9858 13.2052 29.5811L13.2458 30.7389L13.2803 31.7444Z" fill="url(#paint3_radial_104_319)"/>
<path fill-rule="evenodd" clip-rule="evenodd" d="M59.7106 41.8641C60.526 40.18 60.9456 38.3319 60.9375 36.4609C60.9375 34.6917 60.5719 33.0302 59.9219 31.5169H59.9422C59.6471 30.8382 59.2901 30.1882 58.8758 29.575L58.8677 29.5628C57.5665 27.5679 56.8741 25.2374 56.875 22.8556V22.817C56.8745 19.5039 55.5582 16.3265 53.2157 13.9836C50.8731 11.6407 47.696 10.3239 44.3828 10.3228C43.6922 10.3228 43.0402 10.0181 42.6563 9.44125C41.4978 7.82953 39.9727 6.51636 38.2068 5.61011C36.4409 4.70385 34.4849 4.23049 32.5 4.22906C30.5151 4.23049 28.5591 4.70385 26.7932 5.61011C25.0273 6.51636 23.5022 7.82953 22.3438 9.44125C21.9599 9.9775 21.3078 10.3228 20.6172 10.3228C20.5116 10.3228 20.4039 10.3228 20.2963 10.3269C17.0397 10.4116 13.9451 11.7646 11.6716 14.0977C9.39806 16.4308 8.12549 19.5594 8.12501 22.817V22.8556C8.12501 25.2322 7.43438 27.5681 6.13235 29.5628L6.12219 29.577C4.77627 31.6204 4.06008 34.0141 4.06251 36.4609C4.06251 38.415 4.52157 40.2167 5.28938 41.8641C5.42193 42.1325 5.49088 42.4279 5.49088 42.7273C5.49088 43.0268 5.42193 43.3222 5.28938 43.5906C4.48842 45.2515 4.06922 47.0706 4.06251 48.9145C4.06251 55.6583 9.50626 61.102 16.25 61.102H48.75C55.4938 61.102 60.9375 55.6583 60.9375 48.9145C60.9317 47.0692 60.5125 45.2486 59.7106 43.5866C59.5784 43.3184 59.5096 43.0233 59.5096 42.7243C59.5096 42.4253 59.5784 42.1302 59.7106 41.862V41.8641ZM13.2803 31.7444H13.2336L17.7734 40.6656C18.2406 51.2789 22.3844 40.6656 32.5 40.6656C42.6156 40.6656 47.0275 52.4773 47.4947 41.8641L51.7969 29.7578C51.5938 25.0433 48.1772 24.7122 47.4947 24.7122H35.3031C32.9266 24.7165 30.5848 24.1417 28.4803 23.0374C26.3759 21.9332 24.5722 20.3328 23.2253 18.3747C23.1227 18.2268 22.982 18.1093 22.8182 18.0347C22.6543 17.9601 22.4734 17.9312 22.2944 17.9509C22.1155 17.9707 21.9452 18.0384 21.8016 18.147C21.6579 18.2556 21.5463 18.4009 21.4784 18.5677L21.1656 19.303C20.3215 21.3821 18.7087 23.056 16.6623 23.9769C16.6014 23.9972 16.5344 24.0256 16.4674 24.0541C16.4034 24.0823 16.3383 24.1081 16.2723 24.1313C15.3786 24.5964 13.2823 25.9858 13.2052 29.5811L13.2458 30.7389L13.2803 31.7444Z" fill="url(#paint4_radial_104_319)"/>
<path fill-rule="evenodd" clip-rule="evenodd" d="M59.7106 41.8641C60.526 40.18 60.9456 38.3319 60.9375 36.4609C60.9375 34.6917 60.5719 33.0302 59.9219 31.5169H59.9422C59.6471 30.8382 59.2901 30.1882 58.8758 29.575L58.8677 29.5628C57.5665 27.5679 56.8741 25.2374 56.875 22.8556V22.817C56.8745 19.5039 55.5582 16.3265 53.2157 13.9836C50.8731 11.6407 47.696 10.3239 44.3828 10.3228C43.6922 10.3228 43.0402 10.0181 42.6563 9.44125C41.4978 7.82953 39.9727 6.51636 38.2068 5.61011C36.4409 4.70385 34.4849 4.23049 32.5 4.22906C30.5151 4.23049 28.5591 4.70385 26.7932 5.61011C25.0273 6.51636 23.5022 7.82953 22.3438 9.44125C21.9599 9.9775 21.3078 10.3228 20.6172 10.3228C20.5116 10.3228 20.4039 10.3228 20.2963 10.3269C17.0397 10.4116 13.9451 11.7646 11.6716 14.0977C9.39806 16.4308 8.12549 19.5594 8.12501 22.817V22.8556C8.12501 25.2322 7.43438 27.5681 6.13235 29.5628L6.12219 29.577C4.77627 31.6204 4.06008 34.0141 4.06251 36.4609C4.06251 38.415 4.52157 40.2167 5.28938 41.8641C5.42193 42.1325 5.49088 42.4279 5.49088 42.7273C5.49088 43.0268 5.42193 43.3222 5.28938 43.5906C4.48842 45.2515 4.06922 47.0706 4.06251 48.9145C4.06251 55.6583 9.50626 61.102 16.25 61.102H48.75C55.4938 61.102 60.9375 55.6583 60.9375 48.9145C60.9317 47.0692 60.5125 45.2486 59.7106 43.5866C59.5784 43.3184 59.5096 43.0233 59.5096 42.7243C59.5096 42.4253 59.5784 42.1302 59.7106 41.862V41.8641ZM13.2803 31.7444H13.2336L17.7734 40.6656C18.2406 51.2789 22.3844 40.6656 32.5 40.6656C42.6156 40.6656 47.0275 52.4773 47.4947 41.8641L51.7969 29.7578C51.5938 25.0433 48.1772 24.7122 47.4947 24.7122H35.3031C32.9266 24.7165 30.5848 24.1417 28.4803 23.0374C26.3759 21.9332 24.5722 20.3328 23.2253 18.3747C23.1227 18.2268 22.982 18.1093 22.8182 18.0347C22.6543 17.9601 22.4734 17.9312 22.2944 17.9509C22.1155 17.9707 21.9452 18.0384 21.8016 18.147C21.6579 18.2556 21.5463 18.4009 21.4784 18.5677L21.1656 19.303C20.3215 21.3821 18.7087 23.056 16.6623 23.9769C16.6014 23.9972 16.5344 24.0256 16.4674 24.0541C16.4034 24.0823 16.3383 24.1081 16.2723 24.1313C15.3786 24.5964 13.2823 25.9858 13.2052 29.5811L13.2458 30.7389L13.2803 31.7444Z" fill="url(#paint5_radial_104_319)"/>
<path fill-rule="evenodd" clip-rule="evenodd" d="M59.7106 41.8641C60.526 40.18 60.9456 38.3319 60.9375 36.4609C60.9375 34.6917 60.5719 33.0302 59.9219 31.5169H59.9422C59.6471 30.8382 59.2901 30.1882 58.8758 29.575L58.8677 29.5628C57.5665 27.5679 56.8741 25.2374 56.875 22.8556V22.817C56.8745 19.5039 55.5582 16.3265 53.2157 13.9836C50.8731 11.6407 47.696 10.3239 44.3828 10.3228C43.6922 10.3228 43.0402 10.0181 42.6563 9.44125C41.4978 7.82953 39.9727 6.51636 38.2068 5.61011C36.4409 4.70385 34.4849 4.23049 32.5 4.22906C30.5151 4.23049 28.5591 4.70385 26.7932 5.61011C25.0273 6.51636 23.5022 7.82953 22.3438 9.44125C21.9599 9.9775 21.3078 10.3228 20.6172 10.3228C20.5116 10.3228 20.4039 10.3228 20.2963 10.3269C17.0397 10.4116 13.9451 11.7646 11.6716 14.0977C9.39806 16.4308 8.12549 19.5594 8.12501 22.817V22.8556C8.12501 25.2322 7.43438 27.5681 6.13235 29.5628L6.12219 29.577C4.77627 31.6204 4.06008 34.0141 4.06251 36.4609C4.06251 38.415 4.52157 40.2167 5.28938 41.8641C5.42193 42.1325 5.49088 42.4279 5.49088 42.7273C5.49088 43.0268 5.42193 43.3222 5.28938 43.5906C4.48842 45.2515 4.06922 47.0706 4.06251 48.9145C4.06251 55.6583 9.50626 61.102 16.25 61.102H48.75C55.4938 61.102 60.9375 55.6583 60.9375 48.9145C60.9317 47.0692 60.5125 45.2486 59.7106 43.5866C59.5784 43.3184 59.5096 43.0233 59.5096 42.7243C59.5096 42.4253 59.5784 42.1302 59.7106 41.862V41.8641ZM13.2803 31.7444H13.2336L17.7734 40.6656C18.2406 51.2789 22.3844 40.6656 32.5 40.6656C42.6156 40.6656 47.0275 52.4773 47.4947 41.8641L51.7969 29.7578C51.5938 25.0433 48.1772 24.7122 47.4947 24.7122H35.3031C32.9266 24.7165 30.5848 24.1417 28.4803 23.0374C26.3759 21.9332 24.5722 20.3328 23.2253 18.3747C23.1227 18.2268 22.982 18.1093 22.8182 18.0347C22.6543 17.9601 22.4734 17.9312 22.2944 17.9509C22.1155 17.9707 21.9452 18.0384 21.8016 18.147C21.6579 18.2556 21.5463 18.4009 21.4784 18.5677L21.1656 19.303C20.3215 21.3821 18.7087 23.056 16.6623 23.9769C16.6014 23.9972 16.5344 24.0256 16.4674 24.0541C16.4034 24.0823 16.3383 24.1081 16.2723 24.1313C15.3786 24.5964 13.2823 25.9858 13.2052 29.5811L13.2458 30.7389L13.2803 31.7444Z" fill="url(#paint6_radial_104_319)"/>
<path fill-rule="evenodd" clip-rule="evenodd" d="M59.7106 41.8641C60.526 40.18 60.9456 38.3319 60.9375 36.4609C60.9375 34.6917 60.5719 33.0302 59.9219 31.5169H59.9422C59.6471 30.8382 59.2901 30.1882 58.8758 29.575L58.8677 29.5628C57.5665 27.5679 56.8741 25.2374 56.875 22.8556V22.817C56.8745 19.5039 55.5582 16.3265 53.2157 13.9836C50.8731 11.6407 47.696 10.3239 44.3828 10.3228C43.6922 10.3228 43.0402 10.0181 42.6563 9.44125C41.4978 7.82953 39.9727 6.51636 38.2068 5.61011C36.4409 4.70385 34.4849 4.23049 32.5 4.22906C30.5151 4.23049 28.5591 4.70385 26.7932 5.61011C25.0273 6.51636 23.5022 7.82953 22.3438 9.44125C21.9599 9.9775 21.3078 10.3228 20.6172 10.3228C20.5116 10.3228 20.4039 10.3228 20.2963 10.3269C17.0397 10.4116 13.9451 11.7646 11.6716 14.0977C9.39806 16.4308 8.12549 19.5594 8.12501 22.817V22.8556C8.12501 25.2322 7.43438 27.5681 6.13235 29.5628L6.12219 29.577C4.77627 31.6204 4.06008 34.0141 4.06251 36.4609C4.06251 38.415 4.52157 40.2167 5.28938 41.8641C5.42193 42.1325 5.49088 42.4279 5.49088 42.7273C5.49088 43.0268 5.42193 43.3222 5.28938 43.5906C4.48842 45.2515 4.06922 47.0706 4.06251 48.9145C4.06251 55.6583 9.50626 61.102 16.25 61.102H48.75C55.4938 61.102 60.9375 55.6583 60.9375 48.9145C60.9317 47.0692 60.5125 45.2486 59.7106 43.5866C59.5784 43.3184 59.5096 43.0233 59.5096 42.7243C59.5096 42.4253 59.5784 42.1302 59.7106 41.862V41.8641ZM13.2803 31.7444H13.2336L17.7734 40.6656C18.2406 51.2789 22.3844 40.6656 32.5 40.6656C42.6156 40.6656 47.0275 52.4773 47.4947 41.8641L51.7969 29.7578C51.5938 25.0433 48.1772 24.7122 47.4947 24.7122H35.3031C32.9266 24.7165 30.5848 24.1417 28.4803 23.0374C26.3759 21.9332 24.5722 20.3328 23.2253 18.3747C23.1227 18.2268 22.982 18.1093 22.8182 18.0347C22.6543 17.9601 22.4734 17.9312 22.2944 17.9509C22.1155 17.9707 21.9452 18.0384 21.8016 18.147C21.6579 18.2556 21.5463 18.4009 21.4784 18.5677L21.1656 19.303C20.3215 21.3821 18.7087 23.056 16.6623 23.9769C16.6014 23.9972 16.5344 24.0256 16.4674 24.0541C16.4034 24.0823 16.3383 24.1081 16.2723 24.1313C15.3786 24.5964 13.2823 25.9858 13.2052 29.5811L13.2458 30.7389L13.2803 31.7444Z" fill="url(#paint7_radial_104_319)"/>
<path fill-rule="evenodd" clip-rule="evenodd" d="M59.7106 41.8641C60.526 40.18 60.9456 38.3319 60.9375 36.4609C60.9375 34.6917 60.5719 33.0302 59.9219 31.5169H59.9422C59.6471 30.8382 59.2901 30.1882 58.8758 29.575L58.8677 29.5628C57.5665 27.5679 56.8741 25.2374 56.875 22.8556V22.817C56.8745 19.5039 55.5582 16.3265 53.2157 13.9836C50.8731 11.6407 47.696 10.3239 44.3828 10.3228C43.6922 10.3228 43.0402 10.0181 42.6563 9.44125C41.4978 7.82953 39.9727 6.51636 38.2068 5.61011C36.4409 4.70385 34.4849 4.23049 32.5 4.22906C30.5151 4.23049 28.5591 4.70385 26.7932 5.61011C25.0273 6.51636 23.5022 7.82953 22.3438 9.44125C21.9599 9.9775 21.3078 10.3228 20.6172 10.3228C20.5116 10.3228 20.4039 10.3228 20.2963 10.3269C17.0397 10.4116 13.9451 11.7646 11.6716 14.0977C9.39806 16.4308 8.12549 19.5594 8.12501 22.817V22.8556C8.12501 25.2322 7.43438 27.5681 6.13235 29.5628L6.12219 29.577C4.77627 31.6204 4.06008 34.0141 4.06251 36.4609C4.06251 38.415 4.52157 40.2167 5.28938 41.8641C5.42193 42.1325 5.49088 42.4279 5.49088 42.7273C5.49088 43.0268 5.42193 43.3222 5.28938 43.5906C4.48842 45.2515 4.06922 47.0706 4.06251 48.9145C4.06251 55.6583 9.50626 61.102 16.25 61.102H48.75C55.4938 61.102 60.9375 55.6583 60.9375 48.9145C60.9317 47.0692 60.5125 45.2486 59.7106 43.5866C59.5784 43.3184 59.5096 43.0233 59.5096 42.7243C59.5096 42.4253 59.5784 42.1302 59.7106 41.862V41.8641ZM13.2803 31.7444H13.2336L17.7734 40.6656C18.2406 51.2789 22.3844 40.6656 32.5 40.6656C42.6156 40.6656 47.0275 52.4773 47.4947 41.8641L51.7969 29.7578C51.5938 25.0433 48.1772 24.7122 47.4947 24.7122H35.3031C32.9266 24.7165 30.5848 24.1417 28.4803 23.0374C26.3759 21.9332 24.5722 20.3328 23.2253 18.3747C23.1227 18.2268 22.982 18.1093 22.8182 18.0347C22.6543 17.9601 22.4734 17.9312 22.2944 17.9509C22.1155 17.9707 21.9452 18.0384 21.8016 18.147C21.6579 18.2556 21.5463 18.4009 21.4784 18.5677L21.1656 19.303C20.3215 21.3821 18.7087 23.056 16.6623 23.9769C16.6014 23.9972 16.5344 24.0256 16.4674 24.0541C16.4034 24.0823 16.3383 24.1081 16.2723 24.1313C15.3786 24.5964 13.2823 25.9858 13.2052 29.5811L13.2458 30.7389L13.2803 31.7444Z" fill="url(#paint8_radial_104_319)"/>
<path fill-rule="evenodd" clip-rule="evenodd" d="M59.7106 41.8641C60.526 40.18 60.9456 38.3319 60.9375 36.4609C60.9375 34.6917 60.5719 33.0302 59.9219 31.5169H59.9422C59.6471 30.8382 59.2901 30.1882 58.8758 29.575L58.8677 29.5628C57.5665 27.5679 56.8741 25.2374 56.875 22.8556V22.817C56.8745 19.5039 55.5582 16.3265 53.2157 13.9836C50.8731 11.6407 47.696 10.3239 44.3828 10.3228C43.6922 10.3228 43.0402 10.0181 42.6563 9.44125C41.4978 7.82953 39.9727 6.51636 38.2068 5.61011C36.4409 4.70385 34.4849 4.23049 32.5 4.22906C30.5151 4.23049 28.5591 4.70385 26.7932 5.61011C25.0273 6.51636 23.5022 7.82953 22.3438 9.44125C21.9599 9.9775 21.3078 10.3228 20.6172 10.3228C20.5116 10.3228 20.4039 10.3228 20.2963 10.3269C17.0397 10.4116 13.9451 11.7646 11.6716 14.0977C9.39806 16.4308 8.12549 19.5594 8.12501 22.817V22.8556C8.12501 25.2322 7.43438 27.5681 6.13235 29.5628L6.12219 29.577C4.77627 31.6204 4.06008 34.0141 4.06251 36.4609C4.06251 38.415 4.52157 40.2167 5.28938 41.8641C5.42193 42.1325 5.49088 42.4279 5.49088 42.7273C5.49088 43.0268 5.42193 43.3222 5.28938 43.5906C4.48842 45.2515 4.06922 47.0706 4.06251 48.9145C4.06251 55.6583 9.50626 61.102 16.25 61.102H48.75C55.4938 61.102 60.9375 55.6583 60.9375 48.9145C60.9317 47.0692 60.5125 45.2486 59.7106 43.5866C59.5784 43.3184 59.5096 43.0233 59.5096 42.7243C59.5096 42.4253 59.5784 42.1302 59.7106 41.862V41.8641ZM13.2803 31.7444H13.2336L17.7734 40.6656C18.2406 51.2789 22.3844 40.6656 32.5 40.6656C42.6156 40.6656 47.0275 52.4773 47.4947 41.8641L51.7969 29.7578C51.5938 25.0433 48.1772 24.7122 47.4947 24.7122H35.3031C32.9266 24.7165 30.5848 24.1417 28.4803 23.0374C26.3759 21.9332 24.5722 20.3328 23.2253 18.3747C23.1227 18.2268 22.982 18.1093 22.8182 18.0347C22.6543 17.9601 22.4734 17.9312 22.2944 17.9509C22.1155 17.9707 21.9452 18.0384 21.8016 18.147C21.6579 18.2556 21.5463 18.4009 21.4784 18.5677L21.1656 19.303C20.3215 21.3821 18.7087 23.056 16.6623 23.9769C16.6014 23.9972 16.5344 24.0256 16.4674 24.0541C16.4034 24.0823 16.3383 24.1081 16.2723 24.1313C15.3786 24.5964 13.2823 25.9858 13.2052 29.5811L13.2458 30.7389L13.2803 31.7444Z" fill="url(#paint9_radial_104_319)"/>
<path fill-rule="evenodd" clip-rule="evenodd" d="M59.7106 41.8641C60.526 40.18 60.9456 38.3319 60.9375 36.4609C60.9375 34.6917 60.5719 33.0302 59.9219 31.5169H59.9422C59.6471 30.8382 59.2901 30.1882 58.8758 29.575L58.8677 29.5628C57.5665 27.5679 56.8741 25.2374 56.875 22.8556V22.817C56.8745 19.5039 55.5582 16.3265 53.2157 13.9836C50.8731 11.6407 47.696 10.3239 44.3828 10.3228C43.6922 10.3228 43.0402 10.0181 42.6563 9.44125C41.4978 7.82953 39.9727 6.51636 38.2068 5.61011C36.4409 4.70385 34.4849 4.23049 32.5 4.22906C30.5151 4.23049 28.5591 4.70385 26.7932 5.61011C25.0273 6.51636 23.5022 7.82953 22.3438 9.44125C21.9599 9.9775 21.3078 10.3228 20.6172 10.3228C20.5116 10.3228 20.4039 10.3228 20.2963 10.3269C17.0397 10.4116 13.9451 11.7646 11.6716 14.0977C9.39806 16.4308 8.12549 19.5594 8.12501 22.817V22.8556C8.12501 25.2322 7.43438 27.5681 6.13235 29.5628L6.12219 29.577C4.77627 31.6204 4.06008 34.0141 4.06251 36.4609C4.06251 38.415 4.52157 40.2167 5.28938 41.8641C5.42193 42.1325 5.49088 42.4279 5.49088 42.7273C5.49088 43.0268 5.42193 43.3222 5.28938 43.5906C4.48842 45.2515 4.06922 47.0706 4.06251 48.9145C4.06251 55.6583 9.50626 61.102 16.25 61.102H48.75C55.4938 61.102 60.9375 55.6583 60.9375 48.9145C60.9317 47.0692 60.5125 45.2486 59.7106 43.5866C59.5784 43.3184 59.5096 43.0233 59.5096 42.7243C59.5096 42.4253 59.5784 42.1302 59.7106 41.862V41.8641ZM13.2803 31.7444H13.2336L17.7734 40.6656C18.2406 51.2789 22.3844 40.6656 32.5 40.6656C42.6156 40.6656 47.0275 52.4773 47.4947 41.8641L51.7969 29.7578C51.5938 25.0433 48.1772 24.7122 47.4947 24.7122H35.3031C32.9266 24.7165 30.5848 24.1417 28.4803 23.0374C26.3759 21.9332 24.5722 20.3328 23.2253 18.3747C23.1227 18.2268 22.982 18.1093 22.8182 18.0347C22.6543 17.9601 22.4734 17.9312 22.2944 17.9509C22.1155 17.9707 21.9452 18.0384 21.8016 18.147C21.6579 18.2556 21.5463 18.4009 21.4784 18.5677L21.1656 19.303C20.3215 21.3821 18.7087 23.056 16.6623 23.9769C16.6014 23.9972 16.5344 24.0256 16.4674 24.0541C16.4034 24.0823 16.3383 24.1081 16.2723 24.1313C15.3786 24.5964 13.2823 25.9858 13.2052 29.5811L13.2458 30.7389L13.2803 31.7444Z" fill="url(#paint10_radial_104_319)"/>
<path fill-rule="evenodd" clip-rule="evenodd" d="M59.7106 41.8641C60.526 40.18 60.9456 38.3319 60.9375 36.4609C60.9375 34.6917 60.5719 33.0302 59.9219 31.5169H59.9422C59.6471 30.8382 59.2901 30.1882 58.8758 29.575L58.8677 29.5628C57.5665 27.5679 56.8741 25.2374 56.875 22.8556V22.817C56.8745 19.5039 55.5582 16.3265 53.2157 13.9836C50.8731 11.6407 47.696 10.3239 44.3828 10.3228C43.6922 10.3228 43.0402 10.0181 42.6563 9.44125C41.4978 7.82953 39.9727 6.51636 38.2068 5.61011C36.4409 4.70385 34.4849 4.23049 32.5 4.22906C30.5151 4.23049 28.5591 4.70385 26.7932 5.61011C25.0273 6.51636 23.5022 7.82953 22.3438 9.44125C21.9599 9.9775 21.3078 10.3228 20.6172 10.3228C20.5116 10.3228 20.4039 10.3228 20.2963 10.3269C17.0397 10.4116 13.9451 11.7646 11.6716 14.0977C9.39806 16.4308 8.12549 19.5594 8.12501 22.817V22.8556C8.12501 25.2322 7.43438 27.5681 6.13235 29.5628L6.12219 29.577C4.77627 31.6204 4.06008 34.0141 4.06251 36.4609C4.06251 38.415 4.52157 40.2167 5.28938 41.8641C5.42193 42.1325 5.49088 42.4279 5.49088 42.7273C5.49088 43.0268 5.42193 43.3222 5.28938 43.5906C4.48842 45.2515 4.06922 47.0706 4.06251 48.9145C4.06251 55.6583 9.50626 61.102 16.25 61.102H48.75C55.4938 61.102 60.9375 55.6583 60.9375 48.9145C60.9317 47.0692 60.5125 45.2486 59.7106 43.5866C59.5784 43.3184 59.5096 43.0233 59.5096 42.7243C59.5096 42.4253 59.5784 42.1302 59.7106 41.862V41.8641ZM13.2803 31.7444H13.2336L17.7734 40.6656C18.2406 51.2789 22.3844 40.6656 32.5 40.6656C42.6156 40.6656 47.0275 52.4773 47.4947 41.8641L51.7969 29.7578C51.5938 25.0433 48.1772 24.7122 47.4947 24.7122H35.3031C32.9266 24.7165 30.5848 24.1417 28.4803 23.0374C26.3759 21.9332 24.5722 20.3328 23.2253 18.3747C23.1227 18.2268 22.982 18.1093 22.8182 18.0347C22.6543 17.9601 22.4734 17.9312 22.2944 17.9509C22.1155 17.9707 21.9452 18.0384 21.8016 18.147C21.6579 18.2556 21.5463 18.4009 21.4784 18.5677L21.1656 19.303C20.3215 21.3821 18.7087 23.056 16.6623 23.9769C16.6014 23.9972 16.5344 24.0256 16.4674 24.0541C16.4034 24.0823 16.3383 24.1081 16.2723 24.1313C15.3786 24.5964 13.2823 25.9858 13.2052 29.5811L13.2458 30.7389L13.2803 31.7444Z" fill="url(#paint11_radial_104_319)"/>
</g>
<g filter="url(#filter1_i_104_319)">
<path d="M14.755 42.6197C16.3712 42.6197 17.9211 41.9777 19.0639 40.8349C20.2067 39.6921 20.8488 38.1421 20.8488 36.5259C20.8488 34.9098 20.2067 33.3598 19.0639 32.217C17.9211 31.0742 16.3712 30.4322 14.755 30.4322C13.1388 30.4322 11.5889 31.0742 10.4461 32.217C9.30327 33.3598 8.66125 34.9098 8.66125 36.5259C8.66125 38.1421 9.30327 39.6921 10.4461 40.8349C11.5889 41.9777 13.1388 42.6197 14.755 42.6197Z" fill="url(#paint12_linear_104_319)"/>
</g>
<path d="M14.755 42.6197C16.3712 42.6197 17.9211 41.9777 19.0639 40.8349C20.2067 39.6921 20.8488 38.1421 20.8488 36.5259C20.8488 34.9098 20.2067 33.3598 19.0639 32.217C17.9211 31.0742 16.3712 30.4322 14.755 30.4322C13.1388 30.4322 11.5889 31.0742 10.4461 32.217C9.30327 33.3598 8.66125 34.9098 8.66125 36.5259C8.66125 38.1421 9.30327 39.6921 10.4461 40.8349C11.5889 41.9777 13.1388 42.6197 14.755 42.6197Z" fill="url(#paint13_radial_104_319)"/>
<g filter="url(#filter2_i_104_319)">
<path d="M50.7812 42.6197C52.3974 42.6197 53.9474 41.9777 55.0902 40.8349C56.233 39.6921 56.875 38.1421 56.875 36.5259C56.875 34.9098 56.233 33.3598 55.0902 32.217C53.9474 31.0742 52.3974 30.4322 50.7812 30.4322C49.1651 30.4322 47.6151 31.0742 46.4723 32.217C45.3295 33.3598 44.6875 34.9098 44.6875 36.5259C44.6875 38.1421 45.3295 39.6921 46.4723 40.8349C47.6151 41.9777 49.1651 42.6197 50.7812 42.6197Z" fill="url(#paint14_radial_104_319)"/>
<path d="M50.7812 42.6197C52.3974 42.6197 53.9474 41.9777 55.0902 40.8349C56.233 39.6921 56.875 38.1421 56.875 36.5259C56.875 34.9098 56.233 33.3598 55.0902 32.217C53.9474 31.0742 52.3974 30.4322 50.7812 30.4322C49.1651 30.4322 47.6151 31.0742 46.4723 32.217C45.3295 33.3598 44.6875 34.9098 44.6875 36.5259C44.6875 38.1421 45.3295 39.6921 46.4723 40.8349C47.6151 41.9777 49.1651 42.6197 50.7812 42.6197Z" fill="url(#paint15_radial_104_319)"/>
</g>
<g filter="url(#filter3_f_104_319)">
<path d="M50.7812 40.5945C51.3155 40.5945 51.8446 40.4893 52.3382 40.2848C52.8319 40.0804 53.2804 39.7807 53.6582 39.4029C54.036 39.0251 54.3357 38.5765 54.5401 38.0829C54.7446 37.5893 54.8498 37.0602 54.8498 36.5259C54.8498 35.9916 54.7446 35.4626 54.5401 34.969C54.3357 34.4753 54.036 34.0268 53.6582 33.649C53.2804 33.2712 52.8319 32.9715 52.3382 32.767C51.8446 32.5626 51.3155 32.4573 50.7812 32.4573C49.7022 32.4573 48.6673 32.886 47.9043 33.649C47.1413 34.412 46.7126 35.4469 46.7126 36.5259C46.7126 37.605 47.1413 38.6399 47.9043 39.4029C48.6673 40.1659 49.7022 40.5945 50.7812 40.5945Z" fill="#B38574"/>
<path d="M50.7812 40.5945C51.3155 40.5945 51.8446 40.4893 52.3382 40.2848C52.8319 40.0804 53.2804 39.7807 53.6582 39.4029C54.036 39.0251 54.3357 38.5765 54.5401 38.0829C54.7446 37.5893 54.8498 37.0602 54.8498 36.5259C54.8498 35.9916 54.7446 35.4626 54.5401 34.969C54.3357 34.4753 54.036 34.0268 53.6582 33.649C53.2804 33.2712 52.8319 32.9715 52.3382 32.767C51.8446 32.5626 51.3155 32.4573 50.7812 32.4573C49.7022 32.4573 48.6673 32.886 47.9043 33.649C47.1413 34.412 46.7126 35.4469 46.7126 36.5259C46.7126 37.605 47.1413 38.6399 47.9043 39.4029C48.6673 40.1659 49.7022 40.5945 50.7812 40.5945Z" fill="url(#paint16_radial_104_319)"/>
</g>
<g filter="url(#filter4_f_104_319)">
<path d="M14.8281 40.5945C15.3624 40.5945 15.8915 40.4893 16.3851 40.2848C16.8787 40.0804 17.3272 39.7807 17.705 39.4029C18.0829 39.0251 18.3825 38.5765 18.587 38.0829C18.7915 37.5893 18.8967 37.0602 18.8967 36.5259C18.8967 35.9916 18.7915 35.4626 18.587 34.969C18.3825 34.4753 18.0829 34.0268 17.705 33.649C17.3272 33.2712 16.8787 32.9715 16.3851 32.767C15.8915 32.5626 15.3624 32.4573 14.8281 32.4573C13.7491 32.4573 12.7142 32.886 11.9512 33.649C11.1882 34.412 10.7595 35.4469 10.7595 36.5259C10.7595 37.605 11.1882 38.6399 11.9512 39.4029C12.7142 40.1659 13.7491 40.5945 14.8281 40.5945Z" fill="#7E555A"/>
<path d="M14.8281 40.5945C15.3624 40.5945 15.8915 40.4893 16.3851 40.2848C16.8787 40.0804 17.3272 39.7807 17.705 39.4029C18.0829 39.0251 18.3825 38.5765 18.587 38.0829C18.7915 37.5893 18.8967 37.0602 18.8967 36.5259C18.8967 35.9916 18.7915 35.4626 18.587 34.969C18.3825 34.4753 18.0829 34.0268 17.705 33.649C17.3272 33.2712 16.8787 32.9715 16.3851 32.767C15.8915 32.5626 15.3624 32.4573 14.8281 32.4573C13.7491 32.4573 12.7142 32.886 11.9512 33.649C11.1882 34.412 10.7595 35.4469 10.7595 36.5259C10.7595 37.605 11.1882 38.6399 11.9512 39.4029C12.7142 40.1659 13.7491 40.5945 14.8281 40.5945Z" fill="url(#paint17_radial_104_319)"/>
</g>
<g filter="url(#filter5_i_104_319)">
<path d="M13.2336 31.7444H13.2803L13.2417 30.7389L13.2031 29.5811C13.2803 25.9858 15.3766 24.5964 16.2703 24.1313C16.3313 24.1109 16.3983 24.0845 16.4653 24.0541C16.5295 24.0262 16.5945 24.0005 16.6603 23.9769C18.7066 23.056 20.3195 21.3821 21.1636 19.303L21.4744 18.5677C21.5422 18.4009 21.6539 18.2556 21.7975 18.147C21.9411 18.0384 22.1114 17.9707 22.2903 17.9509C22.4693 17.9312 22.6503 17.9601 22.8141 18.0347C22.978 18.1093 23.1186 18.2268 23.2213 18.3747C24.5683 20.333 26.3723 21.9336 28.4771 23.0379C30.582 24.1421 32.9242 24.7168 35.3011 24.7122H47.4947C48.1772 24.7122 51.5938 25.0433 51.7969 29.7578L51.348 41.3948C50.8808 52.0081 42.5933 59.1338 32.4756 59.1338C22.36 59.1338 14.0705 52.0081 13.6033 41.3948L13.2336 31.7444Z" fill="url(#paint18_radial_104_319)"/>
<path d="M13.2336 31.7444H13.2803L13.2417 30.7389L13.2031 29.5811C13.2803 25.9858 15.3766 24.5964 16.2703 24.1313C16.3313 24.1109 16.3983 24.0845 16.4653 24.0541C16.5295 24.0262 16.5945 24.0005 16.6603 23.9769C18.7066 23.056 20.3195 21.3821 21.1636 19.303L21.4744 18.5677C21.5422 18.4009 21.6539 18.2556 21.7975 18.147C21.9411 18.0384 22.1114 17.9707 22.2903 17.9509C22.4693 17.9312 22.6503 17.9601 22.8141 18.0347C22.978 18.1093 23.1186 18.2268 23.2213 18.3747C24.5683 20.333 26.3723 21.9336 28.4771 23.0379C30.582 24.1421 32.9242 24.7168 35.3011 24.7122H47.4947C48.1772 24.7122 51.5938 25.0433 51.7969 29.7578L51.348 41.3948C50.8808 52.0081 42.5933 59.1338 32.4756 59.1338C22.36 59.1338 14.0705 52.0081 13.6033 41.3948L13.2336 31.7444Z" fill="url(#paint19_radial_104_319)"/>
<path d="M13.2336 31.7444H13.2803L13.2417 30.7389L13.2031 29.5811C13.2803 25.9858 15.3766 24.5964 16.2703 24.1313C16.3313 24.1109 16.3983 24.0845 16.4653 24.0541C16.5295 24.0262 16.5945 24.0005 16.6603 23.9769C18.7066 23.056 20.3195 21.3821 21.1636 19.303L21.4744 18.5677C21.5422 18.4009 21.6539 18.2556 21.7975 18.147C21.9411 18.0384 22.1114 17.9707 22.2903 17.9509C22.4693 17.9312 22.6503 17.9601 22.8141 18.0347C22.978 18.1093 23.1186 18.2268 23.2213 18.3747C24.5683 20.333 26.3723 21.9336 28.4771 23.0379C30.582 24.1421 32.9242 24.7168 35.3011 24.7122H47.4947C48.1772 24.7122 51.5938 25.0433 51.7969 29.7578L51.348 41.3948C50.8808 52.0081 42.5933 59.1338 32.4756 59.1338C22.36 59.1338 14.0705 52.0081 13.6033 41.3948L13.2336 31.7444Z" fill="url(#paint20_radial_104_319)"/>
<path d="M13.2336 31.7444H13.2803L13.2417 30.7389L13.2031 29.5811C13.2803 25.9858 15.3766 24.5964 16.2703 24.1313C16.3313 24.1109 16.3983 24.0845 16.4653 24.0541C16.5295 24.0262 16.5945 24.0005 16.6603 23.9769C18.7066 23.056 20.3195 21.3821 21.1636 19.303L21.4744 18.5677C21.5422 18.4009 21.6539 18.2556 21.7975 18.147C21.9411 18.0384 22.1114 17.9707 22.2903 17.9509C22.4693 17.9312 22.6503 17.9601 22.8141 18.0347C22.978 18.1093 23.1186 18.2268 23.2213 18.3747C24.5683 20.333 26.3723 21.9336 28.4771 23.0379C30.582 24.1421 32.9242 24.7168 35.3011 24.7122H47.4947C48.1772 24.7122 51.5938 25.0433 51.7969 29.7578L51.348 41.3948C50.8808 52.0081 42.5933 59.1338 32.4756 59.1338C22.36 59.1338 14.0705 52.0081 13.6033 41.3948L13.2336 31.7444Z" fill="url(#paint21_radial_104_319)"/>
<path d="M13.2336 31.7444H13.2803L13.2417 30.7389L13.2031 29.5811C13.2803 25.9858 15.3766 24.5964 16.2703 24.1313C16.3313 24.1109 16.3983 24.0845 16.4653 24.0541C16.5295 24.0262 16.5945 24.0005 16.6603 23.9769C18.7066 23.056 20.3195 21.3821 21.1636 19.303L21.4744 18.5677C21.5422 18.4009 21.6539 18.2556 21.7975 18.147C21.9411 18.0384 22.1114 17.9707 22.2903 17.9509C22.4693 17.9312 22.6503 17.9601 22.8141 18.0347C22.978 18.1093 23.1186 18.2268 23.2213 18.3747C24.5683 20.333 26.3723 21.9336 28.4771 23.0379C30.582 24.1421 32.9242 24.7168 35.3011 24.7122H47.4947C48.1772 24.7122 51.5938 25.0433 51.7969 29.7578L51.348 41.3948C50.8808 52.0081 42.5933 59.1338 32.4756 59.1338C22.36 59.1338 14.0705 52.0081 13.6033 41.3948L13.2336 31.7444Z" fill="url(#paint22_radial_104_319)"/>
<path d="M13.2336 31.7444H13.2803L13.2417 30.7389L13.2031 29.5811C13.2803 25.9858 15.3766 24.5964 16.2703 24.1313C16.3313 24.1109 16.3983 24.0845 16.4653 24.0541C16.5295 24.0262 16.5945 24.0005 16.6603 23.9769C18.7066 23.056 20.3195 21.3821 21.1636 19.303L21.4744 18.5677C21.5422 18.4009 21.6539 18.2556 21.7975 18.147C21.9411 18.0384 22.1114 17.9707 22.2903 17.9509C22.4693 17.9312 22.6503 17.9601 22.8141 18.0347C22.978 18.1093 23.1186 18.2268 23.2213 18.3747C24.5683 20.333 26.3723 21.9336 28.4771 23.0379C30.582 24.1421 32.9242 24.7168 35.3011 24.7122H47.4947C48.1772 24.7122 51.5938 25.0433 51.7969 29.7578L51.348 41.3948C50.8808 52.0081 42.5933 59.1338 32.4756 59.1338C22.36 59.1338 14.0705 52.0081 13.6033 41.3948L13.2336 31.7444Z" fill="url(#paint23_radial_104_319)"/>
<path d="M13.2336 31.7444H13.2803L13.2417 30.7389L13.2031 29.5811C13.2803 25.9858 15.3766 24.5964 16.2703 24.1313C16.3313 24.1109 16.3983 24.0845 16.4653 24.0541C16.5295 24.0262 16.5945 24.0005 16.6603 23.9769C18.7066 23.056 20.3195 21.3821 21.1636 19.303L21.4744 18.5677C21.5422 18.4009 21.6539 18.2556 21.7975 18.147C21.9411 18.0384 22.1114 17.9707 22.2903 17.9509C22.4693 17.9312 22.6503 17.9601 22.8141 18.0347C22.978 18.1093 23.1186 18.2268 23.2213 18.3747C24.5683 20.333 26.3723 21.9336 28.4771 23.0379C30.582 24.1421 32.9242 24.7168 35.3011 24.7122H47.4947C48.1772 24.7122 51.5938 25.0433 51.7969 29.7578L51.348 41.3948C50.8808 52.0081 42.5933 59.1338 32.4756 59.1338C22.36 59.1338 14.0705 52.0081 13.6033 41.3948L13.2336 31.7444Z" fill="url(#paint24_radial_104_319)"/>
<path d="M13.2336 31.7444H13.2803L13.2417 30.7389L13.2031 29.5811C13.2803 25.9858 15.3766 24.5964 16.2703 24.1313C16.3313 24.1109 16.3983 24.0845 16.4653 24.0541C16.5295 24.0262 16.5945 24.0005 16.6603 23.9769C18.7066 23.056 20.3195 21.3821 21.1636 19.303L21.4744 18.5677C21.5422 18.4009 21.6539 18.2556 21.7975 18.147C21.9411 18.0384 22.1114 17.9707 22.2903 17.9509C22.4693 17.9312 22.6503 17.9601 22.8141 18.0347C22.978 18.1093 23.1186 18.2268 23.2213 18.3747C24.5683 20.333 26.3723 21.9336 28.4771 23.0379C30.582 24.1421 32.9242 24.7168 35.3011 24.7122H47.4947C48.1772 24.7122 51.5938 25.0433 51.7969 29.7578L51.348 41.3948C50.8808 52.0081 42.5933 59.1338 32.4756 59.1338C22.36 59.1338 14.0705 52.0081 13.6033 41.3948L13.2336 31.7444Z" fill="url(#paint25_radial_104_319)"/>
<path d="M13.2336 31.7444H13.2803L13.2417 30.7389L13.2031 29.5811C13.2803 25.9858 15.3766 24.5964 16.2703 24.1313C16.3313 24.1109 16.3983 24.0845 16.4653 24.0541C16.5295 24.0262 16.5945 24.0005 16.6603 23.9769C18.7066 23.056 20.3195 21.3821 21.1636 19.303L21.4744 18.5677C21.5422 18.4009 21.6539 18.2556 21.7975 18.147C21.9411 18.0384 22.1114 17.9707 22.2903 17.9509C22.4693 17.9312 22.6503 17.9601 22.8141 18.0347C22.978 18.1093 23.1186 18.2268 23.2213 18.3747C24.5683 20.333 26.3723 21.9336 28.4771 23.0379C30.582 24.1421 32.9242 24.7168 35.3011 24.7122H47.4947C48.1772 24.7122 51.5938 25.0433 51.7969 29.7578L51.348 41.3948C50.8808 52.0081 42.5933 59.1338 32.4756 59.1338C22.36 59.1338 14.0705 52.0081 13.6033 41.3948L13.2336 31.7444Z" fill="url(#paint26_radial_104_319)"/>
</g>
<path d="M13.2336 31.7444H13.2803L13.2417 30.7389L13.2031 29.5811C13.2803 25.9858 15.3766 24.5964 16.2703 24.1313C16.3313 24.1109 16.3983 24.0845 16.4653 24.0541C16.5295 24.0262 16.5945 24.0005 16.6603 23.9769C18.7066 23.056 20.3195 21.3821 21.1636 19.303L21.4744 18.5677C21.5422 18.4009 21.6539 18.2556 21.7975 18.147C21.9411 18.0384 22.1114 17.9707 22.2903 17.9509C22.4693 17.9312 22.6503 17.9601 22.8141 18.0347C22.978 18.1093 23.1186 18.2268 23.2213 18.3747C24.5683 20.333 26.3723 21.9336 28.4771 23.0379C30.582 24.1421 32.9242 24.7168 35.3011 24.7122H47.4947C48.1772 24.7122 51.5938 25.0433 51.7969 29.7578L51.348 41.3948C50.8808 52.0081 42.5933 59.1338 32.4756 59.1338C22.36 59.1338 14.0705 52.0081 13.6033 41.3948L13.2336 31.7444Z" fill="url(#paint27_radial_104_319)"/>
<g filter="url(#filter6_f_104_319)">
<path d="M31.0131 35.683L28.4253 42.122C28.3299 42.4292 28.3085 42.7546 28.3627 43.0717C28.417 43.3887 28.5453 43.6884 28.7374 43.9465C28.9295 44.2045 29.1798 44.4134 29.468 44.5563C29.7562 44.6992 30.074 44.772 30.3956 44.7688H33.3735C34.771 44.7688 35.7561 43.4241 35.3458 42.12L33.3349 35.6809C32.9022 34.257 31.4661 34.2591 31.0131 35.683Z" fill="#88555F"/>
</g>
<g filter="url(#filter7_f_104_319)">
<path d="M31.0518 35.1589L29.0408 41.598C28.9454 41.9052 28.924 42.2305 28.9782 42.5476C29.0324 42.8646 29.1608 43.1644 29.3529 43.4224C29.545 43.6804 29.7953 43.8894 30.0835 44.0323C30.3716 44.1752 30.6895 44.248 31.0111 44.2447H33.9889C35.3864 44.2447 36.3716 42.9 35.9593 41.5959L33.9483 35.1569C33.5157 33.733 31.5047 33.735 31.0518 35.1589Z" fill="#B38578"/>
<path d="M31.0518 35.1589L29.0408 41.598C28.9454 41.9052 28.924 42.2305 28.9782 42.5476C29.0324 42.8646 29.1608 43.1644 29.3529 43.4224C29.545 43.6804 29.7953 43.8894 30.0835 44.0323C30.3716 44.1752 30.6895 44.248 31.0111 44.2447H33.9889C35.3864 44.2447 36.3716 42.9 35.9593 41.5959L33.9483 35.1569C33.5157 33.733 31.5047 33.735 31.0518 35.1589Z" fill="url(#paint28_radial_104_319)"/>
<path d="M31.0518 35.1589L29.0408 41.598C28.9454 41.9052 28.924 42.2305 28.9782 42.5476C29.0324 42.8646 29.1608 43.1644 29.3529 43.4224C29.545 43.6804 29.7953 43.8894 30.0835 44.0323C30.3716 44.1752 30.6895 44.248 31.0111 44.2447H33.9889C35.3864 44.2447 36.3716 42.9 35.9593 41.5959L33.9483 35.1569C33.5157 33.733 31.5047 33.735 31.0518 35.1589Z" fill="url(#paint29_linear_104_319)"/>
<path d="M31.0518 35.1589L29.0408 41.598C28.9454 41.9052 28.924 42.2305 28.9782 42.5476C29.0324 42.8646 29.1608 43.1644 29.3529 43.4224C29.545 43.6804 29.7953 43.8894 30.0835 44.0323C30.3716 44.1752 30.6895 44.248 31.0111 44.2447H33.9889C35.3864 44.2447 36.3716 42.9 35.9593 41.5959L33.9483 35.1569C33.5157 33.733 31.5047 33.735 31.0518 35.1589Z" fill="url(#paint30_linear_104_319)"/>
<path d="M31.0518 35.1589L29.0408 41.598C28.9454 41.9052 28.924 42.2305 28.9782 42.5476C29.0324 42.8646 29.1608 43.1644 29.3529 43.4224C29.545 43.6804 29.7953 43.8894 30.0835 44.0323C30.3716 44.1752 30.6895 44.248 31.0111 44.2447H33.9889C35.3864 44.2447 36.3716 42.9 35.9593 41.5959L33.9483 35.1569C33.5157 33.733 31.5047 33.735 31.0518 35.1589Z" fill="url(#paint31_radial_104_319)"/>
</g>
<path d="M31.0518 35.1589L29.0408 41.598C28.9454 41.9052 28.924 42.2305 28.9782 42.5476C29.0324 42.8646 29.1608 43.1644 29.3529 43.4224C29.545 43.6804 29.7953 43.8894 30.0835 44.0323C30.3716 44.1752 30.6895 44.248 31.0111 44.2447H33.9889C35.3864 44.2447 36.3716 42.9 35.9593 41.5959L33.9483 35.1569C33.5157 33.733 31.5047 33.735 31.0518 35.1589Z" fill="url(#paint32_linear_104_319)"/>
<path d="M31.0518 35.1589L29.0408 41.598C28.9454 41.9052 28.924 42.2305 28.9782 42.5476C29.0324 42.8646 29.1608 43.1644 29.3529 43.4224C29.545 43.6804 29.7953 43.8894 30.0835 44.0323C30.3716 44.1752 30.6895 44.248 31.0111 44.2447H33.9889C35.3864 44.2447 36.3716 42.9 35.9593 41.5959L33.9483 35.1569C33.5157 33.733 31.5047 33.735 31.0518 35.1589Z" fill="url(#paint33_radial_104_319)"/>
<path d="M27.1639 46.1581C27.0287 46.0861 26.8733 46.0613 26.7223 46.0878C26.5714 46.1143 26.4337 46.1906 26.3311 46.3044C26.2256 46.4133 26.1611 46.5553 26.1485 46.7064C26.1359 46.8575 26.176 47.0083 26.2621 47.1331C26.9334 48.178 27.8563 49.0377 28.9462 49.6332C30.0361 50.2287 31.258 50.541 32.5 50.5416C33.7421 50.5414 34.9642 50.2292 36.0541 49.6337C37.1441 49.0381 38.0669 48.1783 38.738 47.1331C38.8244 47.0068 38.8645 46.8545 38.8515 46.702C38.8386 46.5495 38.7733 46.4062 38.6669 46.2963C38.5635 46.1842 38.4258 46.1097 38.2754 46.0843C38.1251 46.0589 37.9706 46.0842 37.8361 46.1561C36.1908 47.0193 34.358 47.4637 32.5 47.45C30.6425 47.462 28.8103 47.0185 27.1639 46.1581Z" fill="#88024E" stroke="url(#paint34_linear_104_319)" stroke-width="0.1"/>
<g filter="url(#filter8_i_104_319)">
<path d="M36.8266 34.3708C37.83 32.6036 39.3575 31.2061 42.6481 31.2061C44.0883 31.2061 45.4756 31.6063 46.7106 32.6036C47.7262 33.4263 47.5922 34.4784 46.8041 34.8725L44.6976 36.075C42.2297 35.2767 39.4997 35.1691 36.8266 34.3708Z" fill="#2F2C32"/>
</g>
<g filter="url(#filter9_i_104_319)">
<path d="M28.1755 34.3708C27.17 32.6036 25.6425 31.2061 22.3539 31.2061C20.9117 31.2061 19.5244 31.6063 18.2914 32.6036C17.2717 33.4263 17.4078 34.4784 18.198 34.8725L20.3024 36.075C22.7724 35.2767 25.5024 35.1691 28.1755 34.3708Z" fill="#27232A"/>
</g>
<g filter="url(#filter10_i_104_319)">
<path d="M19.632 29.7923L19.6158 29.8025C19.5013 29.8711 19.3745 29.9164 19.2426 29.9359C19.1106 29.9555 18.9761 29.9488 18.8467 29.9164C18.5854 29.8509 18.3608 29.6842 18.2223 29.4531C18.1538 29.3387 18.1084 29.2119 18.0889 29.0799C18.0694 28.948 18.076 28.8134 18.1084 28.6841C18.174 28.4227 18.3406 28.1981 18.5717 28.0597H18.5738L18.5778 28.0577L18.59 28.0495L18.6245 28.0292L18.7464 27.9622C19.3844 27.6266 20.0505 27.3473 20.737 27.1273C22.0269 26.715 23.8266 26.3697 25.7705 26.713C25.9018 26.7362 26.0274 26.785 26.1398 26.8567C26.2523 26.9285 26.3496 27.0216 26.4261 27.1309C26.5026 27.2402 26.5568 27.3635 26.5856 27.4938C26.6145 27.6241 26.6173 27.7587 26.5941 27.8901C26.5709 28.0215 26.5221 28.147 26.4504 28.2595C26.3786 28.372 26.2855 28.4692 26.1762 28.5457C26.0669 28.6222 25.9436 28.6764 25.8133 28.7052C25.6831 28.7341 25.5484 28.737 25.417 28.7138C23.9078 28.4477 22.4575 28.7097 21.3586 29.0611C20.7622 29.2524 20.1844 29.4972 19.632 29.7923Z" fill="#432A28"/>
</g>
<g filter="url(#filter11_i_104_319)">
<path fill-rule="evenodd" clip-rule="evenodd" d="M46.6314 28.0597C46.8628 28.1979 47.0298 28.4223 47.0957 28.6836C47.1616 28.945 47.121 29.2217 46.9828 29.4531C46.8446 29.6845 46.6202 29.8515 46.3589 29.9174C46.0976 29.9833 45.8208 29.9427 45.5894 29.8045L45.5711 29.7923C45.4314 29.7139 45.2891 29.6401 45.1445 29.5709C44.7231 29.3727 44.2888 29.203 43.8445 29.0631C42.7477 28.7097 41.2953 28.4477 39.7861 28.7138C39.5208 28.7606 39.2477 28.7002 39.027 28.5457C38.8062 28.3912 38.6559 28.1554 38.609 27.8901C38.5621 27.6248 38.6226 27.3517 38.777 27.1309C38.9315 26.9102 39.1674 26.7598 39.4327 26.713C41.3766 26.3697 43.1763 26.715 44.4641 27.1253C45.1507 27.3459 45.8167 27.6259 46.4547 27.9622L46.5786 28.0292L46.6131 28.0495L46.6253 28.0577H46.6294L46.6314 28.0597Z" fill="#432A28"/>
</g>
<path d="M41.5553 31.4295C44.0273 31.4295 46.1175 33.1358 46.6863 35.4392C46.7247 35.593 46.7275 35.7535 46.6943 35.9085C46.6611 36.0634 46.5929 36.2087 46.4948 36.3333C46.3968 36.4578 46.2715 36.5582 46.1287 36.6268C45.9858 36.6954 45.8291 36.7304 45.6706 36.7291H37.2227C37.0945 36.7294 36.9679 36.7014 36.8518 36.6473C36.7357 36.5932 36.6329 36.5142 36.5507 36.416C36.4685 36.3177 36.409 36.2025 36.3762 36.0787C36.3435 35.9548 36.3385 35.8253 36.3614 35.6992C36.5986 34.4961 37.2461 33.4126 38.1934 32.6339C39.1407 31.8551 40.329 31.4294 41.5553 31.4295Z" fill="white"/>
<path d="M40.7712 32.4594C41.2906 32.4601 41.8028 32.5805 42.2681 32.8112C42.7334 33.0419 43.1392 33.3768 43.4542 33.7898C43.7691 34.2027 43.9846 34.6827 44.084 35.1925C44.1834 35.7022 44.164 36.228 44.0273 36.7291H37.4989C37.4197 36.4384 37.3787 36.1386 37.377 35.8373C37.3802 34.9394 37.7393 34.0794 38.3756 33.4459C39.0118 32.8123 39.8733 32.4588 40.7712 32.4594Z" fill="url(#paint35_radial_104_319)"/>
<path d="M38.8355 35.8373C38.8355 34.7608 39.6967 33.9016 40.7712 33.9016C41.8478 33.9016 42.707 34.7628 42.707 35.8373C42.7088 36.1477 42.6349 36.4537 42.4917 36.7291H39.067C38.9116 36.4578 38.8317 36.1499 38.8355 35.8373Z" fill="black"/>
<g filter="url(#filter12_f_104_319)">
<path d="M40.5235 33.1723C40.7631 33.4953 40.2594 33.8873 39.6886 34.3159C39.1158 34.7425 38.6913 35.0452 38.4495 34.7222C38.2099 34.3992 38.478 33.7919 39.0508 33.3633C39.6236 32.9367 40.2817 32.8514 40.5235 33.1723Z" fill="#C7A7A3"/>
<path d="M40.5235 33.1723C40.7631 33.4953 40.2594 33.8873 39.6886 34.3159C39.1158 34.7425 38.6913 35.0452 38.4495 34.7222C38.2099 34.3992 38.478 33.7919 39.0508 33.3633C39.6236 32.9367 40.2817 32.8514 40.5235 33.1723Z" fill="url(#paint36_radial_104_319)"/>
</g>
<g filter="url(#filter13_f_104_319)">
<path d="M43.7816 35.3925C43.6809 34.7314 43.3746 34.1188 42.9061 33.6416L41.921 34.7202L42.3658 35.5855L43.7816 35.3925Z" fill="url(#paint37_linear_104_319)"/>
</g>
<path d="M23.4447 31.4295C20.9727 31.4295 18.8825 33.1358 18.3137 35.4392C18.2753 35.593 18.2725 35.7535 18.3057 35.9085C18.3389 36.0634 18.4071 36.2087 18.5052 36.3333C18.6032 36.4578 18.7285 36.5582 18.8713 36.6268C19.0142 36.6954 19.1709 36.7304 19.3294 36.7291H27.7773C27.9055 36.7294 28.0321 36.7014 28.1482 36.6473C28.2643 36.5932 28.3671 36.5142 28.4493 36.416C28.5315 36.3177 28.591 36.2025 28.6238 36.0787C28.6565 35.9548 28.6615 35.8253 28.6386 35.6992C28.3993 34.4971 27.7511 33.415 26.8043 32.6366C25.8575 31.8583 24.6704 31.4318 23.4447 31.4295Z" fill="white"/>
<path d="M24.2288 32.4594C23.7092 32.4598 23.1968 32.58 22.7312 32.8105C22.2657 33.0411 21.8596 33.3759 21.5444 33.7889C21.2292 34.202 21.0135 34.6821 20.914 35.192C20.8145 35.7019 20.8339 36.2279 20.9706 36.7291H27.5011C27.5783 36.4366 27.623 36.1461 27.623 35.8373C27.6171 34.9403 27.2571 34.0818 26.6215 33.4488C25.9858 32.8158 25.1259 32.4615 24.2288 32.4594Z" fill="url(#paint38_radial_104_319)"/>
<path d="M26.1625 35.8373C26.1636 35.583 26.1143 35.331 26.0175 35.0958C25.9208 34.8605 25.7784 34.6468 25.5987 34.4669C25.4189 34.2869 25.2053 34.1443 24.9702 34.0473C24.7351 33.9503 24.4831 33.9008 24.2288 33.9016C23.9743 33.9005 23.7221 33.9498 23.4867 34.0467C23.2514 34.1436 23.0375 34.2862 22.8576 34.4661C22.6776 34.6461 22.535 34.8599 22.4381 35.0953C22.3412 35.3306 22.2919 35.5828 22.293 35.8373C22.293 36.1623 22.3702 36.467 22.5083 36.7291H25.933C26.0815 36.4551 26.1589 36.149 26.1625 35.8373Z" fill="black"/>
<g filter="url(#filter14_f_104_319)">
<path d="M27.3162 35.4413C27.3162 34.3484 26.4286 33.6213 26.1889 33.3998L25.0961 34.4561L25.7664 35.8252L27.3162 35.4413Z" fill="url(#paint39_linear_104_319)"/>
</g>
<g filter="url(#filter15_f_104_319)">
<path d="M23.559 34.5621C24.2787 34.1808 24.7055 33.576 24.5122 33.2112C24.3189 32.8464 23.5788 32.8598 22.8591 33.241C22.1395 33.6223 21.7127 34.2271 21.906 34.5919C22.0992 34.9567 22.8393 34.9434 23.559 34.5621Z" fill="#C7A7A3" fill-opacity="0.9"/>
<path d="M23.559 34.5621C24.2787 34.1808 24.7055 33.576 24.5122 33.2112C24.3189 32.8464 23.5788 32.8598 22.8591 33.241C22.1395 33.6223 21.7127 34.2271 21.906 34.5919C22.0992 34.9567 22.8393 34.9434 23.559 34.5621Z" fill="url(#paint40_radial_104_319)"/>
</g>
<g filter="url(#filter16_f_104_319)">
<path d="M39.845 27.5417C41.0658 27.2431 44.1046 27.3914 46.1338 28.8458" stroke="#5B4545" stroke-width="0.4" stroke-linecap="round"/>
</g>
<g filter="url(#filter17_f_104_319)">
<path d="M25.4882 27.5417C24.2674 27.2431 21.2286 27.3914 19.1994 28.8458" stroke="#5B4545" stroke-width="0.4" stroke-linecap="round"/>
</g>
<g filter="url(#filter18_if_104_319)">
<path d="M13.3027 13.847C15.4456 11.5781 19.498 11.5741 21.3728 11.9133L22.8719 16.8005C21.9131 16.6522 21.7527 16.7944 21.0336 17.4931C20.5136 21.6328 15.8214 24.1455 10.1034 25.8152C9.54078 20.1663 10.5137 16.8005 13.3027 13.847Z" fill="#49302E"/>
<path d="M13.3027 13.847C15.4456 11.5781 19.498 11.5741 21.3728 11.9133L22.8719 16.8005C21.9131 16.6522 21.7527 16.7944 21.0336 17.4931C20.5136 21.6328 15.8214 24.1455 10.1034 25.8152C9.54078 20.1663 10.5137 16.8005 13.3027 13.847Z" fill="url(#paint41_radial_104_319)"/>
<path d="M13.3027 13.847C15.4456 11.5781 19.498 11.5741 21.3728 11.9133L22.8719 16.8005C21.9131 16.6522 21.7527 16.7944 21.0336 17.4931C20.5136 21.6328 15.8214 24.1455 10.1034 25.8152C9.54078 20.1663 10.5137 16.8005 13.3027 13.847Z" fill="url(#paint42_radial_104_319)"/>
</g>
<g filter="url(#filter19_if_104_319)">
<path d="M30.2149 7.02203C25.9249 6.07547 22.0736 10.3533 21.6288 11.9417C25.6121 25.3683 35.6911 24.6309 45.6382 23.5259C51.5958 22.8637 52.2397 25.5775 52.7475 26.8897C52.7475 11.9966 40.0847 9.20156 30.3225 7.04437L30.2149 7.02203Z" fill="#553836"/>
<path d="M30.2149 7.02203C25.9249 6.07547 22.0736 10.3533 21.6288 11.9417C25.6121 25.3683 35.6911 24.6309 45.6382 23.5259C51.5958 22.8637 52.2397 25.5775 52.7475 26.8897C52.7475 11.9966 40.0847 9.20156 30.3225 7.04437L30.2149 7.02203Z" fill="url(#paint43_radial_104_319)"/>
<path d="M30.2149 7.02203C25.9249 6.07547 22.0736 10.3533 21.6288 11.9417C25.6121 25.3683 35.6911 24.6309 45.6382 23.5259C51.5958 22.8637 52.2397 25.5775 52.7475 26.8897C52.7475 11.9966 40.0847 9.20156 30.3225 7.04437L30.2149 7.02203Z" fill="url(#paint44_radial_104_319)"/>
</g>
<g filter="url(#filter20_f_104_319)">
<path d="M21.5516 11.7508C21.6389 12.6709 22.4392 16.1302 23.6133 18.2264" stroke="url(#paint45_linear_104_319)" stroke-width="0.2" stroke-linecap="round"/>
</g>
<g filter="url(#filter21_f_104_319)">
<path d="M42.4734 20.5359L36.2151 21.6856C35.8591 21.7508 35.4934 21.7412 35.1413 21.6573C34.7892 21.5733 34.4585 21.417 34.1701 21.1982C33.8818 20.9794 33.6422 20.7029 33.4666 20.3864C33.291 20.0699 33.1833 19.7202 33.1503 19.3598C33.1173 18.9993 33.1598 18.636 33.275 18.2928C33.3901 17.9497 33.5755 17.6343 33.8193 17.3668C34.0632 17.0993 34.36 16.8854 34.691 16.739C35.022 16.5925 35.3799 16.5166 35.7419 16.5161H44.6062C49.8489 16.5161 51.5836 21.7994 51.7969 23.6052L51.1509 23.0161C49.9935 21.9612 48.6078 21.1882 47.1021 20.7576C45.5964 20.3271 44.0116 20.2505 42.4714 20.5339L42.4734 20.5359Z" fill="#664A4A"/>
</g>
<defs>
<filter id="filter0_i_104_319" x="4.0625" y="3.47906" width="57.1251" height="57.623" filterUnits="userSpaceOnUse" color-interpolation-filters="sRGB">
<feFlood flood-opacity="0" result="BackgroundImageFix"/>
<feBlend mode="normal" in="SourceGraphic" in2="BackgroundImageFix" result="shape"/>
<feColorMatrix in="SourceAlpha" type="matrix" values="0 0 0 0 0 0 0 0 0 0 0 0 0 0 0 0 0 0 127 0" result="hardAlpha"/>
<feOffset dx="0.25" dy="-0.75"/>
<feGaussianBlur stdDeviation="0.75"/>
<feComposite in2="hardAlpha" operator="arithmetic" k2="-1" k3="1"/>
<feColorMatrix type="matrix" values="0 0 0 0 0.262745 0 0 0 0 0.133333 0 0 0 0 0.184314 0 0 0 1 0"/>
<feBlend mode="normal" in2="shape" result="effect1_innerShadow_104_319"/>
</filter>
<filter id="filter1_i_104_319" x="8.66125" y="30.4322" width="12.3375" height="12.1875" filterUnits="userSpaceOnUse" color-interpolation-filters="sRGB">
<feFlood flood-opacity="0" result="BackgroundImageFix"/>
<feBlend mode="normal" in="SourceGraphic" in2="BackgroundImageFix" result="shape"/>
<feColorMatrix in="SourceAlpha" type="matrix" values="0 0 0 0 0 0 0 0 0 0 0 0 0 0 0 0 0 0 127 0" result="hardAlpha"/>
<feOffset dx="0.15"/>
<feGaussianBlur stdDeviation="0.25"/>
<feComposite in2="hardAlpha" operator="arithmetic" k2="-1" k3="1"/>
<feColorMatrix type="matrix" values="0 0 0 0 0.607843 0 0 0 0 0.458824 0 0 0 0 0.403922 0 0 0 1 0"/>
<feBlend mode="normal" in2="shape" result="effect1_innerShadow_104_319"/>
</filter>
<filter id="filter2_i_104_319" x="44.6875" y="30.1822" width="12.1875" height="12.4375" filterUnits="userSpaceOnUse" color-interpolation-filters="sRGB">
<feFlood flood-opacity="0" result="BackgroundImageFix"/>
<feBlend mode="normal" in="SourceGraphic" in2="BackgroundImageFix" result="shape"/>
<feColorMatrix in="SourceAlpha" type="matrix" values="0 0 0 0 0 0 0 0 0 0 0 0 0 0 0 0 0 0 127 0" result="hardAlpha"/>
<feOffset dy="-0.25"/>
<feGaussianBlur stdDeviation="0.25"/>
<feComposite in2="hardAlpha" operator="arithmetic" k2="-1" k3="1"/>
<feColorMatrix type="matrix" values="0 0 0 0 0.556863 0 0 0 0 0.34902 0 0 0 0 0.384314 0 0 0 1 0"/>
<feBlend mode="normal" in2="shape" result="effect1_innerShadow_104_319"/>
</filter>
<filter id="filter3_f_104_319" x="46.2126" y="31.9573" width="9.13721" height="9.13719" filterUnits="userSpaceOnUse" color-interpolation-filters="sRGB">
<feFlood flood-opacity="0" result="BackgroundImageFix"/>
<feBlend mode="normal" in="SourceGraphic" in2="BackgroundImageFix" result="shape"/>
<feGaussianBlur stdDeviation="0.25" result="effect1_foregroundBlur_104_319"/>
</filter>
<filter id="filter4_f_104_319" x="10.4095" y="32.1073" width="8.83721" height="8.83719" filterUnits="userSpaceOnUse" color-interpolation-filters="sRGB">
<feFlood flood-opacity="0" result="BackgroundImageFix"/>
<feBlend mode="normal" in="SourceGraphic" in2="BackgroundImageFix" result="shape"/>
<feGaussianBlur stdDeviation="0.175" result="effect1_foregroundBlur_104_319"/>
</filter>
<filter id="filter5_i_104_319" x="13.2031" y="17.9449" width="38.5938" height="41.5889" filterUnits="userSpaceOnUse" color-interpolation-filters="sRGB">
<feFlood flood-opacity="0" result="BackgroundImageFix"/>
<feBlend mode="normal" in="SourceGraphic" in2="BackgroundImageFix" result="shape"/>
<feColorMatrix in="SourceAlpha" type="matrix" values="0 0 0 0 0 0 0 0 0 0 0 0 0 0 0 0 0 0 127 0" result="hardAlpha"/>
<feOffset dy="0.4"/>
<feGaussianBlur stdDeviation="0.3"/>
<feComposite in2="hardAlpha" operator="arithmetic" k2="-1" k3="1"/>
<feColorMatrix type="matrix" values="0 0 0 0 0.407843 0 0 0 0 0.223529 0 0 0 0 0.25098 0 0 0 1 0"/>
<feBlend mode="normal" in2="shape" result="effect1_innerShadow_104_319"/>
</filter>
<filter id="filter6_f_104_319" x="27.8335" y="34.114" width="8.1062" height="11.1548" filterUnits="userSpaceOnUse" color-interpolation-filters="sRGB">
<feFlood flood-opacity="0" result="BackgroundImageFix"/>
<feBlend mode="normal" in="SourceGraphic" in2="BackgroundImageFix" result="shape"/>
<feGaussianBlur stdDeviation="0.25" result="effect1_foregroundBlur_104_319"/>
</filter>
<filter id="filter7_f_104_319" x="28.699" y="33.84" width="7.60498" height="10.6548" filterUnits="userSpaceOnUse" color-interpolation-filters="sRGB">
<feFlood flood-opacity="0" result="BackgroundImageFix"/>
<feBlend mode="normal" in="SourceGraphic" in2="BackgroundImageFix" result="shape"/>
<feGaussianBlur stdDeviation="0.125" result="effect1_foregroundBlur_104_319"/>
</filter>
<filter id="filter8_i_104_319" x="36.6265" y="31.2061" width="10.8073" height="4.8689" filterUnits="userSpaceOnUse" color-interpolation-filters="sRGB">
<feFlood flood-opacity="0" result="BackgroundImageFix"/>
<feBlend mode="normal" in="SourceGraphic" in2="BackgroundImageFix" result="shape"/>
<feColorMatrix in="SourceAlpha" type="matrix" values="0 0 0 0 0 0 0 0 0 0 0 0 0 0 0 0 0 0 127 0" result="hardAlpha"/>
<feOffset dx="-0.2"/>
<feGaussianBlur stdDeviation="0.2"/>
<feComposite in2="hardAlpha" operator="arithmetic" k2="-1" k3="1"/>
<feColorMatrix type="matrix" values="0 0 0 0 0.117647 0 0 0 0 0.0705882 0 0 0 0 0.156863 0 0 0 1 0"/>
<feBlend mode="normal" in2="shape" result="effect1_innerShadow_104_319"/>
</filter>
<filter id="filter9_i_104_319" x="17.5659" y="31.2061" width="10.8096" height="4.8689" filterUnits="userSpaceOnUse" color-interpolation-filters="sRGB">
<feFlood flood-opacity="0" result="BackgroundImageFix"/>
<feBlend mode="normal" in="SourceGraphic" in2="BackgroundImageFix" result="shape"/>
<feColorMatrix in="SourceAlpha" type="matrix" values="0 0 0 0 0 0 0 0 0 0 0 0 0 0 0 0 0 0 127 0" result="hardAlpha"/>
<feOffset dx="0.2"/>
<feGaussianBlur stdDeviation="0.125"/>
<feComposite in2="hardAlpha" operator="arithmetic" k2="-1" k3="1"/>
<feColorMatrix type="matrix" values="0 0 0 0 0.0862745 0 0 0 0 0.054902 0 0 0 0 0.113725 0 0 0 1 0"/>
<feBlend mode="normal" in2="shape" result="effect1_innerShadow_104_319"/>
</filter>
<filter id="filter10_i_104_319" x="18.0779" y="26.3729" width="8.73168" height="3.57404" filterUnits="userSpaceOnUse" color-interpolation-filters="sRGB">
<feFlood flood-opacity="0" result="BackgroundImageFix"/>
<feBlend mode="normal" in="SourceGraphic" in2="BackgroundImageFix" result="shape"/>
<feColorMatrix in="SourceAlpha" type="matrix" values="0 0 0 0 0 0 0 0 0 0 0 0 0 0 0 0 0 0 127 0" result="hardAlpha"/>
<feOffset dx="0.2" dy="-0.2"/>
<feGaussianBlur stdDeviation="0.15"/>
<feComposite in2="hardAlpha" operator="arithmetic" k2="-1" k3="1"/>
<feColorMatrix type="matrix" values="0 0 0 0 0.211765 0 0 0 0 0.121569 0 0 0 0 0.12549 0 0 0 1 0"/>
<feBlend mode="normal" in2="shape" result="effect1_innerShadow_104_319"/>
</filter>
<filter id="filter11_i_104_319" x="38.5935" y="26.3728" width="8.73308" height="3.57545" filterUnits="userSpaceOnUse" color-interpolation-filters="sRGB">
<feFlood flood-opacity="0" result="BackgroundImageFix"/>
<feBlend mode="normal" in="SourceGraphic" in2="BackgroundImageFix" result="shape"/>
<feColorMatrix in="SourceAlpha" type="matrix" values="0 0 0 0 0 0 0 0 0 0 0 0 0 0 0 0 0 0 127 0" result="hardAlpha"/>
<feOffset dx="0.2" dy="-0.2"/>
<feGaussianBlur stdDeviation="0.15"/>
<feComposite in2="hardAlpha" operator="arithmetic" k2="-1" k3="1"/>
<feColorMatrix type="matrix" values="0 0 0 0 0.211765 0 0 0 0 0.121569 0 0 0 0 0.12549 0 0 0 1 0"/>
<feBlend mode="normal" in2="shape" result="effect1_innerShadow_104_319"/>
</filter>
<filter id="filter12_f_104_319" x="38.2618" y="32.878" width="2.42278" height="2.07959" filterUnits="userSpaceOnUse" color-interpolation-filters="sRGB">
<feFlood flood-opacity="0" result="BackgroundImageFix"/>
<feBlend mode="normal" in="SourceGraphic" in2="BackgroundImageFix" result="shape"/>
<feGaussianBlur stdDeviation="0.05" result="effect1_foregroundBlur_104_319"/>
</filter>
<filter id="filter13_f_104_319" x="41.721" y="33.4416" width="2.2606" height="2.3439" filterUnits="userSpaceOnUse" color-interpolation-filters="sRGB">
<feFlood flood-opacity="0" result="BackgroundImageFix"/>
<feBlend mode="normal" in="SourceGraphic" in2="BackgroundImageFix" result="shape"/>
<feGaussianBlur stdDeviation="0.1" result="effect1_foregroundBlur_104_319"/>
</filter>
<filter id="filter14_f_104_319" x="24.8961" y="33.1998" width="2.62015" height="2.82531" filterUnits="userSpaceOnUse" color-interpolation-filters="sRGB">
<feFlood flood-opacity="0" result="BackgroundImageFix"/>
<feBlend mode="normal" in="SourceGraphic" in2="BackgroundImageFix" result="shape"/>
<feGaussianBlur stdDeviation="0.1" result="effect1_foregroundBlur_104_319"/>
</filter>
<filter id="filter15_f_104_319" x="21.7594" y="32.8461" width="2.89928" height="2.11093" filterUnits="userSpaceOnUse" color-interpolation-filters="sRGB">
<feFlood flood-opacity="0" result="BackgroundImageFix"/>
<feBlend mode="normal" in="SourceGraphic" in2="BackgroundImageFix" result="shape"/>
<feGaussianBlur stdDeviation="0.05" result="effect1_foregroundBlur_104_319"/>
</filter>
<filter id="filter16_f_104_319" x="39.245" y="26.8145" width="7.48884" height="2.63132" filterUnits="userSpaceOnUse" color-interpolation-filters="sRGB">
<feFlood flood-opacity="0" result="BackgroundImageFix"/>
<feBlend mode="normal" in="SourceGraphic" in2="BackgroundImageFix" result="shape"/>
<feGaussianBlur stdDeviation="0.2" result="effect1_foregroundBlur_104_319"/>
</filter>
<filter id="filter17_f_104_319" x="18.5994" y="26.8145" width="7.48878" height="2.63132" filterUnits="userSpaceOnUse" color-interpolation-filters="sRGB">
<feFlood flood-opacity="0" result="BackgroundImageFix"/>
<feBlend mode="normal" in="SourceGraphic" in2="BackgroundImageFix" result="shape"/>
<feGaussianBlur stdDeviation="0.2" result="effect1_foregroundBlur_104_319"/>
</filter>
<filter id="filter18_if_104_319" x="9.2005" y="11.0013" width="14.4214" height="15.5639" filterUnits="userSpaceOnUse" color-interpolation-filters="sRGB">
<feFlood flood-opacity="0" result="BackgroundImageFix"/>
<feBlend mode="normal" in="SourceGraphic" in2="BackgroundImageFix" result="shape"/>
<feColorMatrix in="SourceAlpha" type="matrix" values="0 0 0 0 0 0 0 0 0 0 0 0 0 0 0 0 0 0 127 0" result="hardAlpha"/>
<feOffset dx="0.5" dy="0.5"/>
<feGaussianBlur stdDeviation="0.5"/>
<feComposite in2="hardAlpha" operator="arithmetic" k2="-1" k3="1"/>
<feColorMatrix type="matrix" values="0 0 0 0 0.345098 0 0 0 0 0.286275 0 0 0 0 0.27451 0 0 0 1 0"/>
<feBlend mode="normal" in2="shape" result="effect1_innerShadow_104_319"/>
<feGaussianBlur stdDeviation="0.375" result="effect2_foregroundBlur_104_319"/>
</filter>
<filter id="filter19_if_104_319" x="20.8788" y="6.13682" width="32.6188" height="21.5029" filterUnits="userSpaceOnUse" color-interpolation-filters="sRGB">
<feFlood flood-opacity="0" result="BackgroundImageFix"/>
<feBlend mode="normal" in="SourceGraphic" in2="BackgroundImageFix" result="shape"/>
<feColorMatrix in="SourceAlpha" type="matrix" values="0 0 0 0 0 0 0 0 0 0 0 0 0 0 0 0 0 0 127 0" result="hardAlpha"/>
<feOffset dx="-0.3" dy="0.2"/>
<feGaussianBlur stdDeviation="0.4"/>
<feComposite in2="hardAlpha" operator="arithmetic" k2="-1" k3="1"/>
<feColorMatrix type="matrix" values="0 0 0 0 0.415686 0 0 0 0 0.317647 0 0 0 0 0.305882 0 0 0 1 0"/>
<feBlend mode="normal" in2="shape" result="effect1_innerShadow_104_319"/>
<feGaussianBlur stdDeviation="0.375" result="effect2_foregroundBlur_104_319"/>
</filter>
<filter id="filter20_f_104_319" x="21.2515" y="11.4508" width="2.66178" height="7.07565" filterUnits="userSpaceOnUse" color-interpolation-filters="sRGB">
<feFlood flood-opacity="0" result="BackgroundImageFix"/>
<feBlend mode="normal" in="SourceGraphic" in2="BackgroundImageFix" result="shape"/>
<feGaussianBlur stdDeviation="0.1" result="effect1_foregroundBlur_104_319"/>
</filter>
<filter id="filter21_f_104_319" x="31.3895" y="14.7661" width="22.1574" height="10.5891" filterUnits="userSpaceOnUse" color-interpolation-filters="sRGB">
<feFlood flood-opacity="0" result="BackgroundImageFix"/>
<feBlend mode="normal" in="SourceGraphic" in2="BackgroundImageFix" result="shape"/>
<feGaussianBlur stdDeviation="0.875" result="effect1_foregroundBlur_104_319"/>
</filter>
<linearGradient id="paint0_linear_104_319" x1="50.2734" y1="10.1969" x2="27.042" y2="50.9478" gradientUnits="userSpaceOnUse">
<stop stop-color="#6D524E"/>
<stop offset="1" stop-color="#2C1C24"/>
</linearGradient>
<radialGradient id="paint1_radial_104_319" cx="0" cy="0" r="1" gradientUnits="userSpaceOnUse" gradientTransform="translate(31.3584 45.9977) rotate(97.5394) scale(17.4162 21.7563)">
<stop offset="0.591" stop-color="#261326"/>
<stop offset="1" stop-color="#261326" stop-opacity="0"/>
</radialGradient>
<radialGradient id="paint2_radial_104_319" cx="0" cy="0" r="1" gradientUnits="userSpaceOnUse" gradientTransform="translate(20.6944 47.0133) rotate(146.004) scale(13.1692 17.3032)">
<stop offset="0.258" stop-color="#25131C"/>
<stop offset="1" stop-color="#25131C" stop-opacity="0"/>
</radialGradient>
<radialGradient id="paint3_radial_104_319" cx="0" cy="0" r="1" gradientUnits="userSpaceOnUse" gradientTransform="translate(14.1589 37.3655) rotate(127.405) scale(8.15076 6.25865)">
<stop offset="0.334" stop-color="#27141E"/>
<stop offset="1" stop-color="#27141E" stop-opacity="0"/>
</radialGradient>
<radialGradient id="paint4_radial_104_319" cx="0" cy="0" r="1" gradientUnits="userSpaceOnUse" gradientTransform="translate(15.8702 29.6827) rotate(121.43) scale(9.37327 6.60263)">
<stop offset="0.321" stop-color="#230C14"/>
<stop offset="1" stop-color="#230C14" stop-opacity="0"/>
</radialGradient>
<radialGradient id="paint5_radial_104_319" cx="0" cy="0" r="1" gradientUnits="userSpaceOnUse" gradientTransform="translate(19.17 6.00719) rotate(62.272) scale(11.187 15.5293)">
<stop stop-color="#554543"/>
<stop offset="1" stop-color="#554543" stop-opacity="0"/>
</radialGradient>
<radialGradient id="paint6_radial_104_319" cx="0" cy="0" r="1" gradientUnits="userSpaceOnUse" gradientTransform="translate(54.5878 13.8773) rotate(134.998) scale(7.71995 10.7885)">
<stop stop-color="#6E5350"/>
<stop offset="1" stop-color="#6E5350" stop-opacity="0"/>
</radialGradient>
<radialGradient id="paint7_radial_104_319" cx="0" cy="0" r="1" gradientUnits="userSpaceOnUse" gradientTransform="translate(60.9375 33.3023) rotate(163.779) scale(7.27156 15.1643)">
<stop stop-color="#604947"/>
<stop offset="1" stop-color="#604947" stop-opacity="0"/>
</radialGradient>
<radialGradient id="paint8_radial_104_319" cx="0" cy="0" r="1" gradientUnits="userSpaceOnUse" gradientTransform="translate(58.6523 46.2516) rotate(165.963) scale(10.992 14.0021)">
<stop stop-color="#564544"/>
<stop offset="1" stop-color="#564544" stop-opacity="0"/>
</radialGradient>
<radialGradient id="paint9_radial_104_319" cx="0" cy="0" r="1" gradientUnits="userSpaceOnUse" gradientTransform="translate(50.4217 24.0845) rotate(-108.843) scale(10.6051 8.38805)">
<stop stop-color="#5F4846"/>
<stop offset="1" stop-color="#5F4846" stop-opacity="0"/>
</radialGradient>
<radialGradient id="paint10_radial_104_319" cx="0" cy="0" r="1" gradientUnits="userSpaceOnUse" gradientTransform="translate(9.24003 33.164) rotate(5.988) scale(5.72672 9.27895)">
<stop stop-color="#56413D"/>
<stop offset="1" stop-color="#56413D" stop-opacity="0"/>
</radialGradient>
<radialGradient id="paint11_radial_104_319" cx="0" cy="0" r="1" gradientUnits="userSpaceOnUse" gradientTransform="translate(51.8622 30.6984) rotate(-102.748) scale(14.3829 5.19106)">
<stop stop-color="#3E2125"/>
<stop offset="1" stop-color="#3E2125" stop-opacity="0"/>
</radialGradient>
<linearGradient id="paint12_linear_104_319" x1="8.66125" y1="36.857" x2="15.6955" y2="36.857" gradientUnits="userSpaceOnUse">
<stop stop-color="#8D645F"/>
<stop offset="1" stop-color="#604138"/>
</linearGradient>
<radialGradient id="paint13_radial_104_319" cx="0" cy="0" r="1" gradientUnits="userSpaceOnUse" gradientTransform="translate(13.2662 42.6213) rotate(-118.51) scale(5.18657 5.87708)">
<stop stop-color="#814E62"/>
<stop offset="1" stop-color="#814E62" stop-opacity="0"/>
</radialGradient>
<radialGradient id="paint14_radial_104_319" cx="0" cy="0" r="1" gradientUnits="userSpaceOnUse" gradientTransform="translate(47.7973 38.1875) rotate(-24.444) scale(10.3544 12.6422)">
<stop offset="0.64" stop-color="#B28279"/>
<stop offset="1" stop-color="#CCA58B"/>
</radialGradient>
<radialGradient id="paint15_radial_104_319" cx="0" cy="0" r="1" gradientUnits="userSpaceOnUse" gradientTransform="translate(51.2261 30.0625) scale(4.57031 1.96777)">
<stop stop-color="#906D53"/>
<stop offset="1" stop-color="#906D53" stop-opacity="0"/>
</radialGradient>
<radialGradient id="paint16_radial_104_319" cx="0" cy="0" r="1" gradientUnits="userSpaceOnUse" gradientTransform="translate(49.1319 36.9505) rotate(-4.25415) scale(5.73389 4.48232)">
<stop offset="0.719" stop-color="#A26D62" stop-opacity="0"/>
<stop offset="1" stop-color="#A26D62"/>
</radialGradient>
<radialGradient id="paint17_radial_104_319" cx="0" cy="0" r="1" gradientUnits="userSpaceOnUse" gradientTransform="translate(15.0719 36.5259) rotate(180) scale(3.99902)">
<stop offset="0.722" stop-color="#6C4640" stop-opacity="0"/>
<stop offset="1" stop-color="#6C4640"/>
</radialGradient>
<radialGradient id="paint18_radial_104_319" cx="0" cy="0" r="1" gradientUnits="userSpaceOnUse" gradientTransform="translate(43.3266 34.4906) rotate(155.244) scale(27.1223 36.3025)">
<stop stop-color="#C79980"/>
<stop offset="1" stop-color="#946568"/>
</radialGradient>
<radialGradient id="paint19_radial_104_319" cx="0" cy="0" r="1" gradientUnits="userSpaceOnUse" gradientTransform="translate(39.9628 37.7244) rotate(156.249) scale(9.02094 6.28204)">
<stop stop-color="#C4967A"/>
<stop offset="1" stop-color="#C4967A" stop-opacity="0"/>
</radialGradient>
<radialGradient id="paint20_radial_104_319" cx="0" cy="0" r="1" gradientUnits="userSpaceOnUse" gradientTransform="translate(24.3112 59.1343) rotate(-71.832) scale(15.6576 19.8666)">
<stop stop-color="#945A73"/>
<stop offset="1" stop-color="#945A73" stop-opacity="0"/>
</radialGradient>
<radialGradient id="paint21_radial_104_319" cx="0" cy="0" r="1" gradientUnits="userSpaceOnUse" gradientTransform="translate(36.3736 32.9144) rotate(99.8838) scale(28.3437 35.4291)">
<stop offset="0.637" stop-color="#97577D" stop-opacity="0"/>
<stop offset="1" stop-color="#97577D"/>
</radialGradient>
<radialGradient id="paint22_radial_104_319" cx="0" cy="0" r="1" gradientUnits="userSpaceOnUse" gradientTransform="translate(31.5087 35.9673) rotate(90) scale(23.7402 23.8674)">
<stop offset="0.911" stop-color="#9F6394" stop-opacity="0"/>
<stop offset="1" stop-color="#9F6394"/>
</radialGradient>
<radialGradient id="paint23_radial_104_319" cx="0" cy="0" r="1" gradientUnits="userSpaceOnUse" gradientTransform="translate(39.3535 41.0453) rotate(168.897) scale(26.6512 45.8851)">
<stop offset="0.795" stop-color="#9A7267" stop-opacity="0"/>
<stop offset="1" stop-color="#9A7267"/>
</radialGradient>
<radialGradient id="paint24_radial_104_319" cx="0" cy="0" r="1" gradientUnits="userSpaceOnUse" gradientTransform="translate(41.2141 32.9063) rotate(-90) scale(4.35807 5.34855)">
<stop stop-color="#AE7B75"/>
<stop offset="1" stop-color="#AE7B75" stop-opacity="0"/>
</radialGradient>
<radialGradient id="paint25_radial_104_319" cx="0" cy="0" r="1" gradientUnits="userSpaceOnUse" gradientTransform="translate(24.637 32.0409) rotate(-90) scale(4.97061 5.69664)">
<stop stop-color="#8F5C65"/>
<stop offset="1" stop-color="#8F5C65" stop-opacity="0"/>
</radialGradient>
<radialGradient id="paint26_radial_104_319" cx="0" cy="0" r="1" gradientUnits="userSpaceOnUse" gradientTransform="translate(37.7386 24.1353) rotate(105.092) scale(12.6565 10.1273)">
<stop stop-color="#AB8179"/>
<stop offset="1" stop-color="#AB8179" stop-opacity="0"/>
</radialGradient>
<radialGradient id="paint27_radial_104_319" cx="0" cy="0" r="1" gradientUnits="userSpaceOnUse" gradientTransform="translate(51.7969 38.5389) rotate(180) scale(4.86748 24.4099)">
<stop stop-color="#C0967A"/>
<stop offset="1" stop-color="#C0967A" stop-opacity="0"/>
</radialGradient>
<radialGradient id="paint28_radial_104_319" cx="0" cy="0" r="1" gradientUnits="userSpaceOnUse" gradientTransform="translate(35.4697 41.2913) rotate(-102.564) scale(7.93076 2.44419)">
<stop offset="0.017" stop-color="#CDA38B"/>
<stop offset="1" stop-color="#CDA38B" stop-opacity="0"/>
</radialGradient>
<linearGradient id="paint29_linear_104_319" x1="28.9453" y1="41.5675" x2="32.5" y2="41.5675" gradientUnits="userSpaceOnUse">
<stop stop-color="#875F54"/>
<stop offset="1" stop-color="#875F54" stop-opacity="0"/>
</linearGradient>
<linearGradient id="paint30_linear_104_319" x1="32.5" y1="44.2447" x2="32.5" y2="41.8702" gradientUnits="userSpaceOnUse">
<stop stop-color="#995C76"/>
<stop offset="1" stop-color="#995C76" stop-opacity="0"/>
</linearGradient>
<radialGradient id="paint31_radial_104_319" cx="0" cy="0" r="1" gradientUnits="userSpaceOnUse" gradientTransform="translate(34.5638 42.0936) rotate(180) scale(2.95165 0.825195)">
<stop stop-color="#CA9F8C"/>
<stop offset="1" stop-color="#CA9F8C" stop-opacity="0"/>
</radialGradient>
<linearGradient id="paint32_linear_104_319" x1="32.7966" y1="44.4945" x2="32.7966" y2="43.9664" gradientUnits="userSpaceOnUse">
<stop stop-color="#8F5269"/>
<stop offset="1" stop-color="#8F5269" stop-opacity="0"/>
</linearGradient>
<radialGradient id="paint33_radial_104_319" cx="0" cy="0" r="1" gradientUnits="userSpaceOnUse" gradientTransform="translate(33.928 39.8389) rotate(145.529) scale(6.2989 7.57031)">
<stop offset="0.778" stop-color="#815553" stop-opacity="0"/>
<stop offset="1" stop-color="#815553"/>
</radialGradient>
<linearGradient id="paint34_linear_104_319" x1="28.47" y1="49.9322" x2="30.2149" y2="47.2347" gradientUnits="userSpaceOnUse">
<stop stop-color="#A87D7B"/>
<stop offset="0.663" stop-color="#A87D7B" stop-opacity="0"/>
</linearGradient>
<radialGradient id="paint35_radial_104_319" cx="0" cy="0" r="1" gradientUnits="userSpaceOnUse" gradientTransform="translate(40.7631 34.2652) rotate(90) scale(3.07253 4.88719)">
<stop offset="0.802" stop-color="#7D574A"/>
<stop offset="1" stop-color="#664944"/>
</radialGradient>
<radialGradient id="paint36_radial_104_319" cx="0" cy="0" r="1" gradientUnits="userSpaceOnUse" gradientTransform="translate(39.8999 34.5841) rotate(-127.812) scale(1.43262 1.97236)">
<stop offset="0.766" stop-color="#FFE6E2" stop-opacity="0"/>
<stop offset="0.966" stop-color="#FFE6E2"/>
</radialGradient>
<linearGradient id="paint37_linear_104_319" x1="43.7105" y1="34.4683" x2="42.5222" y2="35.2016" gradientUnits="userSpaceOnUse">
<stop stop-color="#B4948D"/>
<stop offset="1" stop-color="#B4948D" stop-opacity="0"/>
</linearGradient>
<radialGradient id="paint38_radial_104_319" cx="0" cy="0" r="1" gradientUnits="userSpaceOnUse" gradientTransform="translate(24.2369 34.2652) rotate(90) scale(3.07255 4.88723)">
<stop offset="0.802" stop-color="#7D574A"/>
<stop offset="1" stop-color="#664944"/>
</radialGradient>
<linearGradient id="paint39_linear_104_319" x1="27.0542" y1="34.4683" x2="25.8639" y2="35.2016" gradientUnits="userSpaceOnUse">
<stop stop-color="#B4948D"/>
<stop offset="1" stop-color="#B4948D" stop-opacity="0"/>
</linearGradient>
<radialGradient id="paint40_radial_104_319" cx="0" cy="0" r="1" gradientUnits="userSpaceOnUse" gradientTransform="translate(23.7162 34.9815) rotate(-118.811) scale(1.87127 2.24935)">
<stop offset="0.766" stop-color="#FFE6E2" stop-opacity="0"/>
<stop offset="0.966" stop-color="#FFE6E2"/>
</radialGradient>
<radialGradient id="paint41_radial_104_319" cx="0" cy="0" r="1" gradientUnits="userSpaceOnUse" gradientTransform="translate(11.0723 26.2336) rotate(-65.3915) scale(11.4775 5.8716)">
<stop stop-color="#5C4643"/>
<stop offset="1" stop-color="#5C4643" stop-opacity="0"/>
</radialGradient>
<radialGradient id="paint42_radial_104_319" cx="0" cy="0" r="1" gradientUnits="userSpaceOnUse" gradientTransform="translate(17.5393 22.5218) rotate(-59.802) scale(8.65495 4.64653)">
<stop stop-color="#4B2839"/>
<stop offset="1" stop-color="#4B2839" stop-opacity="0"/>
</radialGradient>
<radialGradient id="paint43_radial_104_319" cx="0" cy="0" r="1" gradientUnits="userSpaceOnUse" gradientTransform="translate(39.7359 6.51421) rotate(115.684) scale(18.4541 30.1714)">
<stop offset="0.639" stop-color="#442534" stop-opacity="0"/>
<stop offset="1" stop-color="#442534"/>
</radialGradient>
<radialGradient id="paint44_radial_104_319" cx="0" cy="0" r="1" gradientUnits="userSpaceOnUse" gradientTransform="translate(33.2963 7.91375) rotate(98.746) scale(5.23861 11.2706)">
<stop stop-color="#634945"/>
<stop offset="1" stop-color="#634945" stop-opacity="0"/>
</radialGradient>
<linearGradient id="paint45_linear_104_319" x1="20.7269" y1="10.1969" x2="22.5814" y2="14.9886" gradientUnits="userSpaceOnUse">
<stop stop-color="#361F1F"/>
<stop offset="1" stop-color="#452531"/>
</linearGradient>
</defs>
</svg>
